<svg width="32" height="21" viewBox="0 0 32 21" fill="none" xmlns="http://www.w3.org/2000/svg">
<path d="M16 20C7.6 20 2.66667 18.3333 1 16.5V2L4.75197 6L8.5 2.25L12.25 6L16 2.25L19.75 6L23.5 2.25L27.25 6L31 2V16.5C29.1667 18.3333 24.4 20 16 20Z" fill="#CFCFCF" fill-opacity="0.6"/>
<path d="M19.75 6L23.5 9.75L27.25 6M19.75 6L16 2.25L12.25 6M19.75 6L23.5 2.25L27.25 6M27.25 6L31 2V16.5C29.1667 18.3333 24.4 20 16 20C7.6 20 2.66667 18.3333 1 16.5V2L4.75197 6M12.25 6L8.5 9.75L4.75197 6M12.25 6L8.5 2.25L4.75197 6" stroke="black" stroke-opacity="0.7" stroke-width="1.5"/>
</svg>
