<svg viewBox="0 0 431.05 255.43" xmlns="http://www.w3.org/2000/svg"><rect fill="#fff" height="250.76" rx="13.29" width="426.57" x="2.05" y="2.51"/><path d="m415.33 253.72c-13.87 0-27.75 1.16-41.62 1.33s-27.75.13-41.62 0l-41.62-.31-20.81-.09c-6.94 0-13.87-.05-20.81 0-13.87 0-27.75.21-41.62.32s-27.74.13-41.62.06-27.74-.26-41.62-.29c-6.93 0-13.87 0-20.81 0s-13.87.29-20.81.42-13.87.24-20.81.22h-10.4l-10.41-.11-20.81-.27h-2.6-1.95-.72a14.65 14.65 0 0 1 -5.62-1.44 14.85 14.85 0 0 1 -7.57-8.4l-.24-.68-.18-.7a9.87 9.87 0 0 1 -.27-1.42 8.55 8.55 0 0 1 -.14-1.43c0-.48 0-1 0-1.38l.06-5.2.08-10.41c0-6.94.06-13.87 0-20.81-.12-13.97-.41-27.84-.59-41.72q-.2-10.41-.2-20.81c0-6.93 0-13.87.29-20.81s.59-13.87.6-20.79-.06-13.89-.19-20.83-.23-13.87-.25-20.81.09-13.87.19-20.81q.09-5.19.11-10.4c0-3.47 0-6.93 0-10.41a14.7 14.7 0 0 1 14.59-14.74c13.87-.14 27.74.1 41.62.3 6.93.1 13.87.17 20.81.13s13.87-.34 20.81-.62 13.87-.24 20.81-.16 13.87.31 20.81.47 13.87.31 20.81.33l20.81-.05c13.87-.1 27.74-.35 41.61-.54l10.41-.19q5.16-.09 10.4-.26c6.94-.19 13.88-.41 20.81-.41 13.88-.18 27.75 1.15 41.62 1.12s27.75-.33 41.62-.49c6.94-.06 13.88-.12 20.81.1s13.88.5 20.81.49 13.88-.12 20.81-.38l2.6-.08 1.3-.05h.65.73a15 15 0 0 1 5.79 1.29 15.3 15.3 0 0 1 8.21 8.44l.27.72.21.73a10.83 10.83 0 0 1 .33 1.5 9.7 9.7 0 0 1 .18 1.52c0 .51.06 1 .06 1.43v5.2c0 3.47-.11 6.94-.34 10.41s-.46 6.93-.53 10.4-.06 6.94-.09 10.41c0 13.87.21 27.74.32 41.62l.24 20.81c0 6.93 0 13.87-.06 20.81-.1 13.87-.46 27.74-.69 41.62l-.23 20.81c-.05 6.93.15 13.87.28 20.8s.25 13.87 0 20.82a14 14 0 0 1 -4.71 9.87 14.9 14.9 0 0 1 -9.91 3.8zm0-.89a11.87 11.87 0 0 0 8.86-4 12.47 12.47 0 0 0 3.11-8.83c-.26-6.93-.17-13.87 0-20.81s.33-13.87.28-20.8l-.23-20.81c-.23-13.88-.59-27.75-.69-41.62-.09-6.94-.09-13.88-.06-20.81l.24-20.81c.11-13.88.34-27.75.33-41.62 0-3.47 0-6.94-.1-10.41s-.32-6.93-.53-10.4-.35-6.94-.34-10.41l.05-5.2c0-.46 0-.82 0-1.16a6.35 6.35 0 0 0 -.09-1.07 5.25 5.25 0 0 0 -.19-1l-.11-.52-.18-.51a11.36 11.36 0 0 0 -5.54-6.44 11.55 11.55 0 0 0 -4.25-1.21h-.57-.65-1.3l-2.6-.08c-6.93-.26-13.87-.37-20.81-.39s-13.87.3-20.81.5-13.87.15-20.81.1c-13.87-.17-27.74-.59-41.62-.51s-27.79 1.18-41.67.99c-6.93 0-13.87-.2-20.81-.39-3.46-.11-6.93-.21-10.4-.27l-10.41-.18c-13.87-.19-27.74-.44-41.61-.54l-20.82-.05q-10.41 0-20.81.34c-6.94.16-13.88.38-20.81.47s-13.88.16-20.81-.17-13.87-.69-20.8-.65-13.88 0-20.81.13c-13.88.19-27.75.44-41.62.3a11.86 11.86 0 0 0 -12 11.76v10.4s0 6.94.11 10.4c.1 6.94.18 13.88.19 20.81s-.1 13.88-.25 20.81-.24 13.88-.18 20.83.35 13.88.59 20.81.32 13.88.29 20.81-.09 13.86-.19 20.79c-.18 13.88-.47 27.75-.54 41.62-.08 6.94 0 13.87 0 20.81l.08 10.41.06 5.2a11.59 11.59 0 0 0 0 1.22 7.5 7.5 0 0 0 .13 1.15 7.36 7.36 0 0 0 .28 1.18l.15.55.2.54a11.81 11.81 0 0 0 6.14 6.53 11.47 11.47 0 0 0 4.42 1h.57 1.95 2.6l20.81-.29 10.41-.11h10.4c6.94 0 13.88 0 20.81.22s13.88.35 20.81.42 13.88 0 20.81 0c13.88 0 27.75-.21 41.62-.29s27.75-.05 41.62.06 27.75.31 41.62.32h20.81l20.81-.09 41.62-.31q20.81-.15 41.62 0c13.87.12 27.75 1.27 41.62 1.28z" fill="#1d1d1b"/></svg>