<svg width="96" height="96" viewBox="0 0 96 96" fill="none" xmlns="http://www.w3.org/2000/svg">
<rect x="68" y="80" width="16" height="4" fill="#C4C4C4"/>
<rect x="80" y="64" width="8" height="16" fill="#C4C4C4"/>
<rect x="12" y="40" width="52" height="12" fill="#C4C4C4"/>
<path d="M8 52H68V88H12V84H8V52Z" fill="#C4C4C4"/>
<rect x="16" y="28" width="44" height="12" fill="#C4C4C4"/>
<rect x="20" y="16" width="36" height="12" fill="#C4C4C4"/>
<rect x="24" y="8" width="4" height="4" fill="#2C2C2C"/>
<rect x="24" y="12" width="4" height="4" fill="#C4C4C4"/>
<rect x="20" y="12" width="4" height="4" fill="#2C2C2C"/>
<rect x="28" y="12" width="4" height="4" fill="#2C2C2C"/>
<rect x="32" y="16" width="4" height="4" fill="#2C2C2C"/>
<rect x="36" y="16" width="4" height="4" fill="#2C2C2C"/>
<rect x="40" y="16" width="4" height="4" fill="#2C2C2C"/>
<rect x="44" y="12" width="4" height="4" fill="#2C2C2C"/>
<rect x="48" y="8" width="4" height="4" fill="#2C2C2C"/>
<rect x="48" y="12" width="4" height="4" fill="#C4C4C4"/>
<rect x="52" y="12" width="4" height="4" fill="#2C2C2C"/>
<rect x="52" y="16" width="4" height="4" fill="#2C2C2C"/>
<rect x="56" y="20" width="4" height="4" fill="#2C2C2C"/>
<rect x="56" y="24" width="4" height="4" fill="#2C2C2C"/>
<rect x="60" y="28" width="4" height="4" fill="#2C2C2C"/>
<rect x="60" y="32" width="4" height="4" fill="#2C2C2C"/>
<rect x="60" y="36" width="4" height="4" fill="#2C2C2C"/>
<rect x="64" y="40" width="4" height="4" fill="#2C2C2C"/>
<rect x="68" y="52" width="4" height="4" fill="#2C2C2C"/>
<rect x="68" y="64" width="4" height="4" fill="#2C2C2C"/>
<rect x="64" y="44" width="4" height="4" fill="#2C2C2C"/>
<rect x="68" y="56" width="4" height="4" fill="#2C2C2C"/>
<rect x="68" y="68" width="4" height="4" fill="#2C2C2C"/>
<rect x="64" y="48" width="4" height="4" fill="#2C2C2C"/>
<rect x="68" y="60" width="4" height="4" fill="#2C2C2C"/>
<rect x="68" y="72" width="4" height="4" fill="#2C2C2C"/>
<rect x="68" y="76" width="4" height="4" fill="#2C2C2C"/>
<rect x="72" y="76" width="4" height="4" fill="#2C2C2C"/>
<rect x="76" y="76" width="4" height="4" fill="#2C2C2C"/>
<rect x="80" y="72" width="4" height="4" fill="#2C2C2C"/>
<rect x="80" y="68" width="4" height="4" fill="#2C2C2C"/>
<rect x="76" y="64" width="4" height="4" fill="#2C2C2C"/>
<rect x="80" y="60" width="4" height="4" fill="#2C2C2C"/>
<rect x="84" y="60" width="4" height="4" fill="#2C2C2C"/>
<rect x="88" y="64" width="4" height="4" fill="#2C2C2C"/>
<rect x="88" y="68" width="4" height="4" fill="#2C2C2C"/>
<rect x="88" y="72" width="4" height="4" fill="#2C2C2C"/>
<rect x="88" y="76" width="4" height="4" fill="#2C2C2C"/>
<rect x="84" y="80" width="4" height="4" fill="#2C2C2C"/>
<rect x="80" y="84" width="4" height="4" fill="#2C2C2C"/>
<rect x="76" y="84" width="4" height="4" fill="#2C2C2C"/>
<rect x="72" y="84" width="4" height="4" fill="#2C2C2C"/>
<rect x="68" y="84" width="4" height="4" fill="#2C2C2C"/>
<rect x="64" y="84" width="4" height="4" fill="#2C2C2C"/>
<rect x="60" y="84" width="4" height="4" fill="#2C2C2C"/>
<rect x="56" y="84" width="4" height="4" fill="#2C2C2C"/>
<rect x="52" y="84" width="4" height="4" fill="#2C2C2C"/>
<rect x="48" y="88" width="4" height="4" fill="#2C2C2C"/>
<rect x="44" y="88" width="4" height="4" fill="#2C2C2C"/>
<rect x="40" y="84" width="4" height="4" fill="#2C2C2C"/>
<rect x="36" y="84" width="4" height="4" fill="#2C2C2C"/>
<rect x="32" y="84" width="4" height="4" fill="#2C2C2C"/>
<rect x="28" y="88" width="4" height="4" fill="#2C2C2C"/>
<rect x="28" y="84" width="4" height="4" fill="#2C2C2C"/>
<rect x="28" y="80" width="4" height="4" fill="#2C2C2C"/>
<rect x="44" y="80" width="4" height="4" fill="#2C2C2C"/>
<rect x="44" y="84" width="4" height="4" fill="#2C2C2C"/>
<rect x="52" y="80" width="4" height="4" fill="#2C2C2C"/>
<rect x="28" y="76" width="4" height="4" fill="#2C2C2C"/>
<rect x="44" y="76" width="4" height="4" fill="#2C2C2C"/>
<rect x="52" y="76" width="4" height="4" fill="#2C2C2C"/>
<rect x="52" y="72" width="4" height="4" fill="#2C2C2C"/>
<rect x="24" y="88" width="4" height="4" fill="#2C2C2C"/>
<rect x="20" y="88" width="4" height="4" fill="#2C2C2C"/>
<rect x="20" y="84" width="4" height="4" fill="#2C2C2C"/>
<rect x="16" y="84" width="4" height="4" fill="#2C2C2C"/>
<rect x="12" y="84" width="4" height="4" fill="#2C2C2C"/>
<rect x="8" y="80" width="4" height="4" fill="#2C2C2C"/>
<rect x="4" y="76" width="4" height="4" fill="#2C2C2C"/>
<rect x="4" y="72" width="4" height="4" fill="#2C2C2C"/>
<rect x="4" y="68" width="4" height="4" fill="#2C2C2C"/>
<rect x="8" y="68" width="4" height="4" fill="#6F6F6F"/>
<rect width="4" height="4" transform="matrix(-1 0 0 1 68 68)" fill="#6F6F6F"/>
<rect x="8" y="57" width="4" height="4" fill="#6F6F6F"/>
<rect width="4" height="4" transform="matrix(-1 0 0 1 68 57)" fill="#6F6F6F"/>
<rect x="12" y="68" width="4" height="4" fill="#6F6F6F"/>
<rect width="4" height="4" transform="matrix(-1 0 0 1 64 68)" fill="#6F6F6F"/>
<rect x="12" y="57" width="4" height="4" fill="#6F6F6F"/>
<rect x="28" y="16" width="4" height="4" fill="#6F6F6F"/>
<rect x="44" y="16" width="4" height="4" fill="#6F6F6F"/>
<rect x="28" y="20" width="4" height="4" fill="#6F6F6F"/>
<rect x="44" y="20" width="4" height="4" fill="#6F6F6F"/>
<rect x="36" y="20" width="4" height="4" fill="#6F6F6F"/>
<rect width="4" height="4" transform="matrix(-1 0 0 1 64 57)" fill="#6F6F6F"/>
<rect x="8" y="72" width="4" height="4" fill="#6F6F6F"/>
<rect width="4" height="4" transform="matrix(-1 0 0 1 68 72)" fill="#6F6F6F"/>
<rect x="8" y="61" width="4" height="4" fill="#6F6F6F"/>
<rect width="4" height="4" transform="matrix(-1 0 0 1 68 61)" fill="#6F6F6F"/>
<rect x="4" y="64" width="4" height="4" fill="#2C2C2C"/>
<rect x="4" y="60" width="4" height="4" fill="#2C2C2C"/>
<rect x="4" y="56" width="4" height="4" fill="#2C2C2C"/>
<rect x="4" y="52" width="4" height="4" fill="#2C2C2C"/>
<rect x="8" y="48" width="4" height="4" fill="#2C2C2C"/>
<rect x="8" y="44" width="4" height="4" fill="#2C2C2C"/>
<rect x="8" y="40" width="4" height="4" fill="#2C2C2C"/>
<rect x="12" y="36" width="4" height="4" fill="#2C2C2C"/>
<rect x="12" y="32" width="4" height="4" fill="#2C2C2C"/>
<rect x="8" y="32" width="4" height="4" fill="#2C2C2C"/>
<rect x="4" y="32" width="4" height="4" fill="#2C2C2C"/>
<rect x="12" y="28" width="4" height="4" fill="#2C2C2C"/>
<rect x="16" y="24" width="4" height="4" fill="#2C2C2C"/>
<rect x="36" y="32" width="4" height="4" fill="#2C2C2C"/>
<rect x="32" y="36" width="4" height="4" fill="#2C2C2C"/>
<rect x="40" y="36" width="4" height="4" fill="#2C2C2C"/>
<rect x="48" y="32" width="4" height="4" fill="#2C2C2C"/>
<rect x="24" y="32" width="4" height="4" fill="#2C2C2C"/>
<rect x="20" y="36" width="4" height="4" fill="#FF9FA8"/>
<rect x="52" y="36" width="4" height="4" fill="#FF9FA8"/>
<rect x="8" y="24" width="4" height="4" fill="#2C2C2C"/>
<rect x="16" y="20" width="4" height="4" fill="#2C2C2C"/>
<rect x="20" y="16" width="4" height="4" fill="#2C2C2C"/>
<rect x="4" y="24" width="4" height="4" fill="#2C2C2C"/>
<rect x="20" y="80" width="4" height="4" fill="#2C2C2C"/>
<rect x="20" y="76" width="4" height="4" fill="#2C2C2C"/>
<rect x="20" y="72" width="4" height="4" fill="#2C2C2C"/>
<rect x="64" y="32" width="4" height="4" fill="#2C2C2C"/>
<rect x="68" y="32" width="4" height="4" fill="#2C2C2C"/>
<rect x="64" y="24" width="4" height="4" fill="#2C2C2C"/>
<rect x="68" y="24" width="4" height="4" fill="#2C2C2C"/>
<rect x="48" y="12" width="4" height="4" fill="#DDDFE0"/>
<rect x="24" y="12" width="4" height="4" fill="#DDDFE0"/>
</svg>
