<svg xmlns="http://www.w3.org/2000/svg" viewBox="0 0 291.33 125.58"><defs><style>.cls-1{fill:#1d1d1b;}</style></defs><g id="Layer_2" data-name="Layer 2"><g id="Layer_1-2" data-name="Layer 1"><path class="cls-1" d="M7.68,81c-6.11-.37-7.2-.29-7.51.51C-.39,83,.22,83.18,5,83.18a119.89,119.89,0,0,1,24.52,3.39c6.94,1.8,7.15,1.82,7.15.64C36.7,85.21,20.71,81.78,7.68,81Z"/><path class="cls-1" d="M29.3,120.21c-1.86.29-6.51,1.12-10.32,1.85-6.05,1.16-6.93,1.49-6.93,2.55s.26,1.15,1.69.77c.94-.25,6-1.19,11.25-2.09,9.7-1.65,11.39-2.16,10.76-3.18C35.34,119.45,34,119.47,29.3,120.21Z"/><path class="cls-1" d="M33.61,103.5c-1-.65-17.19-.65-25.31,0-5.34.43-7,.9-6.43,1.83.43.69,31.28,0,32.05-.69C34.32,104.28,34.21,103.88,33.61,103.5Z"/><path class="cls-1" d="M257.64,102.82c-.89,1.43.38,1.75,5.94,1.47,3.14-.16,10.15,0,15.57.37s10.07.43,10.34.16.05-.87-.49-1.32C287.66,102.39,258.29,101.76,257.64,102.82Z"/><path class="cls-1" d="M261.15,58.53c.12,5.2.26,5.87,1.31,6.07s1.16-.15.76-9.54a251,251,0,0,0-3.8-34.42c-1.86-10.1-3.86-18.83-4.59-20-.46-.74-1.55-.24-6,2.76-15.09,10.2-31.41,23.37-40.24,32.46L204,40.62l-8.32-1.54c-14.19-2.64-23.37-3.33-44.51-3.34-22.32,0-32,.78-49.86,4l-11.51,2.1-8.21-8.38A264.1,264.1,0,0,0,54.94,9.69C48.72,4.94,41.56,0,40.88,0c-.28,0-.76.63-1.05,1.4C37,9,32.22,27.67,30.83,37c-1,6.56-2.24,26.42-1.73,27.26a1.46,1.46,0,0,0,1.16.47c.68,0,.89-.92.89-3.92,0-15.61,3.23-34.89,8.69-51.95C42,2,40.9,1.94,51.36,9.82A245.32,245.32,0,0,1,80.61,35.67l8.48,8.73,9.39-1.83a251.75,251.75,0,0,1,52.51-5c18.94,0,31.61,1.15,47.48,4.32l6.2,1.24,8-7.91c4.39-4.36,11-10.33,14.72-13.27C235.52,15.51,252,3.7,252.87,3.7s1,.55,2.81,9.24A267.65,267.65,0,0,1,261.15,58.53Z"/><path class="cls-1" d="M270.8,120.83c-9.15-1.74-14.49-2.22-15-1.37s2,1.92,4.26,1.92c.8,0,5.21.7,9.8,1.54,9.78,1.81,9.61,1.8,9.61.66S279.08,122.4,270.8,120.83Z"/><path class="cls-1" d="M278.23,80.48c-.85.13-3.62.54-6.16.9-5,.72-13.64,2.71-15.87,3.65-.76.32-1.38,1-1.38,1.53s.07.93.15.93,3.36-.81,7.28-1.8c6.58-1.66,11.13-2.33,24.3-3.58,2.75-.26,4.86-.74,4.78-1.09C291.18,80.42,281.31,80,278.23,80.48Z"/><path class="cls-1" d="M109.44,79.48c-5-1-17.07-1.08-25.44-.14a48.42,48.42,0,0,0-17.26,5c-4.16,2.24-7.28,5.1-8.79,8-2.21,4.33-2.61,7.87-1.22,10.82,2,4.25,7.58,7.34,17.08,9.45A73.67,73.67,0,0,0,87.56,114a79.83,79.83,0,0,0,31.11-6.63c9.14-3.83,10.94-8.16,10.87-13.91S118.88,81.43,109.44,79.48Zm.15,29.31c-12.62,3.48-18.77,3.45-27.38,3A43.42,43.42,0,0,1,65,107.68c-4.24-2-6.51-4.79-6.57-8.21-.1-5,4.54-10.49,12.09-14.31,6.1-3.09,10.69-4.25,24.29-4.59l2,0c12.81,0,19.18,3.26,19.26,3.3,7.41,2.29,11.66,6.24,11.66,10.84C127.73,101.4,118,106.48,109.59,108.79Z"/><path class="cls-1" d="M227.84,84.34a48.42,48.42,0,0,0-17.26-5c-8.37-.94-20.49-.88-25.44.14-9.44,2-20,8.33-20.11,14s1.74,10.08,10.87,13.91A79.88,79.88,0,0,0,207,114a73.67,73.67,0,0,0,13.75-1.31c9.49-2.11,15.08-5.2,17.07-9.45,1.39-2.95,1-6.49-1.21-10.82C235.12,89.44,232,86.58,227.84,84.34Zm1.71,23.34a43.37,43.37,0,0,1-17.18,4.1c-8.62.46-14.77.49-27.38-3-8.37-2.31-18.14-7.39-18.14-14.11,0-4.6,4.25-8.55,11.68-10.85a26,26,0,0,1,5.24-1.77,59.5,59.5,0,0,1,14-1.52l2,0c11.83.3,17.27,1,24.3,4.59,7.55,3.82,12.18,9.3,12.09,14.31C236.07,102.89,233.8,105.73,229.55,107.68Z"/></g></g></svg>