<svg width="80" height="80" viewBox="0 0 80 80" fill="none" xmlns="http://www.w3.org/2000/svg">
<path d="M40 12V68H20V12H40Z" fill="#C4C4C4"/>
<path d="M20 16V64H16V60H12V56H8V24H12V20H16V16H20Z" fill="#C4C4C4"/>
<path d="M72 64H56V16H72V20H68V28H60V52H68V60H72V64Z" fill="#C4C4C4"/>
<path d="M72 60V64H68V60H72Z" fill="#DDDFE0"/>
<path d="M72 16V20H68V16H72Z" fill="#DDDFE0"/>
<path d="M56 12V68H40V12H56Z" fill="#C4C4C4"/>
<path d="M76 16V20H72V16H76Z" fill="#2C2C2C"/>
<path d="M64 12V16H60V12H64Z" fill="#2C2C2C"/>
<path d="M68 12V16H64V12H68Z" fill="#2C2C2C"/>
<path d="M72 12V16H68V12H72Z" fill="#2C2C2C"/>
<path d="M60 12V16H56V12H60Z" fill="#2C2C2C"/>
<path d="M56 12V16H52V12H56Z" fill="#2C2C2C"/>
<path d="M60 68V64H56V68H60Z" fill="#2C2C2C"/>
<path d="M64 68V64H60V68H64Z" fill="#2C2C2C"/>
<path d="M68 68V64H64V68H68Z" fill="#2C2C2C"/>
<path d="M72 68V64H68V68H72Z" fill="#2C2C2C"/>
<path d="M56 68V64H52V68H56Z" fill="#2C2C2C"/>
<path d="M52 8V12H48V8H52Z" fill="#2C2C2C"/>
<path d="M48 8V12H44V8H48Z" fill="#2C2C2C"/>
<path d="M44 8V12H40V8H44Z" fill="#2C2C2C"/>
<path d="M40 8V12H36V8H40Z" fill="#2C2C2C"/>
<path d="M44 4V8H40V4H44Z" fill="#2C2C2C"/>
<path d="M37 4V8H33V4H37Z" fill="#2C2C2C"/>
<path d="M36 8V12H32V8H36Z" fill="#2C2C2C"/>
<path d="M32 8V12H28V8H32Z" fill="#2C2C2C"/>
<path d="M28 8V12H24V8H28Z" fill="#2C2C2C"/>
<path d="M52 72V68H48V72H52Z" fill="#2C2C2C"/>
<path d="M44 76V72H40V76H44Z" fill="#2C2C2C"/>
<path d="M37 76V72H33V76H37Z" fill="#2C2C2C"/>
<path d="M48 72V68H44V72H48Z" fill="#2C2C2C"/>
<path d="M44 72V68H40V72H44Z" fill="#2C2C2C"/>
<path d="M40 72V68H36V72H40Z" fill="#2C2C2C"/>
<path d="M36 72V68H32V72H36Z" fill="#2C2C2C"/>
<path d="M32 72V68H28V72H32Z" fill="#2C2C2C"/>
<path d="M28 72V68H24V72H28Z" fill="#2C2C2C"/>
<path d="M20 12H24V16H20V12Z" fill="#2C2C2C"/>
<path d="M24 68V64H20V68H24Z" fill="#2C2C2C"/>
<path d="M16 16H20V20H16V16Z" fill="#2C2C2C"/>
<path d="M20 64V60H16V64H20Z" fill="#2C2C2C"/>
<path d="M12 20H16V24H12V20Z" fill="#2C2C2C"/>
<path d="M16 60V56H12V60H16Z" fill="#2C2C2C"/>
<path d="M16 56V52H12V56H16Z" fill="#6F6F6F"/>
<path d="M20 60V56H16V60H20Z" fill="#6F6F6F"/>
<path d="M24 64V60H20V64H24Z" fill="#6F6F6F"/>
<path d="M28 68V64H24V68H28Z" fill="#6F6F6F"/>
<path d="M64 56V52H60V56H64Z" fill="#6F6F6F"/>
<path d="M64 60V56H60V60H64Z" fill="#6F6F6F"/>
<path d="M64 24V20H60V24H64Z" fill="#6F6F6F"/>
<path d="M64 28V24H60V28H64Z" fill="#6F6F6F"/>
<path d="M12 28H16V24H12V28Z" fill="#6F6F6F"/>
<path d="M16 24H20V20H16V24Z" fill="#6F6F6F"/>
<path d="M20 20H24V16H20V20Z" fill="#6F6F6F"/>
<path d="M24 16H28V12H24V16Z" fill="#6F6F6F"/>
<path d="M12 24V28H8V24H12Z" fill="#2C2C2C"/>
<path d="M12 56V52H8V56H12Z" fill="#2C2C2C"/>
<path d="M12 28V32H8V28H12Z" fill="#2C2C2C"/>
<path d="M12 52V48H8V52H12Z" fill="#2C2C2C"/>
<path d="M12 32V36H8V32H12Z" fill="#2C2C2C"/>
<path d="M12 48V44H8V48H12Z" fill="#2C2C2C"/>
<path d="M12 36V40H8V36H12Z" fill="#2C2C2C"/>
<path d="M12 44V40H8V44H12Z" fill="#2C2C2C"/>
<path d="M72 56V60H68V56H72Z" fill="#2C2C2C"/>
<path d="M68 56V60H64V56H68Z" fill="#2C2C2C"/>
<path d="M68 52V56H64V52H68Z" fill="#2C2C2C"/>
<path d="M72 20V24H68V20H72Z" fill="#2C2C2C"/>
<path d="M68 20V24H64V20H68Z" fill="#2C2C2C"/>
<path d="M68 24V28H64V24H68Z" fill="#2C2C2C"/>
<path d="M76 60V64H72V60H76Z" fill="#2C2C2C"/>
<path d="M64 28V32H60V28H64Z" fill="#2C2C2C"/>
<path d="M60 32V36H56V32H60Z" fill="#2C2C2C"/>
<path d="M60 36V40H56V36H60Z" fill="#2C2C2C"/>
<path d="M60 40V44H56V40H60Z" fill="#2C2C2C"/>
<path d="M60 44V48H56V44H60Z" fill="#2C2C2C"/>
<path d="M60 24V28H56V24H60Z" fill="#2C2C2C"/>
<path d="M56 24V28H52V24H56Z" fill="#2C2C2C"/>
<path d="M60 52V56H56V52H60Z" fill="#2C2C2C"/>
<path d="M56 52V56H52V52H56Z" fill="#2C2C2C"/>
<path d="M32 36H36V40H32V36Z" fill="#2C2C2C"/>
<path d="M20 38V42H16V38H20Z" fill="#2C2C2C"/>
<path d="M20 42V46H16V42H20Z" fill="#2C2C2C"/>
<path d="M20 34V38H16V34H20Z" fill="#2C2C2C"/>
<path d="M28 36H32V40H28V36Z" fill="#2C2C2C"/>
<path d="M28 32H32V36H28V32Z" fill="#2C2C2C"/>
<path d="M32 40H36V44H32V40Z" fill="#2C2C2C"/>
<path d="M28 40H32V44H28V40Z" fill="#2C2C2C"/>
<path d="M28 44H32V48H28V44Z" fill="#2C2C2C"/>
<path d="M44 52V56H40V52H44Z" fill="#2C2C2C"/>
<path d="M40 52V56H36V52H40Z" fill="#2C2C2C"/>
<path d="M44 24V28H40V24H44Z" fill="#2C2C2C"/>
<path d="M40 24V28H36V24H40Z" fill="#2C2C2C"/>
<path d="M64 48V52H60V48H64Z" fill="#2C2C2C"/>
<path d="M36 56V60H32V56H36Z" fill="#FF9FA8"/>
<path d="M36 20V24H32V20H36Z" fill="#FF9FA8"/>
<path d="M52 64V68H48V64H52Z" fill="#DDDFE0"/>
<path d="M52 12V16H48V12H52Z" fill="#DDDFE0"/>
<path d="M36 44V48H32V44H36Z" fill="#DDDFE0"/>
</svg>
