<svg width="80" height="80" viewBox="0 0 80 80" fill="none" xmlns="http://www.w3.org/2000/svg">
<g clip-path="url(#clip0)">
<rect x="12" y="40" width="56" height="20" fill="#C4C4C4"/>
<path d="M16 60H64V64H60V68H56V72H24V68H20V64H16V60Z" fill="#C4C4C4"/>
<path d="M64 8V24H16V8H20V12H28V20H52V12H60V8L64 8Z" fill="#C4C4C4"/>
<rect x="60" y="8" width="4" height="4" fill="#DDDFE0"/>
<rect x="16" y="8" width="4" height="4" fill="#DDDFE0"/>
<rect x="12" y="24" width="56" height="16" fill="#C4C4C4"/>
<rect x="20" y="8" width="4" height="4" fill="#2C2C2C"/>
<rect x="56" y="8" width="4" height="4" fill="#2C2C2C"/>
<rect x="20" y="12" width="4" height="4" fill="#2C2C2C"/>
<rect x="56" y="12" width="4" height="4" fill="#2C2C2C"/>
<rect x="16" y="4" width="4" height="4" fill="#2C2C2C"/>
<rect x="12" y="16" width="4" height="4" fill="#2C2C2C"/>
<rect x="12" y="12" width="4" height="4" fill="#2C2C2C"/>
<rect x="12" y="8" width="4" height="4" fill="#2C2C2C"/>
<rect x="12" y="20" width="4" height="4" fill="#2C2C2C"/>
<rect width="4" height="4" transform="matrix(-1 0 0 1 68 20)" fill="#2C2C2C"/>
<rect width="4" height="4" transform="matrix(-1 0 0 1 68 16)" fill="#2C2C2C"/>
<rect width="4" height="4" transform="matrix(-1 0 0 1 68 12)" fill="#2C2C2C"/>
<rect width="4" height="4" transform="matrix(-1 0 0 1 68 8)" fill="#2C2C2C"/>
<rect x="12" y="24" width="4" height="4" fill="#2C2C2C"/>
<rect width="4" height="4" transform="matrix(-1 0 0 1 68 24)" fill="#2C2C2C"/>
<rect x="8" y="28" width="4" height="4" fill="#2C2C2C"/>
<rect width="4" height="4" transform="matrix(-1 0 0 1 72 28)" fill="#2C2C2C"/>
<rect width="4" height="4" transform="matrix(-1 0 0 1 76 36)" fill="#2C2C2C"/>
<rect width="4" height="4" transform="matrix(-1 0 0 1 76 43)" fill="#2C2C2C"/>
<rect x="8" y="32" width="4" height="4" fill="#2C2C2C"/>
<rect width="4" height="4" transform="matrix(-1 0 0 1 72 32)" fill="#2C2C2C"/>
<rect x="8" y="36" width="4" height="4" fill="#2C2C2C"/>
<rect width="4" height="4" transform="matrix(-1 0 0 1 72 36)" fill="#2C2C2C"/>
<rect x="8" y="40" width="4" height="4" fill="#2C2C2C"/>
<rect x="4" y="36" width="4" height="4" fill="#2C2C2C"/>
<rect x="4" y="43" width="4" height="4" fill="#2C2C2C"/>
<rect width="4" height="4" transform="matrix(-1 0 0 1 72 40)" fill="#2C2C2C"/>
<rect x="8" y="44" width="4" height="4" fill="#2C2C2C"/>
<rect width="4" height="4" transform="matrix(-1 0 0 1 72 44)" fill="#2C2C2C"/>
<rect x="8" y="48" width="4" height="4" fill="#2C2C2C"/>
<rect width="4" height="4" transform="matrix(-1 0 0 1 72 48)" fill="#2C2C2C"/>
<rect x="8" y="52" width="4" height="4" fill="#2C2C2C"/>
<rect width="4" height="4" transform="matrix(-1 0 0 1 72 52)" fill="#2C2C2C"/>
<rect x="12" y="56" width="4" height="4" fill="#2C2C2C"/>
<rect width="4" height="4" transform="matrix(-1 0 0 1 68 56)" fill="#2C2C2C"/>
<rect x="16" y="60" width="4" height="4" fill="#2C2C2C"/>
<rect width="4" height="4" transform="matrix(-1 0 0 1 64 60)" fill="#2C2C2C"/>
<rect x="20" y="64" width="4" height="4" fill="#2C2C2C"/>
<rect width="4" height="4" transform="matrix(-1 0 0 1 60 64)" fill="#2C2C2C"/>
<rect width="4" height="4" transform="matrix(-1 0 0 1 56 64)" fill="#6F6F6F"/>
<rect width="4" height="4" transform="matrix(-1 0 0 1 60 60)" fill="#6F6F6F"/>
<rect width="4" height="4" transform="matrix(-1 0 0 1 64 56)" fill="#6F6F6F"/>
<rect width="4" height="4" transform="matrix(-1 0 0 1 68 52)" fill="#6F6F6F"/>
<rect width="4" height="4" transform="matrix(-1 0 0 1 56 16)" fill="#6F6F6F"/>
<rect width="4" height="4" transform="matrix(-1 0 0 1 24 16)" fill="#6F6F6F"/>
<rect width="4" height="4" transform="matrix(-1 0 0 1 60 16)" fill="#6F6F6F"/>
<rect width="4" height="4" transform="matrix(-1 0 0 1 28 16)" fill="#6F6F6F"/>
<rect width="4" height="4" transform="matrix(-1 0 0 1 28 64)" fill="#6F6F6F"/>
<rect width="4" height="4" transform="matrix(-1 0 0 1 24 60)" fill="#6F6F6F"/>
<rect width="4" height="4" transform="matrix(-1 0 0 1 20 56)" fill="#6F6F6F"/>
<rect width="4" height="4" transform="matrix(-1 0 0 1 16 52)" fill="#6F6F6F"/>
<rect x="24" y="68" width="4" height="4" fill="#2C2C2C"/>
<rect width="4" height="4" transform="matrix(-1 0 0 1 56 68)" fill="#2C2C2C"/>
<rect x="28" y="68" width="4" height="4" fill="#2C2C2C"/>
<rect width="4" height="4" transform="matrix(-1 0 0 1 52 68)" fill="#2C2C2C"/>
<rect x="32" y="68" width="4" height="4" fill="#2C2C2C"/>
<rect width="4" height="4" transform="matrix(-1 0 0 1 48 68)" fill="#2C2C2C"/>
<rect x="36" y="68" width="4" height="4" fill="#2C2C2C"/>
<rect width="4" height="4" transform="matrix(-1 0 0 1 44 68)" fill="#2C2C2C"/>
<rect x="52" y="12" width="4" height="4" fill="#2C2C2C"/>
<rect x="24" y="12" width="4" height="4" fill="#2C2C2C"/>
<rect x="60" y="4" width="4" height="4" fill="#2C2C2C"/>
<rect x="28" y="16" width="4" height="4" fill="#2C2C2C"/>
<rect x="32" y="20" width="4" height="4" fill="#2C2C2C"/>
<rect x="36" y="20" width="4" height="4" fill="#2C2C2C"/>
<rect x="40" y="20" width="4" height="4" fill="#2C2C2C"/>
<rect x="44" y="20" width="4" height="4" fill="#2C2C2C"/>
<rect x="24" y="20" width="4" height="4" fill="#2C2C2C"/>
<rect x="52" y="20" width="4" height="4" fill="#2C2C2C"/>
<rect x="24" y="24" width="4" height="4" fill="#2C2C2C"/>
<rect x="52" y="24" width="4" height="4" fill="#2C2C2C"/>
<rect x="36" y="44" width="4" height="4" fill="#2C2C2C"/>
<rect x="38" y="60" width="4" height="4" fill="#2C2C2C"/>
<rect x="42" y="60" width="4" height="4" fill="#2C2C2C"/>
<rect x="34" y="60" width="4" height="4" fill="#2C2C2C"/>
<rect x="36" y="48" width="4" height="4" fill="#2C2C2C"/>
<rect x="32" y="48" width="4" height="4" fill="#2C2C2C"/>
<rect x="40" y="44" width="4" height="4" fill="#2C2C2C"/>
<rect x="40" y="48" width="4" height="4" fill="#2C2C2C"/>
<rect x="44" y="48" width="4" height="4" fill="#2C2C2C"/>
<rect x="52" y="36" width="4" height="4" fill="#2C2C2C"/>
<rect x="52" y="40" width="4" height="4" fill="#2C2C2C"/>
<rect x="24" y="36" width="4" height="4" fill="#2C2C2C"/>
<rect x="24" y="40" width="4" height="4" fill="#2C2C2C"/>
<rect x="48" y="16" width="4" height="4" fill="#2C2C2C"/>
<rect x="56" y="44" width="4" height="4" fill="#FF9FA8"/>
<rect x="20" y="44" width="4" height="4" fill="#FF9FA8"/>
<rect x="64" y="28" width="4" height="4" fill="#DDDFE0"/>
<rect x="12" y="28" width="4" height="4" fill="#DDDFE0"/>
<rect x="44" y="44" width="4" height="4" fill="#DDDFE0"/>
</g>
<defs>
<clipPath id="clip0">
<rect width="80" height="80" fill="white"/>
</clipPath>
</defs>
</svg>
