<svg width="40" height="40" viewBox="0 0 40 40" fill="none" xmlns="http://www.w3.org/2000/svg">
<g opacity="0.3">
<path d="M35.7579 39.8095C30.8473 39.8095 30.2789 39.9014 22.2914 39.9686C20.427 40 18.5356 40 16.6713 40H13.8612L5.37696 39.9529H3.94491C3.43153 39.9372 2.89113 39.8588 2.43179 39.7333C1.48609 39.4666 0.729537 38.9802 0.378279 38.4155L0.270199 38.1958C0.243179 38.1174 0.216159 38.0546 0.189139 37.9762C0.162119 37.8978 0.162119 37.8193 0.162119 37.7566C0.162119 37.6781 0.162119 37.5997 0.162119 37.5369L0.189139 36.7211L0.216159 35.0895C0.216159 34.007 0.243179 32.9088 0.216159 31.8263C0.189139 29.6457 0.10808 27.4807 0.0810597 25.3C0.0270199 24.1861 0 23.0879 0 22.0054C0 20.9229 0 19.8247 0.0810597 18.7422C0.135099 17.6597 0.243179 16.5616 0.243179 15.4791C0.270199 14.3809 0.216159 13.2984 0.189139 12.2159C0.135099 11.1334 0.135099 10.0352 0.10808 8.95268C0.10808 7.87019 0.135099 6.772 0.162119 5.6895C0.189139 5.14041 0.189139 4.607 0.189139 4.05791C0.189139 3.50882 0.189139 2.97541 0.189139 2.42632C0.189139 1.83016 0.594438 1.234 1.32397 0.810413C2.08053 0.371138 3.10729 0.120124 4.13404 0.104435C14.9808 0.0591269 17.2806 0.0132039 17.6276 0.010305C19.4919 -0.0053834 21.3833 -0.00538341 23.2477 0.0259934C25.1121 0.0573701 27.0034 0.104435 28.8678 0.104435C30.7322 0.104435 32.6236 0.0887469 34.488 0.0416818L35.1905 0.0259934H35.92C36.4604 0.0259934 37.0008 0.104435 37.4872 0.214254C38.4869 0.465268 39.2975 0.951608 39.7028 1.54777L39.7839 1.65759L39.8379 1.7674C39.8649 1.84585 39.919 1.92429 39.919 2.00273C39.946 2.08117 39.973 2.15961 39.973 2.23806C39.973 2.3165 40 2.39494 40 2.45769V3.27349C40 3.82258 39.973 4.35599 39.919 4.90508C39.8649 5.45417 39.7839 5.98758 39.7839 6.53667C39.7568 7.08577 39.7568 7.61917 39.7568 8.16827C39.7568 10.349 39.8109 12.5139 39.8379 14.6946L39.8919 17.9578C39.8919 19.0403 39.8919 20.1385 39.8649 21.221C39.8379 23.4017 39.7298 25.5667 39.6758 27.7474L39.6217 31.0106C39.5947 32.0931 39.6758 33.1912 39.7028 34.2737C39.7298 35.3562 39.7568 36.4544 39.7028 37.5369C39.6758 38.1331 39.1624 38.7136 38.4329 39.0901C37.7033 39.545 36.7306 39.8095 35.7579 39.8095ZM35.7579 39.5C36.6766 39.5 37.5682 39.3725 38.1627 38.9959C38.7571 38.6037 39.0543 38.1017 39.0003 37.6154C38.9192 36.5329 38.9462 35.4347 39.0003 34.3522C39.0273 33.2697 39.0813 32.1715 39.0813 31.089L39.0273 27.8258C38.9733 25.6451 38.8652 23.4801 38.8382 21.2994C38.8112 20.2169 38.8111 19.1188 38.8111 18.0363L38.8652 14.7731C38.8922 12.5924 38.9463 10.4274 38.9463 8.24671C38.9463 7.69761 38.9462 7.16421 38.9192 6.61512C38.8922 6.06602 38.8382 5.53262 38.7841 4.98352C38.7301 4.43443 38.7031 3.90102 38.7031 3.35193V2.53613C38.7031 2.45769 38.7031 2.41063 38.7031 2.34787C38.7031 2.28512 38.7031 2.23806 38.676 2.1753C38.676 2.11255 38.649 2.06548 38.622 2.00273L38.595 1.92429L38.541 1.84585C38.2978 1.42226 37.7574 1.04574 37.0549 0.841789C36.7036 0.731971 36.2983 0.669217 35.92 0.653529H35.2175L34.515 0.63784C32.6506 0.590775 30.7592 0.575087 28.8948 0.575087C27.0305 0.575087 25.1391 0.622152 23.2747 0.653529C21.4103 0.684905 19.5189 0.684905 17.6546 0.669217C17.286 0.666138 14.969 0.620346 4.13404 0.575087C3.29643 0.575087 2.45881 0.763347 1.86437 1.10849C1.24292 1.45364 0.891657 1.93998 0.891657 2.42632C0.891657 2.97541 0.891657 3.50882 0.891657 4.05791C0.891657 4.607 0.918677 5.14041 0.918677 5.6895C0.945696 6.772 0.972716 7.87019 0.972716 8.95268C0.972716 10.0352 0.945696 11.1334 0.891657 12.2159C0.891657 13.2984 0.837617 14.3809 0.864637 15.4791C0.864637 16.5616 0.972716 17.6597 1.02676 18.7422C1.10782 19.8247 1.10782 20.9229 1.10782 22.0054C1.10782 23.0879 1.0808 24.1861 1.05378 25.2686C0.999736 27.4493 0.918677 29.6143 0.918677 31.795C0.891657 32.8775 0.918677 33.9757 0.918677 35.0582L0.945696 36.6897L0.972716 37.5055C0.972716 37.584 0.972716 37.6311 0.999736 37.6938C0.999736 37.7566 1.02676 37.8193 1.02676 37.8821C1.02676 37.9448 1.05378 38.0076 1.0808 38.0546L1.10782 38.1488L1.16186 38.2272C1.45907 38.6822 2.08053 39.0587 2.81007 39.247C3.18835 39.3411 3.59365 39.4038 3.99894 39.4038H5.40398L11.0241 39.3568L13.8342 39.3411H16.6443C18.5086 39.3411 20.4 39.2333 22.2644 39.2647C28.1156 39.3139 29.241 39.5 35.7579 39.5Z" fill="#1F180F"/>
<path d="M15.8642 22.3807C17.0601 20.5319 20.0285 17 20.25 17C20.5 17 21.1654 18.4993 22.25 20C22.9631 20.9867 23.7568 21.6785 24.1848 22.2579C24.4681 22.6413 24.1636 23.0551 23.6881 23.0874C21.8247 23.214 17.8321 23.2205 16.2054 23.1069C15.776 23.0769 15.6304 22.7421 15.8642 22.3807Z" fill="#1F180F"/>
</g>
</svg>
