<svg width="80" height="80" viewBox="0 0 80 80" fill="none" xmlns="http://www.w3.org/2000/svg">
<path d="M64.0001 28H32V20H40.0001V12H52.0001V16H56.0001V20H64.0001V28Z" fill="#B6B7B9"/>
<path d="M64.0001 52H32V60H40.0001V68H52.0001V64H56.0001V60H64.0001V52Z" fill="#B6B7B9"/>
<path d="M12 24H16V28H72V52H16V56H12V24Z" fill="#B6B7B9"/>
<rect width="4" height="4" transform="matrix(-1 0 0 1 60 16)" fill="#2C2C2C"/>
<rect x="60" y="64" width="4" height="4" transform="rotate(-180 60 64)" fill="#2C2C2C"/>
<rect width="4" height="4" transform="matrix(-1 0 0 1 64 16)" fill="#2C2C2C"/>
<rect x="64" y="64" width="4" height="4" transform="rotate(-180 64 64)" fill="#2C2C2C"/>
<rect width="4" height="4" transform="matrix(-1 0 0 1 68 24)" fill="#2C2C2C"/>
<rect width="4" height="4" transform="matrix(-1 0 0 1 68 20)" fill="#2C2C2C"/>
<rect x="68" y="56" width="4" height="4" transform="rotate(-180 68 56)" fill="#2C2C2C"/>
<rect x="68" y="60" width="4" height="4" transform="rotate(-180 68 60)" fill="#2C2C2C"/>
<rect width="4" height="4" transform="matrix(-1 0 0 1 72 28)" fill="#2C2C2C"/>
<rect x="72" y="52" width="4" height="4" transform="rotate(-180 72 52)" fill="#2C2C2C"/>
<rect width="4" height="4" transform="matrix(-1 0 0 1 76 32)" fill="#2C2C2C"/>
<rect x="76" y="48" width="4" height="4" transform="rotate(-180 76 48)" fill="#2C2C2C"/>
<rect width="4" height="4" transform="matrix(-1 0 0 1 76 36)" fill="#2C2C2C"/>
<rect x="76" y="44" width="4" height="4" transform="rotate(-180 76 44)" fill="#2C2C2C"/>
<rect x="56" y="68" width="4" height="4" transform="rotate(-180 56 68)" fill="#2C2C2C"/>
<rect width="4" height="4" transform="matrix(-1 0 0 1 52 12)" fill="#2C2C2C"/>
<rect width="4" height="4" transform="matrix(-1 0 0 1 56 12)" fill="#2C2C2C"/>
<rect x="52" y="68" width="4" height="4" transform="rotate(-180 52 68)" fill="#2C2C2C"/>
<rect width="4" height="4" transform="matrix(-1 0 0 1 48 8)" fill="#2C2C2C"/>
<rect x="48" y="72" width="4" height="4" transform="rotate(-180 48 72)" fill="#2C2C2C"/>
<rect width="4" height="4" transform="matrix(-1 0 0 1 44 8)" fill="#2C2C2C"/>
<rect x="44" y="72" width="4" height="4" transform="rotate(-180 44 72)" fill="#2C2C2C"/>
<rect width="4" height="4" transform="matrix(-1 0 0 1 40 8)" fill="#2C2C2C"/>
<rect x="40" y="72" width="4" height="4" transform="rotate(-180 40 72)" fill="#2C2C2C"/>
<rect width="4" height="4" transform="matrix(-1 0 0 1 40 12)" fill="#2C2C2C"/>
<rect x="40" y="68" width="4" height="4" transform="rotate(-180 40 68)" fill="#2C2C2C"/>
<rect width="4" height="4" transform="matrix(-1 0 0 1 40 16)" fill="#2C2C2C"/>
<rect x="40" y="64" width="4" height="4" transform="rotate(-180 40 64)" fill="#2C2C2C"/>
<rect width="4" height="4" transform="matrix(-1 0 0 1 36 20)" fill="#2C2C2C"/>
<rect x="36" y="60" width="4" height="4" transform="rotate(-180 36 60)" fill="#2C2C2C"/>
<rect width="4" height="4" transform="matrix(-1 0 0 1 32 24)" fill="#2C2C2C"/>
<rect x="32" y="56" width="4" height="4" transform="rotate(-180 32 56)" fill="#2C2C2C"/>
<rect width="4" height="4" transform="matrix(-1 0 0 1 28 28)" fill="#2C2C2C"/>
<rect x="28" y="52" width="4" height="4" transform="rotate(-180 28 52)" fill="#2C2C2C"/>
<rect width="4" height="4" transform="matrix(-1 0 0 1 24 28)" fill="#2C2C2C"/>
<rect x="24" y="52" width="4" height="4" transform="rotate(-180 24 52)" fill="#2C2C2C"/>
<rect width="4" height="4" transform="matrix(-1 0 0 1 20 24)" fill="#2C2C2C"/>
<rect x="20" y="56" width="4" height="4" transform="rotate(-180 20 56)" fill="#2C2C2C"/>
<rect width="4" height="4" transform="matrix(-1 0 0 1 16 20)" fill="#2C2C2C"/>
<rect x="16" y="60" width="4" height="4" transform="rotate(-180 16 60)" fill="#2C2C2C"/>
<rect width="4" height="4" transform="matrix(-1 0 0 1 12 20)" fill="#2C2C2C"/>
<rect x="12" y="60" width="4" height="4" transform="rotate(-180 12 60)" fill="#2C2C2C"/>
<rect width="4" height="4" transform="matrix(-1 0 0 1 12 24)" fill="#2C2C2C"/>
<rect x="12" y="56" width="4" height="4" transform="rotate(-180 12 56)" fill="#2C2C2C"/>
<rect width="4" height="4" transform="matrix(-1 0 0 1 12 28)" fill="#2C2C2C"/>
<rect x="12" y="52" width="4" height="4" transform="rotate(-180 12 52)" fill="#2C2C2C"/>
<rect width="4" height="4" transform="matrix(-1 0 0 1 12 32)" fill="#2C2C2C"/>
<rect x="12" y="48" width="4" height="4" transform="rotate(-180 12 48)" fill="#2C2C2C"/>
<rect width="4" height="4" transform="matrix(-1 0 0 1 12 36)" fill="#2C2C2C"/>
<rect x="12" y="44" width="4" height="4" transform="rotate(-180 12 44)" fill="#2C2C2C"/>
<rect x="68" y="44" width="4" height="4" fill="#978B8B"/>
<rect x="64" y="48" width="4" height="4" fill="#978B8B"/>
<rect x="60" y="56" width="4" height="4" fill="#978B8B"/>
<rect x="52" y="60" width="4" height="4" fill="#978B8B"/>
<rect x="44" y="64" width="4" height="4" fill="#978B8B"/>
<rect x="44" y="60" width="4" height="4" fill="#978B8B"/>
<rect x="44" y="56" width="4" height="4" fill="#978B8B"/>
<rect x="44" y="52" width="4" height="4" fill="#978B8B"/>
<rect x="44" y="48" width="4" height="4" fill="#978B8B"/>
<rect x="44" y="44" width="4" height="4" fill="#978B8B"/>
<rect x="44" y="40" width="4" height="4" fill="#978B8B"/>
<rect x="40" y="40" width="4" height="4" fill="#978B8B"/>
<rect x="32" y="40" width="4" height="4" fill="#978B8B"/>
<rect x="36" y="36" width="4" height="4" fill="#978B8B"/>
<rect x="36" y="32" width="4" height="4" fill="#978B8B"/>
<rect x="36" y="44" width="4" height="4" fill="#978B8B"/>
<rect x="36" y="48" width="4" height="4" fill="#978B8B"/>
<rect x="44" y="32" width="4" height="4" fill="#978B8B"/>
<rect x="36" y="24" width="4" height="4" fill="#978B8B"/>
<rect x="32" y="28" width="4" height="4" fill="#978B8B"/>
<rect x="24" y="32" width="4" height="4" fill="#978B8B"/>
<rect x="28" y="32" width="4" height="4" fill="#978B8B"/>
<rect x="40" y="12" width="4" height="4" fill="#DDDFE0"/>
<rect x="48" y="16" width="4" height="4" fill="#DDDFE0"/>
<rect x="56" y="20" width="4" height="4" fill="#DDDFE0"/>
<rect x="44" y="12" width="4" height="4" fill="#DDDFE0"/>
<rect x="52" y="16" width="4" height="4" fill="#DDDFE0"/>
<rect x="60" y="20" width="4" height="4" fill="#DDDFE0"/>
<rect x="36" y="20" width="4" height="4" fill="#DDDFE0"/>
<rect x="32" y="24" width="4" height="4" fill="#DDDFE0"/>
<rect x="28" y="28" width="4" height="4" fill="#DDDFE0"/>
<rect x="20" y="32" width="4" height="4" fill="#DDDFE0"/>
<rect x="16" y="28" width="4" height="4" fill="#DDDFE0"/>
<rect x="12" y="24" width="4" height="4" fill="#DDDFE0"/>
<rect x="64" y="28" width="4" height="4" fill="#DDDFE0"/>
<rect x="68" y="32" width="4" height="4" fill="#DDDFE0"/>
<rect x="24" y="44" width="4" height="4" fill="#978B8B"/>
<rect x="56" y="56" width="4" height="4" fill="#978B8B"/>
<rect x="48" y="60" width="4" height="4" fill="#978B8B"/>
<rect x="40" y="64" width="4" height="4" fill="#978B8B"/>
<rect x="40" y="60" width="4" height="4" fill="#978B8B"/>
<rect x="20" y="44" width="4" height="4" fill="#978B8B"/>
<rect x="12" y="40" width="4" height="4" fill="#978B8B"/>
<rect x="12" y="44" width="4" height="4" fill="#978B8B"/>
<rect x="36" y="56" width="4" height="4" fill="#978B8B"/>
<rect x="32" y="52" width="4" height="4" fill="#978B8B"/>
<rect x="28" y="48" width="4" height="4" fill="#978B8B"/>
<rect width="4" height="4" transform="matrix(-1 0 0 1 20 48)" fill="#978B8B"/>
<rect width="4" height="4" transform="matrix(-1 0 0 1 16 52)" fill="#978B8B"/>
<rect width="4" height="4" transform="matrix(-1 0 0 1 56 32)" fill="#2C2C2C"/>
<rect width="4" height="4" transform="matrix(-1 0 0 1 60 36)" fill="#2C2C2C"/>
<rect width="4" height="4" transform="matrix(-1 0 0 1 60 28)" fill="#2C2C2C"/>
<rect width="4" height="4" transform="matrix(-1 0 0 1 52 36)" fill="#2C2C2C"/>
<rect width="4" height="4" transform="matrix(-1 0 0 1 52 28)" fill="#2C2C2C"/>
</svg>
