<svg width="800" height="800" viewBox="0 0 800 800" fill="none" xmlns="http://www.w3.org/2000/svg">
<g clip-path="url(#clip0)">
<path d="M80.7046 1.69073H0.992794V81.4158H80.7046V1.69073Z" fill="#17130F"/>
<path d="M80.9038 81.5154C74.6265 81.9141 68.15 82.213 61.5737 82.4124C58.2856 82.512 54.9975 82.7113 51.7094 82.811C48.4213 82.9106 45.0335 83.0103 41.6458 83.1099L31.5822 83.3093L21.4189 83.4089C14.6434 83.5086 7.86793 83.5086 1.09243 83.3093H-1V81.3161C-0.800721 74.6392 -0.601441 68.0618 -0.302522 61.3849C-0.103243 54.8075 0.0960366 48.1306 0.195676 41.5533C0.295316 34.8763 0.295316 28.299 0.195676 21.622C0.0960366 14.945 -0.202882 8.26804 -0.302522 1.69072V0.395189H1.09243C7.76829 0.195876 14.3445 -0.103093 21.0204 -0.202749C27.6962 -0.402062 34.2725 -0.501718 40.9483 -0.601375L60.8763 -0.800687C67.4525 -1 74.1283 -1 80.7046 -1H83.3948V1.69072C83.2952 8.46735 83.2952 15.3436 83.0959 22.1203C82.9963 28.8969 82.797 35.6735 82.4981 42.3505C82.2988 49.0275 81.9999 55.7045 81.701 62.2818L80.9038 81.5154ZM80.6049 81.2165L79.7082 60.7869L78.911 40.8557C78.7118 34.2783 78.5125 27.701 78.3132 21.2234C78.1139 14.7457 78.1139 8.26804 78.0143 1.79038L80.7046 4.4811C74.0287 4.4811 67.4525 4.4811 60.7766 4.38144L40.8487 3.98282C34.1728 3.88316 27.5966 3.7835 20.9207 3.58419C14.3445 3.48453 7.66865 3.28522 0.992794 2.98625L2.38775 1.59106C2.18847 8.26804 1.88955 14.945 1.88955 21.622C1.78991 28.299 1.78991 34.8763 1.88955 41.5533C1.88955 48.1306 2.08883 54.8075 2.38775 61.4845C2.68667 68.0618 2.88595 74.7388 3.08523 81.4158L0.992794 79.323C7.46937 79.2233 13.946 79.1237 20.5222 79.2234L30.2869 79.323L40.1512 79.5223C43.4393 79.622 46.7274 79.7216 50.0155 79.8213L60.0791 80.2199C66.755 80.5189 73.6301 80.8179 80.6049 81.2165Z" fill="#17130F"/>
<path d="M240.128 1.69073H160.416V81.4158H240.128V1.69073Z" fill="#17130F"/>
<path d="M240.327 81.5154C234.05 81.9141 227.573 82.213 220.997 82.4124C217.709 82.512 214.421 82.7113 211.133 82.811C207.845 82.9106 204.457 83.0103 201.069 83.1099L191.006 83.3093L180.842 83.4089C174.067 83.5086 167.291 83.5086 160.516 83.3093H158.424V81.3161C158.623 74.6392 158.822 68.0618 159.121 61.3849C159.42 54.7079 159.619 48.1306 159.719 41.4536C159.818 34.7766 159.818 28.1993 159.719 21.5223C159.619 14.8454 159.32 8.26804 159.221 1.59106V0.295532H160.616C167.291 0.0962197 173.868 -0.202749 180.544 -0.302406C187.219 -0.501718 193.796 -0.601375 200.471 -0.701031L220.399 -0.900344C227.075 -1 233.652 -1 240.327 -1H243.018V1.69072C242.918 8.46735 242.918 15.3436 242.719 22.1203C242.619 28.8969 242.42 35.6735 242.121 42.3505C241.922 49.0275 241.623 55.7045 241.324 62.2818L240.327 81.5154ZM240.028 81.2165L239.132 60.7869L238.335 40.8557C238.135 34.2783 237.936 27.701 237.737 21.2234C237.537 14.7457 237.537 8.26804 237.438 1.79038L240.128 4.4811C233.452 4.4811 226.876 4.4811 220.2 4.38144L200.272 4.18213C193.596 4.08247 187.02 3.98282 180.344 3.7835C173.668 3.58419 167.092 3.38488 160.416 3.18557L161.811 1.79038C161.612 8.46735 161.313 15.0447 161.313 21.7216C161.213 28.3986 161.213 34.9759 161.313 41.6529C161.413 48.3299 161.612 54.9072 161.911 61.5842C162.21 68.2612 162.409 74.8385 162.608 81.5154L160.516 79.4227C166.993 79.323 173.469 79.2233 180.045 79.323L189.81 79.4227L199.674 79.622C202.962 79.7216 206.251 79.8213 209.539 79.9209L219.602 80.3196C226.179 80.5189 233.054 80.8179 240.028 81.2165Z" fill="#17130F"/>
<path d="M399.552 1.69073H319.84V81.4158H399.552V1.69073Z" fill="#17130F"/>
<path d="M399.751 81.5154C393.474 81.9141 386.997 82.213 380.421 82.4124C377.133 82.512 373.845 82.7113 370.556 82.811C367.268 82.9106 363.881 83.0103 360.493 83.1099L350.429 83.3093L340.266 83.4089C333.49 83.5086 326.715 83.5086 319.939 83.3093H317.847V81.3161C318.046 74.6392 318.246 68.0618 318.544 61.3849C318.843 54.7079 319.043 48.1306 319.142 41.4536C319.242 34.7766 319.242 28.1993 319.142 21.5223C319.043 14.8454 318.744 8.26804 318.644 1.59106V0.295532H320.039C326.715 0.0962197 333.291 -0.202749 339.967 -0.302406C346.643 -0.501718 353.219 -0.601375 359.895 -0.701031L379.823 -0.900344C386.499 -1 393.075 -1 399.751 -1H402.441V1.69072C402.341 8.46735 402.342 15.3436 402.142 22.1203C402.043 28.8969 401.843 35.6735 401.544 42.3505C401.345 49.0275 401.046 55.7045 400.747 62.2818L399.751 81.5154ZM399.452 81.2165L398.555 60.7869L397.758 40.8557C397.559 34.2783 397.36 27.701 397.16 21.2234C396.961 14.7457 396.961 8.26804 396.861 1.79038L399.552 4.4811C392.876 4.4811 386.3 4.4811 379.624 4.38144L359.696 4.18213C353.02 4.08247 346.444 3.98282 339.768 3.7835C333.092 3.58419 326.516 3.38488 319.84 3.18557L321.235 1.79038C321.036 8.46735 320.737 15.0447 320.737 21.7216C320.637 28.3986 320.637 34.9759 320.737 41.6529C320.836 48.3299 321.036 54.9072 321.334 61.5842C321.633 68.2612 321.833 74.8385 322.032 81.5154L319.939 79.4227C326.416 79.323 332.893 79.2233 339.469 79.323L349.234 79.4227L359.098 79.622C362.386 79.7216 365.674 79.8213 368.962 79.9209L379.026 80.3196C385.602 80.5189 392.477 80.8179 399.452 81.2165Z" fill="#17130F"/>
<path d="M558.975 1.69073H479.263V81.4158H558.975V1.69073Z" fill="#17130F"/>
<path d="M559.174 81.5154C552.897 81.9141 546.421 82.213 539.844 82.4124C536.556 82.512 533.268 82.7113 529.98 82.811C526.692 82.9106 523.304 83.0103 519.916 83.1099L509.853 83.3093L499.69 83.4089C492.914 83.5086 486.139 83.5086 479.363 83.3093H477.271V81.3161C477.47 74.6392 477.669 68.0618 477.968 61.3849C478.267 54.7079 478.466 48.1306 478.566 41.4536C478.666 34.7766 478.666 28.1993 478.566 21.5223C478.466 14.8454 478.167 8.26804 478.068 1.59106V0.295532H479.463C486.138 0.0962197 492.715 -0.202749 499.391 -0.302406C506.066 -0.501718 512.643 -0.601375 519.318 -0.701031L539.246 -0.900344C545.922 -1 552.499 -1 559.174 -1H561.865V1.69072C561.765 8.46735 561.765 15.3436 561.566 22.1203C561.466 28.8969 561.267 35.6735 560.968 42.3505C560.769 49.0275 560.47 55.7045 560.171 62.2818L559.174 81.5154ZM558.875 81.2165L557.979 60.7869L557.182 40.8557C556.982 34.2783 556.783 27.701 556.584 21.2234C556.384 14.7457 556.385 8.26804 556.285 1.79038L558.975 4.4811C552.299 4.4811 545.723 4.4811 539.047 4.38144L519.119 4.18213C512.443 4.08247 505.867 3.98282 499.191 3.7835C492.515 3.58419 485.939 3.38488 479.263 3.18557L480.658 1.79038C480.459 8.46735 480.16 15.0447 480.16 21.7216C480.06 28.3986 480.06 34.9759 480.16 41.6529C480.26 48.3299 480.459 54.9072 480.758 61.5842C481.057 68.2612 481.256 74.8385 481.455 81.5154L479.363 79.4227C485.84 79.323 492.316 79.2233 498.892 79.323L508.657 79.4227L518.521 79.622C521.81 79.7216 525.098 79.8213 528.386 79.9209L538.449 80.3196C545.026 80.5189 551.901 80.8179 558.875 81.2165Z" fill="#17130F"/>
<path d="M718.399 1.69073H638.687V81.4158H718.399V1.69073Z" fill="#17130F"/>
<path d="M718.598 81.5154C712.321 81.9141 705.844 82.213 699.268 82.4124C695.98 82.512 692.692 82.7113 689.404 82.811C686.115 82.9106 682.728 83.0103 679.34 83.1099L669.276 83.3093L659.113 83.4089C652.338 83.5086 645.562 83.5086 638.787 83.3093H636.694V81.3161C636.893 74.6392 637.093 68.0618 637.392 61.3849C637.691 54.7079 637.89 48.1306 637.989 41.4536C638.089 34.7766 638.089 28.1993 637.989 21.5223C637.89 14.8454 637.591 8.26804 637.491 1.59106V0.295532H638.886C645.562 0.0962197 652.138 -0.202749 658.814 -0.302406C665.49 -0.501718 672.066 -0.601375 678.742 -0.701031L698.67 -0.900344C705.346 -1 711.922 -1 718.598 -1H721.288V1.69072C721.189 8.46735 721.189 15.3436 720.989 22.1203C720.89 28.8969 720.69 35.6735 720.391 42.3505C720.192 49.0275 719.893 55.7045 719.594 62.2818L718.598 81.5154ZM718.299 81.2165L717.402 60.7869L716.605 40.8557C716.406 34.2783 716.207 27.701 716.007 21.2234C715.808 14.7457 715.808 8.26804 715.708 1.79038L718.399 4.4811C711.723 4.4811 705.147 4.4811 698.471 4.38144L678.543 4.18213C671.867 4.08247 665.291 3.98282 658.615 3.7835C651.939 3.58419 645.363 3.38488 638.687 3.18557L640.082 1.79038C639.883 8.46735 639.584 15.0447 639.584 21.7216C639.484 28.3986 639.484 34.9759 639.584 41.6529C639.683 48.3299 639.883 54.9072 640.181 61.5842C640.48 68.2612 640.68 74.8385 640.879 81.5154L638.787 79.4227C645.263 79.323 651.74 79.2233 658.316 79.323L668.081 79.4227L677.945 79.622C681.233 79.7216 684.521 79.8213 687.809 79.9209L697.873 80.3196C704.449 80.5189 711.324 80.8179 718.299 81.2165Z" fill="#17130F"/>
<path d="M160.416 81.4158H80.7046V161.141H160.416V81.4158Z" fill="#17130F"/>
<path d="M160.616 161.241C154.338 161.639 147.862 161.938 141.285 162.137C137.997 162.237 134.709 162.436 131.421 162.536C128.133 162.636 124.745 162.735 121.358 162.835L111.294 163.034L101.131 163.134C94.3552 163.234 87.5797 163.234 80.8042 163.034H78.7118V161.041C78.911 154.364 79.1103 147.787 79.4092 141.11C79.7082 134.433 79.9074 127.856 80.0071 121.179C80.1067 114.502 80.1067 107.924 80.0071 101.247C79.9074 94.5704 79.6085 87.9931 79.5089 81.3161V80.0206H80.9038C87.5797 79.8213 94.1559 79.5223 100.832 79.4227C107.508 79.2233 114.084 79.1237 120.76 79.024L140.688 78.8247C147.364 78.7251 153.94 78.7251 160.616 78.7251H163.306V81.4158C163.206 88.1924 163.206 95.0687 163.007 101.845C162.907 108.622 162.708 115.399 162.409 122.076C162.21 128.753 161.911 135.43 161.612 142.007L160.616 161.241ZM160.317 160.942L159.42 140.512L158.623 120.581C158.424 114.003 158.224 107.426 158.025 100.948C157.826 94.4708 157.826 87.9931 157.726 81.5154L160.416 84.2062C153.74 84.2062 147.164 84.2062 140.488 84.1065L120.56 83.9072C113.885 83.8075 107.308 83.7079 100.632 83.5086C93.9566 83.3093 87.3804 83.1099 80.7046 82.9106L82.0995 81.5154C81.9002 88.1924 81.6013 94.7697 81.6013 101.447C81.5017 108.124 81.5017 114.701 81.6013 121.378C81.701 128.055 81.9002 134.632 82.1992 141.309C82.4981 147.986 82.6974 154.564 82.8966 161.241L80.8042 159.148C87.2808 159.048 93.7574 158.948 100.334 159.048L110.098 159.148L119.963 159.347C123.251 159.447 126.539 159.546 129.827 159.646L139.891 160.045C146.467 160.244 153.342 160.543 160.317 160.942Z" fill="#17130F"/>
<path d="M319.84 81.4158H240.128V161.141H319.84V81.4158Z" fill="#17130F"/>
<path d="M320.039 161.241C313.762 161.639 307.285 161.938 300.709 162.137C297.421 162.237 294.133 162.436 290.845 162.536C287.557 162.636 284.169 162.735 280.781 162.835L270.717 163.034L260.554 163.134C253.779 163.234 247.003 163.234 240.228 163.034H238.135V161.041C238.335 154.364 238.534 147.787 238.833 141.11C239.132 134.433 239.331 127.856 239.431 121.179C239.53 114.502 239.53 107.924 239.431 101.247C239.331 94.5704 239.032 87.9931 238.932 81.3161V80.0206H240.327C247.003 79.8213 253.579 79.5223 260.255 79.4227C266.931 79.2233 273.507 79.1237 280.183 79.024L300.111 78.8247C306.787 78.7251 313.363 78.7251 320.039 78.7251H322.729V81.4158C322.63 88.1924 322.63 95.0687 322.43 101.845C322.331 108.622 322.132 115.399 321.833 122.076C321.633 128.753 321.334 135.43 321.035 142.007L320.039 161.241ZM319.74 160.942L318.843 140.512L318.046 120.581C317.847 114.003 317.648 107.426 317.448 100.948C317.249 94.4708 317.249 87.9931 317.15 81.5154L319.84 84.2062C313.164 84.2062 306.588 84.2062 299.912 84.1065L279.984 83.9072C273.308 83.8075 266.732 83.7079 260.056 83.5086C253.38 83.3093 246.804 83.1099 240.128 82.9106L241.523 81.5154C241.324 88.1924 241.025 94.7697 241.025 101.447C240.925 108.124 240.925 114.701 241.025 121.378C241.124 128.055 241.324 134.632 241.623 141.309C241.922 147.986 242.121 154.564 242.32 161.241L240.228 159.148C246.704 159.048 253.181 158.948 259.757 159.048L269.522 159.148L279.386 159.347C282.674 159.447 285.962 159.546 289.25 159.646L299.314 160.045C305.89 160.244 312.765 160.543 319.74 160.942Z" fill="#17130F"/>
<path d="M479.263 81.4158H399.552V161.141H479.263V81.4158Z" fill="#17130F"/>
<path d="M479.463 161.241C473.185 161.639 466.709 161.938 460.133 162.137C456.844 162.237 453.556 162.436 450.268 162.536C446.98 162.636 443.592 162.735 440.205 162.835L430.141 163.034L419.978 163.134C413.202 163.234 406.427 163.234 399.651 163.034H397.559V161.041C397.758 154.364 397.957 147.787 398.256 141.11C398.555 134.433 398.754 127.856 398.854 121.179C398.954 114.502 398.954 107.924 398.854 101.247C398.754 94.5704 398.456 87.9931 398.356 81.3161V80.0206H399.751C406.427 79.8213 413.003 79.5223 419.679 79.4227C426.355 79.2233 432.931 79.1237 439.607 79.024L459.535 78.8247C466.211 78.7251 472.787 78.7251 479.463 78.7251H482.153V81.4158C482.053 88.1924 482.053 95.0687 481.854 101.845C481.754 108.622 481.555 115.399 481.256 122.076C481.057 128.753 480.758 135.43 480.459 142.007L479.463 161.241ZM479.164 160.942L478.267 140.512L477.47 120.581C477.271 114.003 477.071 107.426 476.872 100.948C476.673 94.4708 476.673 87.9931 476.573 81.5154L479.263 84.2062C472.588 84.2062 466.011 84.2062 459.335 84.1065L439.407 83.9072C432.732 83.8075 426.155 83.7079 419.48 83.5086C412.804 83.3093 406.227 83.1099 399.552 82.9106L400.947 81.5154C400.747 88.1924 400.448 94.7697 400.448 101.447C400.349 108.124 400.349 114.701 400.448 121.378C400.548 128.055 400.747 134.632 401.046 141.309C401.345 147.986 401.544 154.564 401.744 161.241L399.651 159.148C406.128 159.048 412.604 158.948 419.181 159.048L428.945 159.148L438.81 159.347C442.098 159.447 445.386 159.546 448.674 159.646L458.738 160.045C465.314 160.244 472.189 160.543 479.164 160.942Z" fill="#17130F"/>
<path d="M638.687 81.4158H558.975V161.141H638.687V81.4158Z" fill="#17130F"/>
<path d="M638.886 161.241C632.609 161.639 626.132 161.938 619.556 162.137C616.268 162.237 612.98 162.436 609.692 162.536C606.404 162.636 603.016 162.735 599.628 162.835L589.565 163.034L579.401 163.134C572.626 163.234 565.85 163.234 559.075 163.034H556.982V161.041C557.182 154.364 557.381 147.787 557.68 141.11C557.979 134.433 558.178 127.856 558.278 121.179C558.377 114.502 558.377 107.924 558.278 101.247C558.178 94.5704 557.879 87.9931 557.779 81.3161V80.0206H559.174C565.85 79.8213 572.426 79.5223 579.102 79.4227C585.778 79.2233 592.354 79.1237 599.03 79.024L618.958 78.8247C625.634 78.7251 632.21 78.7251 638.886 78.7251H641.576V81.4158C641.477 88.1924 641.477 95.0687 641.278 101.845C641.178 108.622 640.979 115.399 640.68 122.076C640.48 128.753 640.181 135.43 639.883 142.007L638.886 161.241ZM638.587 160.942L637.69 140.512L636.893 120.581C636.694 114.003 636.495 107.426 636.296 100.948C636.096 94.4708 636.096 87.9931 635.997 81.5154L638.687 84.2062C632.011 84.2062 625.435 84.2062 618.759 84.1065L598.831 83.9072C592.155 83.8075 585.579 83.7079 578.903 83.5086C572.227 83.3093 565.651 83.1099 558.975 82.9106L560.37 81.5154C560.171 88.1924 559.872 94.7697 559.872 101.447C559.772 108.124 559.772 114.701 559.872 121.378C559.972 128.055 560.171 134.632 560.47 141.309C560.769 147.986 560.968 154.564 561.167 161.241L559.075 159.148C565.551 159.048 572.028 158.948 578.604 159.048L588.369 159.148L598.233 159.347C601.521 159.447 604.809 159.546 608.098 159.646L618.161 160.045C624.737 160.244 631.613 160.543 638.587 160.942Z" fill="#17130F"/>
<path d="M798.11 81.4158H718.399V161.141H798.11V81.4158Z" fill="#17130F"/>
<path d="M798.31 161.241C792.032 161.639 785.556 161.938 778.98 162.137C775.692 162.237 772.403 162.436 769.115 162.536C765.827 162.636 762.439 162.735 759.052 162.835L748.988 163.034L738.825 163.134C732.049 163.234 725.274 163.234 718.498 163.034H716.406V161.041C716.605 154.364 716.804 147.787 717.103 141.11C717.402 134.433 717.602 127.856 717.701 121.179C717.801 114.502 717.801 107.924 717.701 101.247C717.602 94.5704 717.303 87.9931 717.203 81.3161V80.0206H718.598C725.274 79.8213 731.85 79.5223 738.526 79.4227C745.202 79.2233 751.778 79.1237 758.454 79.024L778.382 78.8247C785.058 78.7251 791.634 78.7251 798.31 78.7251H801V81.4158C800.9 88.1924 800.9 95.0687 800.701 101.845C800.601 108.622 800.402 115.399 800.103 122.076C799.904 128.753 799.605 135.43 799.306 142.007L798.31 161.241ZM798.011 160.942L797.114 140.512L796.317 120.581C796.118 114.003 795.918 107.426 795.719 100.948C795.52 94.4708 795.52 87.9931 795.42 81.5154L798.11 84.2062C791.435 84.2062 784.858 84.2062 778.182 84.1065L758.255 83.9072C751.579 83.8075 745.002 83.7079 738.327 83.5086C731.651 83.3093 725.074 83.1099 718.399 82.9106L719.794 81.5154C719.594 88.1924 719.295 94.7697 719.295 101.447C719.196 108.124 719.196 114.701 719.295 121.378C719.395 128.055 719.594 134.632 719.893 141.309C720.192 147.986 720.391 154.564 720.591 161.241L718.498 159.148C724.975 159.048 731.451 158.948 738.028 159.048L747.792 159.148L757.657 159.347C760.945 159.447 764.233 159.546 767.521 159.646L777.585 160.045C784.161 160.244 791.036 160.543 798.011 160.942Z" fill="#17130F"/>
<path d="M80.7046 161.141H0.992794V240.866H80.7046V161.141Z" fill="#17130F"/>
<path d="M80.9038 240.966C74.6265 241.364 68.15 241.663 61.5737 241.862C58.2856 241.962 54.9975 242.161 51.7094 242.261C48.4213 242.361 45.0335 242.46 41.6458 242.56L31.5822 242.759L21.4189 242.859C14.6434 242.959 7.86793 242.959 1.09243 242.759H-1V240.766C-0.800721 234.089 -0.601441 227.512 -0.302522 220.835C-0.00360301 214.158 0.195676 207.581 0.295316 200.904C0.394956 194.227 0.394956 187.649 0.295316 180.972C0.195676 174.295 -0.103243 167.718 -0.202882 161.041V159.746H1.19207C7.86793 159.546 14.4442 159.247 21.12 159.148C27.7959 158.948 34.3721 158.849 41.048 158.749L60.9759 158.55C67.6518 158.45 74.228 158.45 80.9038 158.45H83.5941V161.141C83.4945 167.917 83.4945 174.794 83.2952 181.57C83.1955 188.347 82.9963 195.124 82.6973 201.801C82.4981 208.478 82.1992 215.155 81.9002 221.732L80.9038 240.966ZM80.6049 240.667L79.7082 220.237L78.911 200.306C78.7118 193.728 78.5125 187.151 78.3132 180.674C78.1139 174.196 78.1139 167.718 78.0143 161.241L80.7046 163.931C74.0287 163.931 67.4525 163.931 60.7766 163.832L40.8487 163.632C34.1728 163.533 27.5966 163.433 20.9207 163.234C14.2449 163.034 7.66865 162.835 0.992794 162.636L2.38775 161.241C2.18847 167.718 1.88955 174.395 1.88955 181.072C1.78991 187.749 1.78991 194.326 1.88955 201.003C1.98919 207.68 2.18847 214.258 2.48739 220.935C2.78631 227.612 2.98559 234.189 3.18487 240.866L1.09243 238.773C7.56901 238.673 14.0456 238.574 20.6218 238.673L30.3865 238.773L40.2508 238.972C43.5389 239.072 46.8271 239.172 50.1152 239.271L60.1788 239.67C66.755 239.969 73.6301 240.268 80.6049 240.667Z" fill="#17130F"/>
<path d="M240.128 161.141H160.416V240.866H240.128V161.141Z" fill="#17130F"/>
<path d="M240.327 240.966C234.05 241.364 227.573 241.663 220.997 241.862C217.709 241.962 214.421 242.161 211.133 242.261C207.845 242.361 204.457 242.46 201.069 242.56L191.006 242.759L180.842 242.859C174.067 242.959 167.291 242.959 160.516 242.759H158.424V240.766C158.623 234.089 158.822 227.512 159.121 220.835C159.42 214.158 159.619 207.581 159.719 200.904C159.818 194.227 159.818 187.649 159.719 180.972C159.619 174.295 159.32 167.718 159.221 161.041V159.746H160.616C167.291 159.546 173.868 159.247 180.544 159.148C187.219 158.948 193.796 158.849 200.471 158.749L220.399 158.55C227.075 158.45 233.652 158.45 240.327 158.45H243.018V161.141C242.918 167.917 242.918 174.794 242.719 181.57C242.619 188.347 242.42 195.124 242.121 201.801C241.922 208.478 241.623 215.155 241.324 221.732L240.327 240.966ZM240.028 240.667L239.132 220.237L238.335 200.306C238.135 193.728 237.936 187.151 237.737 180.674C237.537 174.196 237.537 167.718 237.438 161.241L240.128 163.931C233.452 163.931 226.876 163.931 220.2 163.832L200.272 163.632C193.596 163.533 187.02 163.433 180.344 163.234C173.668 163.034 167.092 162.835 160.416 162.636L161.811 161.241C161.612 167.917 161.313 174.495 161.313 181.172C161.213 187.849 161.213 194.426 161.313 201.103C161.413 207.78 161.612 214.357 161.911 221.034C162.21 227.711 162.409 234.289 162.608 240.966L160.516 238.873C166.993 238.773 173.469 238.673 180.045 238.773L189.81 238.873L199.674 239.072C202.962 239.172 206.251 239.271 209.539 239.371L219.602 239.77C226.179 239.969 233.054 240.268 240.028 240.667Z" fill="#17130F"/>
<path d="M399.552 161.141H319.84V240.866H399.552V161.141Z" fill="#17130F"/>
<path d="M399.751 240.966C393.474 241.364 386.997 241.663 380.421 241.862C377.133 241.962 373.845 242.161 370.556 242.261C367.268 242.361 363.881 242.46 360.493 242.56L350.429 242.759L340.266 242.859C333.49 242.959 326.715 242.959 319.939 242.759H317.847V240.766C318.046 234.089 318.246 227.512 318.544 220.835C318.843 214.158 319.043 207.581 319.142 200.904C319.242 194.227 319.242 187.649 319.142 180.972C319.043 174.295 318.744 167.718 318.644 161.041V159.746H320.039C326.715 159.546 333.291 159.247 339.967 159.148C346.643 158.948 353.219 158.849 359.895 158.749L379.823 158.55C386.499 158.45 393.075 158.45 399.751 158.45H402.441V161.141C402.341 167.917 402.342 174.794 402.142 181.57C402.043 188.347 401.843 195.124 401.544 201.801C401.345 208.478 401.046 215.155 400.747 221.732L399.751 240.966ZM399.452 240.667L398.555 220.237L397.758 200.306C397.559 193.728 397.36 187.151 397.16 180.674C396.961 174.196 396.961 167.718 396.861 161.241L399.552 163.931C392.876 163.931 386.3 163.931 379.624 163.832L359.696 163.632C353.02 163.533 346.444 163.433 339.768 163.234C333.092 163.034 326.516 162.835 319.84 162.636L321.235 161.241C321.036 167.917 320.737 174.495 320.737 181.172C320.637 187.849 320.637 194.426 320.737 201.103C320.836 207.78 321.036 214.357 321.334 221.034C321.633 227.711 321.833 234.289 322.032 240.966L319.939 238.873C326.416 238.773 332.893 238.673 339.469 238.773L349.234 238.873L359.098 239.072C362.386 239.172 365.674 239.271 368.962 239.371L379.026 239.77C385.602 239.969 392.477 240.268 399.452 240.667Z" fill="#17130F"/>
<path d="M558.975 161.141H479.263V240.866H558.975V161.141Z" fill="#17130F"/>
<path d="M559.174 240.966C552.897 241.364 546.421 241.663 539.844 241.862C536.556 241.962 533.268 242.161 529.98 242.261C526.692 242.361 523.304 242.46 519.916 242.56L509.853 242.759L499.69 242.859C492.914 242.959 486.139 242.959 479.363 242.759H477.271V240.766C477.47 234.089 477.669 227.512 477.968 220.835C478.267 214.158 478.466 207.581 478.566 200.904C478.666 194.227 478.666 187.649 478.566 180.972C478.466 174.295 478.167 167.718 478.068 161.041V159.746H479.463C486.138 159.546 492.715 159.247 499.391 159.148C506.066 158.948 512.643 158.849 519.318 158.749L539.246 158.55C545.922 158.45 552.499 158.45 559.174 158.45H561.865V161.141C561.765 167.917 561.765 174.794 561.566 181.57C561.466 188.347 561.267 195.124 560.968 201.801C560.769 208.478 560.47 215.155 560.171 221.732L559.174 240.966ZM558.875 240.667L557.979 220.237L557.182 200.306C556.982 193.728 556.783 187.151 556.584 180.674C556.384 174.196 556.385 167.718 556.285 161.241L558.975 163.931C552.299 163.931 545.723 163.931 539.047 163.832L519.119 163.632C512.443 163.533 505.867 163.433 499.191 163.234C492.515 163.034 485.939 162.835 479.263 162.636L480.658 161.241C480.459 167.917 480.16 174.495 480.16 181.172C480.06 187.849 480.06 194.426 480.16 201.103C480.26 207.78 480.459 214.357 480.758 221.034C481.057 227.711 481.256 234.289 481.455 240.966L479.363 238.873C485.84 238.773 492.316 238.673 498.892 238.773L508.657 238.873L518.521 239.072C521.81 239.172 525.098 239.271 528.386 239.371L538.449 239.77C545.026 239.969 551.901 240.268 558.875 240.667Z" fill="#17130F"/>
<path d="M718.399 161.141H638.687V240.866H718.399V161.141Z" fill="#17130F"/>
<path d="M718.598 240.966C712.321 241.364 705.844 241.663 699.268 241.862C695.98 241.962 692.692 242.161 689.404 242.261C686.115 242.361 682.728 242.46 679.34 242.56L669.276 242.759L659.113 242.859C652.338 242.959 645.562 242.959 638.787 242.759H636.694V240.766C636.893 234.089 637.093 227.512 637.392 220.835C637.691 214.158 637.89 207.581 637.989 200.904C638.089 194.227 638.089 187.649 637.989 180.972C637.89 174.295 637.591 167.718 637.491 161.041V159.746H638.886C645.562 159.546 652.138 159.247 658.814 159.148C665.49 158.948 672.066 158.849 678.742 158.749L698.67 158.55C705.346 158.45 711.922 158.45 718.598 158.45H721.288V161.141C721.189 167.917 721.189 174.794 720.989 181.57C720.89 188.347 720.69 195.124 720.391 201.801C720.192 208.478 719.893 215.155 719.594 221.732L718.598 240.966ZM718.299 240.667L717.402 220.237L716.605 200.306C716.406 193.728 716.207 187.151 716.007 180.674C715.808 174.196 715.808 167.718 715.708 161.241L718.399 163.931C711.723 163.931 705.147 163.931 698.471 163.832L678.543 163.632C671.867 163.533 665.291 163.433 658.615 163.234C651.939 163.034 645.363 162.835 638.687 162.636L640.082 161.241C639.883 167.917 639.584 174.495 639.584 181.172C639.484 187.849 639.484 194.426 639.584 201.103C639.683 207.78 639.883 214.357 640.181 221.034C640.48 227.711 640.68 234.289 640.879 240.966L638.787 238.873C645.263 238.773 651.74 238.673 658.316 238.773L668.081 238.873L677.945 239.072C681.233 239.172 684.521 239.271 687.809 239.371L697.873 239.77C704.449 239.969 711.324 240.268 718.299 240.667Z" fill="#17130F"/>
<path d="M160.416 240.866H80.7046V320.591H160.416V240.866Z" fill="#17130F"/>
<path d="M160.616 320.691C154.338 321.089 147.862 321.388 141.285 321.588C137.997 321.687 134.709 321.887 131.421 321.986C128.133 322.086 124.745 322.185 121.358 322.285L111.294 322.484L101.131 322.584C94.3552 322.684 87.5797 322.684 80.8042 322.484H78.7118V320.491C78.911 313.814 79.1103 307.237 79.4092 300.56C79.7082 293.883 79.9074 287.306 80.0071 280.629C80.1067 273.952 80.1067 267.375 80.0071 260.698C79.9074 254.021 79.6085 247.443 79.5089 240.766V239.471H80.9038C87.5797 239.271 94.1559 238.972 100.832 238.873C107.508 238.673 114.084 238.574 120.76 238.474L140.688 238.275C147.364 238.175 153.94 238.175 160.616 238.175H163.306V240.866C163.206 247.643 163.206 254.519 163.007 261.296C162.907 268.072 162.708 274.849 162.409 281.526C162.21 288.203 161.911 294.88 161.612 301.457L160.616 320.691ZM160.317 320.392L159.42 299.962L158.623 280.031C158.424 273.454 158.224 266.876 158.025 260.399C157.826 253.921 157.826 247.443 157.726 240.966L160.416 243.656C153.74 243.656 147.164 243.656 140.488 243.557L120.56 243.357C113.885 243.258 107.308 243.158 100.632 242.959C93.9566 242.759 87.3804 242.56 80.7046 242.361L82.0995 240.966C81.9002 247.643 81.6013 254.22 81.6013 260.897C81.5017 267.574 81.5017 274.151 81.6013 280.828C81.701 287.505 81.9002 294.082 82.1992 300.759C82.4981 307.436 82.6974 314.014 82.8966 320.691L80.8042 318.598C87.2808 318.498 93.7574 318.399 100.334 318.498L110.098 318.598L119.963 318.797C123.251 318.897 126.539 318.997 129.827 319.096L139.891 319.495C146.467 319.694 153.342 319.993 160.317 320.392Z" fill="#17130F"/>
<path d="M319.84 240.866H240.128V320.591H319.84V240.866Z" fill="#17130F"/>
<path d="M320.039 320.691C313.762 321.089 307.285 321.388 300.709 321.588C297.421 321.687 294.133 321.887 290.845 321.986C287.557 322.086 284.169 322.185 280.781 322.285L270.717 322.484L260.554 322.584C253.779 322.684 247.003 322.684 240.228 322.484H238.135V320.491C238.335 313.814 238.534 307.237 238.833 300.56C239.132 293.883 239.331 287.306 239.431 280.629C239.53 273.952 239.53 267.375 239.431 260.698C239.331 254.021 239.032 247.443 238.932 240.766V239.471H240.327C247.003 239.271 253.579 238.972 260.255 238.873C266.931 238.673 273.507 238.574 280.183 238.474L300.111 238.275C306.787 238.175 313.363 238.175 320.039 238.175H322.729V240.866C322.63 247.643 322.63 254.519 322.43 261.296C322.331 268.072 322.132 274.849 321.833 281.526C321.633 288.203 321.334 294.88 321.035 301.457L320.039 320.691ZM319.74 320.392L318.843 299.962L318.046 280.031C317.847 273.454 317.648 266.876 317.448 260.399C317.249 253.921 317.249 247.443 317.15 240.966L319.84 243.656C313.164 243.656 306.588 243.656 299.912 243.557L279.984 243.357C273.308 243.258 266.732 243.158 260.056 242.959C253.38 242.759 246.804 242.56 240.128 242.361L241.523 240.966C241.324 247.643 241.025 254.22 241.025 260.897C240.925 267.574 240.925 274.151 241.025 280.828C241.124 287.505 241.324 294.082 241.623 300.759C241.922 307.436 242.121 314.014 242.32 320.691L240.228 318.598C246.704 318.498 253.181 318.399 259.757 318.498L269.522 318.598L279.386 318.797C282.674 318.897 285.962 318.997 289.25 319.096L299.314 319.495C305.89 319.694 312.765 319.993 319.74 320.392Z" fill="#17130F"/>
<path d="M479.263 240.866H399.552V320.591H479.263V240.866Z" fill="#17130F"/>
<path d="M479.463 320.691C473.185 321.089 466.709 321.388 460.133 321.588C456.844 321.687 453.556 321.887 450.268 321.986C446.98 322.086 443.592 322.185 440.205 322.285L430.141 322.484L419.978 322.584C413.202 322.684 406.427 322.684 399.651 322.484H397.559V320.491C397.758 313.814 397.957 307.237 398.256 300.56C398.555 293.883 398.754 287.306 398.854 280.629C398.954 273.952 398.954 267.375 398.854 260.698C398.754 254.021 398.456 247.443 398.356 240.766V239.471H399.751C406.427 239.271 413.003 238.972 419.679 238.873C426.355 238.673 432.931 238.574 439.607 238.474L459.535 238.275C466.211 238.175 472.787 238.175 479.463 238.175H482.153V240.866C482.053 247.643 482.053 254.519 481.854 261.296C481.754 268.072 481.555 274.849 481.256 281.526C481.057 288.203 480.758 294.88 480.459 301.457L479.463 320.691ZM479.164 320.392L478.267 299.962L477.47 280.031C477.271 273.454 477.071 266.876 476.872 260.399C476.673 253.921 476.673 247.443 476.573 240.966L479.263 243.656C472.588 243.656 466.011 243.656 459.335 243.557L439.407 243.357C432.732 243.258 426.155 243.158 419.48 242.959C412.804 242.759 406.227 242.56 399.552 242.361L400.947 240.966C400.747 247.643 400.448 254.22 400.448 260.897C400.349 267.574 400.349 274.151 400.448 280.828C400.548 287.505 400.747 294.082 401.046 300.759C401.345 307.436 401.544 314.014 401.744 320.691L399.651 318.598C406.128 318.498 412.604 318.399 419.181 318.498L428.945 318.598L438.81 318.797C442.098 318.897 445.386 318.997 448.674 319.096L458.738 319.495C465.314 319.694 472.189 319.993 479.164 320.392Z" fill="#17130F"/>
<path d="M638.687 240.866H558.975V320.591H638.687V240.866Z" fill="#17130F"/>
<path d="M638.886 320.691C632.609 321.089 626.132 321.388 619.556 321.588C616.268 321.687 612.98 321.887 609.692 321.986C606.404 322.086 603.016 322.185 599.628 322.285L589.565 322.484L579.401 322.584C572.626 322.684 565.85 322.684 559.075 322.484H556.982V320.491C557.182 313.814 557.381 307.237 557.68 300.56C557.979 293.883 558.178 287.306 558.278 280.629C558.377 273.952 558.377 267.375 558.278 260.698C558.178 254.021 557.879 247.443 557.779 240.766V239.471H559.174C565.85 239.271 572.426 238.972 579.102 238.873C585.778 238.673 592.354 238.574 599.03 238.474L618.958 238.275C625.634 238.175 632.21 238.175 638.886 238.175H641.576V240.866C641.477 247.643 641.477 254.519 641.278 261.296C641.178 268.072 640.979 274.849 640.68 281.526C640.48 288.203 640.181 294.88 639.883 301.457L638.886 320.691ZM638.587 320.392L637.69 299.962L636.893 280.031C636.694 273.454 636.495 266.876 636.296 260.399C636.096 253.921 636.096 247.443 635.997 240.966L638.687 243.656C632.011 243.656 625.435 243.656 618.759 243.557L598.831 243.357C592.155 243.258 585.579 243.158 578.903 242.959C572.227 242.759 565.651 242.56 558.975 242.361L560.37 240.966C560.171 247.643 559.872 254.22 559.872 260.897C559.772 267.574 559.772 274.151 559.872 280.828C559.972 287.505 560.171 294.082 560.47 300.759C560.769 307.436 560.968 314.014 561.167 320.691L559.075 318.598C565.551 318.498 572.028 318.399 578.604 318.498L588.369 318.598L598.233 318.797C601.521 318.897 604.809 318.997 608.098 319.096L618.161 319.495C624.737 319.694 631.613 319.993 638.587 320.392Z" fill="#17130F"/>
<path d="M798.11 240.866H718.399V320.591H798.11V240.866Z" fill="#17130F"/>
<path d="M798.31 320.691C792.032 321.089 785.556 321.388 778.98 321.588C775.692 321.687 772.403 321.887 769.115 321.986C765.827 322.086 762.439 322.185 759.052 322.285L748.988 322.484L738.825 322.584C732.049 322.684 725.274 322.684 718.498 322.484H716.406V320.491C716.605 313.814 716.804 307.237 717.103 300.56C717.402 293.883 717.602 287.306 717.701 280.629C717.801 273.952 717.801 267.375 717.701 260.698C717.602 254.021 717.303 247.443 717.203 240.766V239.471H718.598C725.274 239.271 731.85 238.972 738.526 238.873C745.202 238.673 751.778 238.574 758.454 238.474L778.382 238.275C785.058 238.175 791.634 238.175 798.31 238.175H801V240.866C800.9 247.643 800.9 254.519 800.701 261.296C800.601 268.072 800.402 274.849 800.103 281.526C799.904 288.203 799.605 294.88 799.306 301.457L798.31 320.691ZM798.011 320.392L797.114 299.962L796.317 280.031C796.118 273.454 795.918 266.876 795.719 260.399C795.52 253.921 795.52 247.443 795.42 240.966L798.11 243.656C791.435 243.656 784.858 243.656 778.182 243.557L758.255 243.357C751.579 243.258 745.002 243.158 738.327 242.959C731.651 242.759 725.074 242.56 718.399 242.361L719.794 240.966C719.594 247.643 719.295 254.22 719.295 260.897C719.196 267.574 719.196 274.151 719.295 280.828C719.395 287.505 719.594 294.082 719.893 300.759C720.192 307.436 720.391 314.014 720.591 320.691L718.498 318.598C724.975 318.498 731.451 318.399 738.028 318.498L747.792 318.598L757.657 318.797C760.945 318.897 764.233 318.997 767.521 319.096L777.585 319.495C784.161 319.694 791.036 319.993 798.011 320.392Z" fill="#17130F"/>
<path d="M80.7046 320.591H0.992794V400.316H80.7046V320.591Z" fill="#17130F"/>
<path d="M80.9038 400.416C74.6265 400.814 68.15 401.113 61.5737 401.313C58.2856 401.412 54.9975 401.612 51.7094 401.711C48.4213 401.811 45.0335 401.911 41.6458 402.01L31.5822 402.21L21.4189 402.309C14.6434 402.409 7.86793 402.409 1.09243 402.21H-1V400.216C-0.800721 393.539 -0.601441 386.962 -0.302522 380.285C-0.00360301 373.608 0.195676 367.031 0.295316 360.354C0.394956 353.677 0.394956 347.1 0.295316 340.423C0.195676 333.746 -0.103243 327.168 -0.202882 320.491V319.196H1.19207C7.86793 318.996 14.4442 318.698 21.12 318.598C27.7959 318.399 34.3721 318.299 41.048 318.199L60.9759 318C67.6518 317.9 74.228 317.9 80.9038 317.9H83.5941V320.591C83.4945 327.368 83.4945 334.244 83.2952 341.021C83.1955 347.797 82.9963 354.574 82.6973 361.251C82.4981 367.928 82.1992 374.605 81.9002 381.182L80.9038 400.416ZM80.6049 400.117L79.7082 379.687L78.911 359.756C78.7118 353.179 78.5125 346.601 78.3132 340.124C78.1139 333.646 78.1139 327.168 78.0143 320.691L80.7046 323.381C74.0287 323.381 67.4525 323.381 60.7766 323.282L40.8487 323.082C34.1728 322.983 27.5966 322.883 20.9207 322.684C14.2449 322.484 7.66865 322.285 0.992794 322.086L2.38775 320.691C2.18847 327.168 1.88955 333.845 1.88955 340.522C1.78991 347.199 1.78991 353.777 1.88955 360.454C1.98919 367.131 2.18847 373.708 2.48739 380.385C2.78631 387.062 2.98559 393.639 3.18487 400.316L1.09243 398.223C7.56901 398.124 14.0456 398.024 20.6218 398.124L30.3865 398.223L40.2508 398.423C43.5389 398.522 46.8271 398.622 50.1152 398.722L60.1788 399.12C66.755 399.419 73.6301 399.718 80.6049 400.117Z" fill="#17130F"/>
<path d="M240.128 320.591H160.416V400.316H240.128V320.591Z" fill="#17130F"/>
<path d="M240.327 400.416C234.05 400.814 227.573 401.113 220.997 401.313C217.709 401.412 214.421 401.612 211.133 401.711C207.845 401.811 204.457 401.911 201.069 402.01L191.006 402.21L180.842 402.309C174.067 402.409 167.291 402.409 160.516 402.21H158.424V400.216C158.623 393.539 158.822 386.962 159.121 380.285C159.42 373.608 159.619 367.031 159.719 360.354C159.818 353.677 159.818 347.1 159.719 340.423C159.619 333.746 159.32 327.168 159.221 320.491V319.196H160.616C167.291 318.996 173.868 318.698 180.544 318.598C187.219 318.399 193.796 318.299 200.471 318.199L220.399 318C227.075 317.9 233.652 317.9 240.327 317.9H243.018V320.591C242.918 327.368 242.918 334.244 242.719 341.021C242.619 347.797 242.42 354.574 242.121 361.251C241.922 367.928 241.623 374.605 241.324 381.182L240.327 400.416ZM240.028 400.117L239.132 379.687L238.335 359.756C238.135 353.179 237.936 346.601 237.737 340.124C237.537 333.646 237.537 327.168 237.438 320.691L240.128 323.381C233.452 323.381 226.876 323.381 220.2 323.282L200.272 323.082C193.596 322.983 187.02 322.883 180.344 322.684C173.668 322.484 167.092 322.285 160.416 322.086L161.811 320.691C161.612 327.368 161.313 333.945 161.313 340.622C161.213 347.299 161.213 353.876 161.313 360.553C161.413 367.23 161.612 373.807 161.911 380.484C162.21 387.161 162.409 393.739 162.608 400.416L160.516 398.323C166.993 398.223 173.469 398.124 180.045 398.223L189.81 398.323L199.674 398.522C202.962 398.622 206.251 398.722 209.539 398.821L219.602 399.22C226.179 399.419 233.054 399.718 240.028 400.117Z" fill="#17130F"/>
<path d="M399.552 320.591H319.84V400.316H399.552V320.591Z" fill="#17130F"/>
<path d="M399.751 400.416C393.474 400.814 386.997 401.113 380.421 401.313C377.133 401.412 373.845 401.612 370.556 401.711C367.268 401.811 363.881 401.911 360.493 402.01L350.429 402.21L340.266 402.309C333.49 402.409 326.715 402.409 319.939 402.21H317.847V400.216C318.046 393.539 318.246 386.962 318.544 380.285C318.843 373.608 319.043 367.031 319.142 360.354C319.242 353.677 319.242 347.1 319.142 340.423C319.043 333.746 318.744 327.168 318.644 320.491V319.196H320.039C326.715 318.996 333.291 318.698 339.967 318.598C346.643 318.399 353.219 318.299 359.895 318.199L379.823 318C386.499 317.9 393.075 317.9 399.751 317.9H402.441V320.591C402.341 327.368 402.342 334.244 402.142 341.021C402.043 347.797 401.843 354.574 401.544 361.251C401.345 367.928 401.046 374.605 400.747 381.182L399.751 400.416ZM399.452 400.117L398.555 379.687L397.758 359.756C397.559 353.179 397.36 346.601 397.16 340.124C396.961 333.646 396.961 327.168 396.861 320.691L399.552 323.381C392.876 323.381 386.3 323.381 379.624 323.282L359.696 323.082C353.02 322.983 346.444 322.883 339.768 322.684C333.092 322.484 326.516 322.285 319.84 322.086L321.235 320.691C321.036 327.368 320.737 333.945 320.737 340.622C320.637 347.299 320.637 353.876 320.737 360.553C320.836 367.23 321.036 373.807 321.334 380.484C321.633 387.161 321.833 393.739 322.032 400.416L319.939 398.323C326.416 398.223 332.893 398.124 339.469 398.223L349.234 398.323L359.098 398.522C362.386 398.622 365.674 398.722 368.962 398.821L379.026 399.22C385.602 399.419 392.477 399.718 399.452 400.117Z" fill="#17130F"/>
<path d="M558.975 320.591H479.263V400.316H558.975V320.591Z" fill="#17130F"/>
<path d="M559.174 400.416C552.897 400.814 546.421 401.113 539.844 401.313C536.556 401.412 533.268 401.612 529.98 401.711C526.692 401.811 523.304 401.911 519.916 402.01L509.853 402.21L499.69 402.309C492.914 402.409 486.139 402.409 479.363 402.21H477.271V400.216C477.47 393.539 477.669 386.962 477.968 380.285C478.267 373.608 478.466 367.031 478.566 360.354C478.666 353.677 478.666 347.1 478.566 340.423C478.466 333.746 478.167 327.168 478.068 320.491V319.196H479.463C486.138 318.996 492.715 318.698 499.391 318.598C506.066 318.399 512.643 318.299 519.318 318.199L539.246 318C545.922 317.9 552.499 317.9 559.174 317.9H561.865V320.591C561.765 327.368 561.765 334.244 561.566 341.021C561.466 347.797 561.267 354.574 560.968 361.251C560.769 367.928 560.47 374.605 560.171 381.182L559.174 400.416ZM558.875 400.117L557.979 379.687L557.182 359.756C556.982 353.179 556.783 346.601 556.584 340.124C556.384 333.646 556.385 327.168 556.285 320.691L558.975 323.381C552.299 323.381 545.723 323.381 539.047 323.282L519.119 323.082C512.443 322.983 505.867 322.883 499.191 322.684C492.515 322.484 485.939 322.285 479.263 322.086L480.658 320.691C480.459 327.368 480.16 333.945 480.16 340.622C480.06 347.299 480.06 353.876 480.16 360.553C480.26 367.23 480.459 373.807 480.758 380.484C481.057 387.161 481.256 393.739 481.455 400.416L479.363 398.323C485.84 398.223 492.316 398.124 498.892 398.223L508.657 398.323L518.521 398.522C521.81 398.622 525.098 398.722 528.386 398.821L538.449 399.22C545.026 399.419 551.901 399.718 558.875 400.117Z" fill="#17130F"/>
<path d="M718.399 320.591H638.687V400.316H718.399V320.591Z" fill="#17130F"/>
<path d="M718.598 400.416C712.321 400.814 705.844 401.113 699.268 401.313C695.98 401.412 692.692 401.612 689.404 401.711C686.115 401.811 682.728 401.911 679.34 402.01L669.276 402.21L659.113 402.309C652.338 402.409 645.562 402.409 638.787 402.21H636.694V400.216C636.893 393.539 637.093 386.962 637.392 380.285C637.691 373.608 637.89 367.031 637.989 360.354C638.089 353.677 638.089 347.1 637.989 340.423C637.89 333.746 637.591 327.168 637.491 320.491V319.196H638.886C645.562 318.996 652.138 318.698 658.814 318.598C665.49 318.399 672.066 318.299 678.742 318.199L698.67 318C705.346 317.9 711.922 317.9 718.598 317.9H721.288V320.591C721.189 327.368 721.189 334.244 720.989 341.021C720.89 347.797 720.69 354.574 720.391 361.251C720.192 367.928 719.893 374.605 719.594 381.182L718.598 400.416ZM718.299 400.117L717.402 379.687L716.605 359.756C716.406 353.179 716.207 346.601 716.007 340.124C715.808 333.646 715.808 327.168 715.708 320.691L718.399 323.381C711.723 323.381 705.147 323.381 698.471 323.282L678.543 323.082C671.867 322.983 665.291 322.883 658.615 322.684C651.939 322.484 645.363 322.285 638.687 322.086L640.082 320.691C639.883 327.368 639.584 333.945 639.584 340.622C639.484 347.299 639.484 353.876 639.584 360.553C639.683 367.23 639.883 373.807 640.181 380.484C640.48 387.161 640.68 393.739 640.879 400.416L638.787 398.323C645.263 398.223 651.74 398.124 658.316 398.223L668.081 398.323L677.945 398.522C681.233 398.622 684.521 398.722 687.809 398.821L697.873 399.22C704.449 399.419 711.324 399.718 718.299 400.117Z" fill="#17130F"/>
<path d="M160.416 400.316H80.7046V480.041H160.416V400.316Z" fill="#17130F"/>
<path d="M160.616 480.141C154.338 480.539 147.862 480.838 141.285 481.038C137.997 481.137 134.709 481.337 131.421 481.436C128.133 481.536 124.745 481.636 121.358 481.735L111.294 481.935L101.131 482.034C94.3552 482.134 87.5797 482.134 80.8042 481.935H78.7118V479.941C78.911 473.265 79.1103 466.687 79.4092 460.01C79.7082 453.333 79.9074 446.756 80.0071 440.079C80.1067 433.402 80.1067 426.825 80.0071 420.148C79.9074 413.471 79.6085 406.893 79.5089 400.216V398.921H80.9038C87.5797 398.722 94.1559 398.423 100.832 398.323C107.508 398.124 114.084 398.024 120.76 397.924L140.688 397.725C147.364 397.625 153.94 397.625 160.616 397.625H163.306V400.316C163.206 407.093 163.206 413.969 163.007 420.746C162.907 427.522 162.708 434.299 162.409 440.976C162.21 447.653 161.911 454.33 161.612 460.907L160.616 480.141ZM160.317 479.842L159.42 459.412L158.623 439.481C158.424 432.904 158.224 426.326 158.025 419.849C157.826 413.371 157.826 406.893 157.726 400.416L160.416 403.106C153.74 403.106 147.164 403.106 140.488 403.007L120.56 402.807C113.885 402.708 107.308 402.608 100.632 402.409C93.9566 402.21 87.3804 402.01 80.7046 401.811L82.0995 400.416C81.9002 407.093 81.6013 413.67 81.6013 420.347C81.5017 427.024 81.5017 433.601 81.6013 440.278C81.701 446.955 81.9002 453.533 82.1992 460.21C82.4981 466.886 82.6974 473.464 82.8966 480.141L80.8042 478.048C87.2808 477.948 93.7574 477.849 100.334 477.948L110.098 478.048L119.963 478.247C123.251 478.347 126.539 478.447 129.827 478.546L139.891 478.945C146.467 479.144 153.342 479.443 160.317 479.842Z" fill="#17130F"/>
<path d="M319.84 400.316H240.128V480.041H319.84V400.316Z" fill="#17130F"/>
<path d="M320.039 480.141C313.762 480.539 307.285 480.838 300.709 481.038C297.421 481.137 294.133 481.337 290.845 481.436C287.557 481.536 284.169 481.636 280.781 481.735L270.717 481.935L260.554 482.034C253.779 482.134 247.003 482.134 240.228 481.935H238.135V479.941C238.335 473.265 238.534 466.687 238.833 460.01C239.132 453.333 239.331 446.756 239.431 440.079C239.53 433.402 239.53 426.825 239.431 420.148C239.331 413.471 239.032 406.893 238.932 400.216V398.921H240.327C247.003 398.722 253.579 398.423 260.255 398.323C266.931 398.124 273.507 398.024 280.183 397.924L300.111 397.725C306.787 397.625 313.363 397.625 320.039 397.625H322.729V400.316C322.63 407.093 322.63 413.969 322.43 420.746C322.331 427.522 322.132 434.299 321.833 440.976C321.633 447.653 321.334 454.33 321.035 460.907L320.039 480.141ZM319.74 479.842L318.843 459.412L318.046 439.481C317.847 432.904 317.648 426.326 317.448 419.849C317.249 413.371 317.249 406.893 317.15 400.416L319.84 403.106C313.164 403.106 306.588 403.106 299.912 403.007L279.984 402.807C273.308 402.708 266.732 402.608 260.056 402.409C253.38 402.21 246.804 402.01 240.128 401.811L241.523 400.416C241.324 407.093 241.025 413.67 241.025 420.347C240.925 427.024 240.925 433.601 241.025 440.278C241.124 446.955 241.324 453.533 241.623 460.21C241.922 466.886 242.121 473.464 242.32 480.141L240.228 478.048C246.704 477.948 253.181 477.849 259.757 477.948L269.522 478.048L279.386 478.247C282.674 478.347 285.962 478.447 289.25 478.546L299.314 478.945C305.89 479.144 312.765 479.443 319.74 479.842Z" fill="#17130F"/>
<path d="M479.263 400.316H399.552V480.041H479.263V400.316Z" fill="#17130F"/>
<path d="M479.463 480.141C473.185 480.539 466.709 480.838 460.133 481.038C456.844 481.137 453.556 481.337 450.268 481.436C446.98 481.536 443.592 481.636 440.205 481.735L430.141 481.935L419.978 482.034C413.202 482.134 406.427 482.134 399.651 481.935H397.559V479.941C397.758 473.265 397.957 466.687 398.256 460.01C398.555 453.333 398.754 446.756 398.854 440.079C398.954 433.402 398.954 426.825 398.854 420.148C398.754 413.471 398.456 406.893 398.356 400.216V398.921H399.751C406.427 398.722 413.003 398.423 419.679 398.323C426.355 398.124 432.931 398.024 439.607 397.924L459.535 397.725C466.211 397.625 472.787 397.625 479.463 397.625H482.153V400.316C482.053 407.093 482.053 413.969 481.854 420.746C481.754 427.522 481.555 434.299 481.256 440.976C481.057 447.653 480.758 454.33 480.459 460.907L479.463 480.141ZM479.164 479.842L478.267 459.412L477.47 439.481C477.271 432.904 477.071 426.326 476.872 419.849C476.673 413.371 476.673 406.893 476.573 400.416L479.263 403.106C472.588 403.106 466.011 403.106 459.335 403.007L439.407 402.807C432.732 402.708 426.155 402.608 419.48 402.409C412.804 402.21 406.227 402.01 399.552 401.811L400.947 400.416C400.747 407.093 400.448 413.67 400.448 420.347C400.349 427.024 400.349 433.601 400.448 440.278C400.548 446.955 400.747 453.533 401.046 460.21C401.345 466.886 401.544 473.464 401.744 480.141L399.651 478.048C406.128 477.948 412.604 477.849 419.181 477.948L428.945 478.048L438.81 478.247C442.098 478.347 445.386 478.447 448.674 478.546L458.738 478.945C465.314 479.144 472.189 479.443 479.164 479.842Z" fill="#17130F"/>
<path d="M638.687 400.316H558.975V480.041H638.687V400.316Z" fill="#17130F"/>
<path d="M638.886 480.141C632.609 480.539 626.132 480.838 619.556 481.038C616.268 481.137 612.98 481.337 609.692 481.436C606.404 481.536 603.016 481.636 599.628 481.735L589.565 481.935L579.401 482.034C572.626 482.134 565.85 482.134 559.075 481.935H556.982V479.941C557.182 473.265 557.381 466.687 557.68 460.01C557.979 453.333 558.178 446.756 558.278 440.079C558.377 433.402 558.377 426.825 558.278 420.148C558.178 413.471 557.879 406.893 557.779 400.216V398.921H559.174C565.85 398.722 572.426 398.423 579.102 398.323C585.778 398.124 592.354 398.024 599.03 397.924L618.958 397.725C625.634 397.625 632.21 397.625 638.886 397.625H641.576V400.316C641.477 407.093 641.477 413.969 641.278 420.746C641.178 427.522 640.979 434.299 640.68 440.976C640.48 447.653 640.181 454.33 639.883 460.907L638.886 480.141ZM638.587 479.842L637.69 459.412L636.893 439.481C636.694 432.904 636.495 426.326 636.296 419.849C636.096 413.371 636.096 406.893 635.997 400.416L638.687 403.106C632.011 403.106 625.435 403.106 618.759 403.007L598.831 402.807C592.155 402.708 585.579 402.608 578.903 402.409C572.227 402.21 565.651 402.01 558.975 401.811L560.37 400.416C560.171 407.093 559.872 413.67 559.872 420.347C559.772 427.024 559.772 433.601 559.872 440.278C559.972 446.955 560.171 453.533 560.47 460.21C560.769 466.886 560.968 473.464 561.167 480.141L559.075 478.048C565.551 477.948 572.028 477.849 578.604 477.948L588.369 478.048L598.233 478.247C601.521 478.347 604.809 478.447 608.098 478.546L618.161 478.945C624.737 479.144 631.613 479.443 638.587 479.842Z" fill="#17130F"/>
<path d="M798.11 400.316L718.399 400.316V480.041H798.11V400.316Z" fill="#17130F"/>
<path d="M798.31 480.141C792.032 480.539 785.556 480.838 778.98 481.038C775.692 481.137 772.403 481.337 769.115 481.436C765.827 481.536 762.439 481.636 759.052 481.735L748.988 481.935L738.825 482.034C732.049 482.134 725.274 482.134 718.498 481.935H716.406V479.941C716.605 473.265 716.804 466.687 717.103 460.01C717.402 453.333 717.602 446.756 717.701 440.079C717.801 433.402 717.801 426.825 717.701 420.148C717.602 413.471 717.303 406.893 717.203 400.216V398.921H718.598C725.274 398.722 731.85 398.423 738.526 398.323C745.202 398.124 751.778 398.024 758.454 397.924L778.382 397.725C785.058 397.625 791.634 397.625 798.31 397.625H801V400.316C800.9 407.093 800.9 413.969 800.701 420.746C800.601 427.522 800.402 434.299 800.103 440.976C799.904 447.653 799.605 454.33 799.306 460.907L798.31 480.141ZM798.011 479.842L797.114 459.412L796.317 439.481C796.118 432.904 795.918 426.326 795.719 419.849C795.52 413.371 795.52 406.893 795.42 400.416L798.11 403.106C791.435 403.106 784.858 403.106 778.182 403.007L758.255 402.807C751.579 402.708 745.002 402.608 738.327 402.409C731.651 402.21 725.074 402.01 718.399 401.811L719.794 400.416C719.594 407.093 719.295 413.67 719.295 420.347C719.196 427.024 719.196 433.601 719.295 440.278C719.395 446.955 719.594 453.533 719.893 460.21C720.192 466.886 720.391 473.464 720.591 480.141L718.498 478.048C724.975 477.948 731.451 477.849 738.028 477.948L747.792 478.048L757.657 478.247C760.945 478.347 764.233 478.447 767.521 478.546L777.585 478.945C784.161 479.144 791.036 479.443 798.011 479.842Z" fill="#17130F"/>
<path d="M80.7046 480.041H0.992794V559.766H80.7046V480.041Z" fill="#17130F"/>
<path d="M80.9038 559.866C74.6265 560.264 68.15 560.563 61.5737 560.763C58.2856 560.862 54.9975 561.062 51.7094 561.161C48.4213 561.261 45.0335 561.361 41.6458 561.46L31.5822 561.66L21.4189 561.759C14.6434 561.859 7.86793 561.859 1.09243 561.66H-1V559.667C-0.800721 552.99 -0.601441 546.412 -0.302522 539.735C-0.00360301 533.058 0.195676 526.481 0.295316 519.804C0.394956 513.127 0.394956 506.55 0.295316 499.873C0.195676 493.196 -0.103243 486.618 -0.202882 479.941V478.646H1.19207C7.86793 478.447 14.4442 478.148 21.12 478.048C27.7959 477.849 34.3721 477.749 41.048 477.649L60.9759 477.45C67.6518 477.35 74.228 477.35 80.9038 477.35H83.5941V480.041C83.4945 486.818 83.4945 493.694 83.2952 500.471C83.1955 507.247 82.9963 514.024 82.6973 520.701C82.4981 527.378 82.1992 534.055 81.9002 540.632L80.9038 559.866ZM80.6049 559.567L79.7082 539.137L78.911 519.206C78.7118 512.629 78.5125 506.051 78.3132 499.574C78.1139 493.096 78.1139 486.618 78.0143 480.141L80.7046 482.832C74.0287 482.832 67.4525 482.831 60.7766 482.732L40.8487 482.533C34.1728 482.433 27.5966 482.333 20.9207 482.134C14.2449 481.935 7.66865 481.735 0.992794 481.536L2.38775 480.141C2.18847 486.618 1.88955 493.295 1.88955 499.972C1.78991 506.649 1.78991 513.227 1.88955 519.904C1.98919 526.581 2.18847 533.158 2.48739 539.835C2.78631 546.512 2.98559 553.089 3.18487 559.766L1.09243 557.673C7.56901 557.574 14.0456 557.474 20.6218 557.574L30.3865 557.673L40.2508 557.873C43.5389 557.972 46.8271 558.072 50.1152 558.172L60.1788 558.57C66.755 558.869 73.6301 559.168 80.6049 559.567Z" fill="#17130F"/>
<path d="M240.128 480.041H160.416V559.766H240.128V480.041Z" fill="#17130F"/>
<path d="M240.327 559.866C234.05 560.264 227.573 560.563 220.997 560.763C217.709 560.862 214.421 561.062 211.133 561.161C207.845 561.261 204.457 561.361 201.069 561.46L191.006 561.66L180.842 561.759C174.067 561.859 167.291 561.859 160.516 561.66H158.424V559.667C158.623 552.99 158.822 546.412 159.121 539.735C159.42 533.058 159.619 526.481 159.719 519.804C159.818 513.127 159.818 506.55 159.719 499.873C159.619 493.196 159.32 486.618 159.221 479.941V478.646H160.616C167.291 478.447 173.868 478.148 180.544 478.048C187.219 477.849 193.796 477.749 200.471 477.649L220.399 477.45C227.075 477.35 233.652 477.35 240.327 477.35H243.018V480.041C242.918 486.818 242.918 493.694 242.719 500.471C242.619 507.247 242.42 514.024 242.121 520.701C241.922 527.378 241.623 534.055 241.324 540.632L240.327 559.866ZM240.028 559.567L239.132 539.137L238.335 519.206C238.135 512.629 237.936 506.051 237.737 499.574C237.537 493.096 237.537 486.618 237.438 480.141L240.128 482.832C233.452 482.832 226.876 482.831 220.2 482.732L200.272 482.533C193.596 482.433 187.02 482.333 180.344 482.134C173.668 481.935 167.092 481.735 160.416 481.536L161.811 480.141C161.612 486.818 161.313 493.395 161.313 500.072C161.213 506.749 161.213 513.326 161.313 520.003C161.413 526.68 161.612 533.258 161.911 539.935C162.21 546.612 162.409 553.189 162.608 559.866L160.516 557.773C166.993 557.673 173.469 557.574 180.045 557.673L189.81 557.773L199.674 557.972C202.962 558.072 206.251 558.172 209.539 558.271L219.602 558.67C226.179 558.869 233.054 559.168 240.028 559.567Z" fill="#17130F"/>
<path d="M399.552 480.041H319.84V559.766H399.552V480.041Z" fill="#17130F"/>
<path d="M399.751 559.866C393.474 560.264 386.997 560.563 380.421 560.763C377.133 560.862 373.845 561.062 370.556 561.161C367.268 561.261 363.881 561.361 360.493 561.46L350.429 561.66L340.266 561.759C333.49 561.859 326.715 561.859 319.939 561.66H317.847V559.667C318.046 552.99 318.246 546.412 318.544 539.735C318.843 533.058 319.043 526.481 319.142 519.804C319.242 513.127 319.242 506.55 319.142 499.873C319.043 493.196 318.744 486.618 318.644 479.941V478.646H320.039C326.715 478.447 333.291 478.148 339.967 478.048C346.643 477.849 353.219 477.749 359.895 477.649L379.823 477.45C386.499 477.35 393.075 477.35 399.751 477.35H402.441V480.041C402.341 486.818 402.342 493.694 402.142 500.471C402.043 507.247 401.843 514.024 401.544 520.701C401.345 527.378 401.046 534.055 400.747 540.632L399.751 559.866ZM399.452 559.567L398.555 539.137L397.758 519.206C397.559 512.629 397.36 506.051 397.16 499.574C396.961 493.096 396.961 486.618 396.861 480.141L399.552 482.832C392.876 482.832 386.3 482.831 379.624 482.732L359.696 482.533C353.02 482.433 346.444 482.333 339.768 482.134C333.092 481.935 326.516 481.735 319.84 481.536L321.235 480.141C321.036 486.818 320.737 493.395 320.737 500.072C320.637 506.749 320.637 513.326 320.737 520.003C320.836 526.68 321.036 533.258 321.334 539.935C321.633 546.612 321.833 553.189 322.032 559.866L319.939 557.773C326.416 557.673 332.893 557.574 339.469 557.673L349.234 557.773L359.098 557.972C362.386 558.072 365.674 558.172 368.962 558.271L379.026 558.67C385.602 558.869 392.477 559.168 399.452 559.567Z" fill="#17130F"/>
<path d="M558.975 480.041H479.263V559.766H558.975V480.041Z" fill="#17130F"/>
<path d="M559.174 559.866C552.897 560.264 546.421 560.563 539.844 560.763C536.556 560.862 533.268 561.062 529.98 561.161C526.692 561.261 523.304 561.361 519.916 561.46L509.853 561.66L499.69 561.759C492.914 561.859 486.139 561.859 479.363 561.66H477.271V559.667C477.47 552.99 477.669 546.412 477.968 539.735C478.267 533.058 478.466 526.481 478.566 519.804C478.666 513.127 478.666 506.55 478.566 499.873C478.466 493.196 478.167 486.618 478.068 479.941V478.646H479.463C486.138 478.447 492.715 478.148 499.391 478.048C506.066 477.849 512.643 477.749 519.318 477.649L539.246 477.45C545.922 477.35 552.499 477.35 559.174 477.35H561.865V480.041C561.765 486.818 561.765 493.694 561.566 500.471C561.466 507.247 561.267 514.024 560.968 520.701C560.769 527.378 560.47 534.055 560.171 540.632L559.174 559.866ZM558.875 559.567L557.979 539.137L557.182 519.206C556.982 512.629 556.783 506.051 556.584 499.574C556.384 493.096 556.385 486.618 556.285 480.141L558.975 482.832C552.299 482.832 545.723 482.831 539.047 482.732L519.119 482.533C512.443 482.433 505.867 482.333 499.191 482.134C492.515 481.935 485.939 481.735 479.263 481.536L480.658 480.141C480.459 486.818 480.16 493.395 480.16 500.072C480.06 506.749 480.06 513.326 480.16 520.003C480.26 526.68 480.459 533.258 480.758 539.935C481.057 546.612 481.256 553.189 481.455 559.866L479.363 557.773C485.84 557.673 492.316 557.574 498.892 557.673L508.657 557.773L518.521 557.972C521.81 558.072 525.098 558.172 528.386 558.271L538.449 558.67C545.026 558.869 551.901 559.168 558.875 559.567Z" fill="#17130F"/>
<path d="M718.399 480.041H638.687V559.766H718.399V480.041Z" fill="#17130F"/>
<path d="M718.598 559.866C712.321 560.264 705.844 560.563 699.268 560.763C695.98 560.862 692.692 561.062 689.404 561.161C686.115 561.261 682.728 561.361 679.34 561.46L669.276 561.66L659.113 561.759C652.338 561.859 645.562 561.859 638.787 561.66H636.694V559.667C636.893 552.99 637.093 546.412 637.392 539.735C637.691 533.058 637.89 526.481 637.989 519.804C638.089 513.127 638.089 506.55 637.989 499.873C637.89 493.196 637.591 486.618 637.491 479.941V478.646H638.886C645.562 478.447 652.138 478.148 658.814 478.048C665.49 477.849 672.066 477.749 678.742 477.649L698.67 477.45C705.346 477.35 711.922 477.35 718.598 477.35H721.288V480.041C721.189 486.818 721.189 493.694 720.989 500.471C720.89 507.247 720.69 514.024 720.391 520.701C720.192 527.378 719.893 534.055 719.594 540.632L718.598 559.866ZM718.299 559.567L717.402 539.137L716.605 519.206C716.406 512.629 716.207 506.051 716.007 499.574C715.808 493.096 715.808 486.618 715.708 480.141L718.399 482.832C711.723 482.832 705.147 482.831 698.471 482.732L678.543 482.533C671.867 482.433 665.291 482.333 658.615 482.134C651.939 481.935 645.363 481.735 638.687 481.536L640.082 480.141C639.883 486.818 639.584 493.395 639.584 500.072C639.484 506.749 639.484 513.326 639.584 520.003C639.683 526.68 639.883 533.258 640.181 539.935C640.48 546.612 640.68 553.189 640.879 559.866L638.787 557.773C645.263 557.673 651.74 557.574 658.316 557.673L668.081 557.773L677.945 557.972C681.233 558.072 684.521 558.172 687.809 558.271L697.873 558.67C704.449 558.869 711.324 559.168 718.299 559.567Z" fill="#17130F"/>
<path d="M160.416 559.766H80.7046V639.491H160.416V559.766Z" fill="#17130F"/>
<path d="M160.616 639.591C154.338 639.99 147.862 640.289 141.285 640.488C137.997 640.588 134.709 640.787 131.421 640.886C128.133 640.986 124.745 641.086 121.358 641.185L111.294 641.385L101.131 641.484C94.3552 641.584 87.5797 641.584 80.8042 641.385H78.7118V639.392C78.911 632.715 79.1103 626.137 79.4092 619.46C79.7082 612.783 79.9074 606.206 80.0071 599.529C80.1067 592.852 80.1067 586.275 80.0071 579.598C79.9074 572.921 79.6085 566.343 79.5089 559.667V558.371H80.9038C87.5797 558.172 94.1559 557.873 100.832 557.773C107.508 557.574 114.084 557.474 120.76 557.374L140.688 557.175C147.364 557.075 153.94 557.076 160.616 557.076H163.306V559.766C163.206 566.543 163.206 573.419 163.007 580.196C162.907 586.972 162.708 593.749 162.409 600.426C162.21 607.103 161.911 613.78 161.612 620.357L160.616 639.591ZM160.317 639.292L159.42 618.862L158.623 598.931C158.424 592.354 158.224 585.776 158.025 579.299C157.826 572.821 157.826 566.344 157.726 559.866L160.416 562.557C153.74 562.557 147.164 562.557 140.488 562.457L120.56 562.258C113.885 562.158 107.308 562.058 100.632 561.859C93.9566 561.66 87.3804 561.46 80.7046 561.261L82.0995 559.866C81.9002 566.543 81.6013 573.12 81.6013 579.797C81.5017 586.474 81.5017 593.051 81.6013 599.728C81.701 606.405 81.9002 612.983 82.1992 619.66C82.4981 626.337 82.6974 632.914 82.8966 639.591L80.8042 637.498C87.2808 637.399 93.7574 637.299 100.334 637.398L110.098 637.498L119.963 637.698C123.251 637.797 126.539 637.897 129.827 637.996L139.891 638.395C146.467 638.594 153.342 638.893 160.317 639.292Z" fill="#17130F"/>
<path d="M319.84 559.766H240.128V639.491H319.84V559.766Z" fill="#17130F"/>
<path d="M320.039 639.591C313.762 639.99 307.285 640.289 300.709 640.488C297.421 640.588 294.133 640.787 290.845 640.886C287.557 640.986 284.169 641.086 280.781 641.185L270.717 641.385L260.554 641.484C253.779 641.584 247.003 641.584 240.228 641.385H238.135V639.392C238.335 632.715 238.534 626.137 238.833 619.46C239.132 612.783 239.331 606.206 239.431 599.529C239.53 592.852 239.53 586.275 239.431 579.598C239.331 572.921 239.032 566.343 238.932 559.667V558.371H240.327C247.003 558.172 253.579 557.873 260.255 557.773C266.931 557.574 273.507 557.474 280.183 557.374L300.111 557.175C306.787 557.075 313.363 557.076 320.039 557.076H322.729V559.766C322.63 566.543 322.63 573.419 322.43 580.196C322.331 586.972 322.132 593.749 321.833 600.426C321.633 607.103 321.334 613.78 321.035 620.357L320.039 639.591ZM319.74 639.292L318.843 618.862L318.046 598.931C317.847 592.354 317.648 585.776 317.448 579.299C317.249 572.821 317.249 566.344 317.15 559.866L319.84 562.557C313.164 562.557 306.588 562.557 299.912 562.457L279.984 562.258C273.308 562.158 266.732 562.058 260.056 561.859C253.38 561.66 246.804 561.46 240.128 561.261L241.523 559.866C241.324 566.543 241.025 573.12 241.025 579.797C240.925 586.474 240.925 593.051 241.025 599.728C241.124 606.405 241.324 612.983 241.623 619.66C241.922 626.337 242.121 632.914 242.32 639.591L240.228 637.498C246.704 637.399 253.181 637.299 259.757 637.398L269.522 637.498L279.386 637.698C282.674 637.797 285.962 637.897 289.25 637.996L299.314 638.395C305.89 638.594 312.765 638.893 319.74 639.292Z" fill="#17130F"/>
<path d="M479.263 559.766H399.552V639.491H479.263V559.766Z" fill="#17130F"/>
<path d="M479.463 639.591C473.185 639.99 466.709 640.289 460.133 640.488C456.844 640.588 453.556 640.787 450.268 640.886C446.98 640.986 443.592 641.086 440.205 641.185L430.141 641.385L419.978 641.484C413.202 641.584 406.427 641.584 399.651 641.385H397.559V639.392C397.758 632.715 397.957 626.137 398.256 619.46C398.555 612.783 398.754 606.206 398.854 599.529C398.954 592.852 398.954 586.275 398.854 579.598C398.754 572.921 398.456 566.343 398.356 559.667V558.371H399.751C406.427 558.172 413.003 557.873 419.679 557.773C426.355 557.574 432.931 557.474 439.607 557.374L459.535 557.175C466.211 557.075 472.787 557.076 479.463 557.076H482.153V559.766C482.053 566.543 482.053 573.419 481.854 580.196C481.754 586.972 481.555 593.749 481.256 600.426C481.057 607.103 480.758 613.78 480.459 620.357L479.463 639.591ZM479.164 639.292L478.267 618.862L477.47 598.931C477.271 592.354 477.071 585.776 476.872 579.299C476.673 572.821 476.673 566.344 476.573 559.866L479.263 562.557C472.588 562.557 466.011 562.557 459.335 562.457L439.407 562.258C432.732 562.158 426.155 562.058 419.48 561.859C412.804 561.66 406.227 561.46 399.552 561.261L400.947 559.866C400.747 566.543 400.448 573.12 400.448 579.797C400.349 586.474 400.349 593.051 400.448 599.728C400.548 606.405 400.747 612.983 401.046 619.66C401.345 626.337 401.544 632.914 401.744 639.591L399.651 637.498C406.128 637.399 412.604 637.299 419.181 637.398L428.945 637.498L438.81 637.698C442.098 637.797 445.386 637.897 448.674 637.996L458.738 638.395C465.314 638.594 472.189 638.893 479.164 639.292Z" fill="#17130F"/>
<path d="M638.687 559.766H558.975V639.491H638.687V559.766Z" fill="#17130F"/>
<path d="M638.886 639.591C632.609 639.99 626.132 640.289 619.556 640.488C616.268 640.588 612.98 640.787 609.692 640.886C606.404 640.986 603.016 641.086 599.628 641.185L589.565 641.385L579.401 641.484C572.626 641.584 565.85 641.584 559.075 641.385H556.982V639.392C557.182 632.715 557.381 626.137 557.68 619.46C557.979 612.783 558.178 606.206 558.278 599.529C558.377 592.852 558.377 586.275 558.278 579.598C558.178 572.921 557.879 566.343 557.779 559.667V558.371H559.174C565.85 558.172 572.426 557.873 579.102 557.773C585.778 557.574 592.354 557.474 599.03 557.374L618.958 557.175C625.634 557.075 632.21 557.076 638.886 557.076H641.576V559.766C641.477 566.543 641.477 573.419 641.278 580.196C641.178 586.972 640.979 593.749 640.68 600.426C640.48 607.103 640.181 613.78 639.883 620.357L638.886 639.591ZM638.587 639.292L637.69 618.862L636.893 598.931C636.694 592.354 636.495 585.776 636.296 579.299C636.096 572.821 636.096 566.344 635.997 559.866L638.687 562.557C632.011 562.557 625.435 562.557 618.759 562.457L598.831 562.258C592.155 562.158 585.579 562.058 578.903 561.859C572.227 561.66 565.651 561.46 558.975 561.261L560.37 559.866C560.171 566.543 559.872 573.12 559.872 579.797C559.772 586.474 559.772 593.051 559.872 599.728C559.972 606.405 560.171 612.983 560.47 619.66C560.769 626.337 560.968 632.914 561.167 639.591L559.075 637.498C565.551 637.399 572.028 637.299 578.604 637.398L588.369 637.498L598.233 637.698C601.521 637.797 604.809 637.897 608.098 637.996L618.161 638.395C624.737 638.594 631.613 638.893 638.587 639.292Z" fill="#17130F"/>
<path d="M798.11 559.766H718.399V639.491H798.11V559.766Z" fill="#17130F"/>
<path d="M798.31 639.591C792.032 639.99 785.556 640.289 778.98 640.488C775.692 640.588 772.403 640.787 769.115 640.886C765.827 640.986 762.439 641.086 759.052 641.185L748.988 641.385L738.825 641.484C732.049 641.584 725.274 641.584 718.498 641.385H716.406V639.392C716.605 632.715 716.804 626.137 717.103 619.46C717.402 612.783 717.602 606.206 717.701 599.529C717.801 592.852 717.801 586.275 717.701 579.598C717.602 572.921 717.303 566.343 717.203 559.667V558.371H718.598C725.274 558.172 731.85 557.873 738.526 557.773C745.202 557.574 751.778 557.474 758.454 557.374L778.382 557.175C785.058 557.075 791.634 557.076 798.31 557.076H801V559.766C800.9 566.543 800.9 573.419 800.701 580.196C800.601 586.972 800.402 593.749 800.103 600.426C799.904 607.103 799.605 613.78 799.306 620.357L798.31 639.591ZM798.011 639.292L797.114 618.862L796.317 598.931C796.118 592.354 795.918 585.776 795.719 579.299C795.52 572.821 795.52 566.344 795.42 559.866L798.11 562.557C791.435 562.557 784.858 562.557 778.182 562.457L758.255 562.258C751.579 562.158 745.002 562.058 738.327 561.859C731.651 561.66 725.074 561.46 718.399 561.261L719.794 559.866C719.594 566.543 719.295 573.12 719.295 579.797C719.196 586.474 719.196 593.051 719.295 599.728C719.395 606.405 719.594 612.983 719.893 619.66C720.192 626.337 720.391 632.914 720.591 639.591L718.498 637.498C724.975 637.399 731.451 637.299 738.028 637.398L747.792 637.498L757.657 637.698C760.945 637.797 764.233 637.897 767.521 637.996L777.585 638.395C784.161 638.594 791.036 638.893 798.011 639.292Z" fill="#17130F"/>
<path d="M80.7046 639.491H0.992794V719.216H80.7046V639.491Z" fill="#17130F"/>
<path d="M80.9038 719.316C74.6265 719.715 68.15 720.014 61.5737 720.213C58.2856 720.313 54.9975 720.512 51.7094 720.612C48.4213 720.711 45.0335 720.811 41.6458 720.911L31.5822 721.11L21.4189 721.209C14.6434 721.309 7.86793 721.309 1.09243 721.11H-1V719.117C-0.800721 712.44 -0.601441 705.862 -0.302522 699.185C-0.00360301 692.508 0.195676 685.931 0.295316 679.254C0.394956 672.577 0.394956 666 0.295316 659.323C0.195676 652.646 -0.103243 646.069 -0.202882 639.392V638.096H1.19207C7.86793 637.897 14.4442 637.598 21.12 637.498C27.7959 637.299 34.3721 637.199 41.048 637.099L60.9759 636.9C67.6518 636.801 74.228 636.801 80.9038 636.801H83.5941V639.491C83.4945 646.268 83.4945 653.144 83.2952 659.921C83.1955 666.697 82.9963 673.474 82.6973 680.151C82.4981 686.828 82.1992 693.505 81.9002 700.082L80.9038 719.316ZM80.6049 719.017L79.7082 698.587L78.911 678.656C78.7118 672.079 78.5125 665.502 78.3132 659.024C78.1139 652.546 78.1139 646.069 78.0143 639.591L80.7046 642.282C74.0287 642.282 67.4525 642.282 60.7766 642.182L40.8487 641.983C34.1728 641.883 27.5966 641.783 20.9207 641.584C14.2449 641.385 7.66865 641.185 0.992794 640.986L2.38775 639.591C2.18847 646.069 1.88955 652.746 1.88955 659.423C1.78991 666.1 1.78991 672.677 1.88955 679.354C1.98919 686.031 2.18847 692.608 2.48739 699.285C2.78631 705.962 2.98559 712.539 3.18487 719.216L1.09243 717.124C7.56901 717.024 14.0456 716.924 20.6218 717.024L30.3865 717.124L40.2508 717.323C43.5389 717.423 46.8271 717.522 50.1152 717.622L60.1788 718.02C66.755 718.319 73.6301 718.618 80.6049 719.017Z" fill="#17130F"/>
<path d="M240.128 639.491H160.416V719.216H240.128V639.491Z" fill="#17130F"/>
<path d="M240.327 719.316C234.05 719.715 227.573 720.014 220.997 720.213C217.709 720.313 214.421 720.512 211.133 720.612C207.845 720.711 204.457 720.811 201.069 720.911L191.006 721.11L180.842 721.209C174.067 721.309 167.291 721.309 160.516 721.11H158.424V719.117C158.623 712.44 158.822 705.862 159.121 699.185C159.42 692.508 159.619 685.931 159.719 679.254C159.818 672.577 159.818 666 159.719 659.323C159.619 652.646 159.32 646.069 159.221 639.392V638.096H160.616C167.291 637.897 173.868 637.598 180.544 637.498C187.219 637.299 193.796 637.199 200.471 637.099L220.399 636.9C227.075 636.801 233.652 636.801 240.327 636.801H243.018V639.491C242.918 646.268 242.918 653.144 242.719 659.921C242.619 666.697 242.42 673.474 242.121 680.151C241.922 686.828 241.623 693.505 241.324 700.082L240.327 719.316ZM240.028 719.017L239.132 698.587L238.335 678.656C238.135 672.079 237.936 665.502 237.737 659.024C237.537 652.546 237.537 646.069 237.438 639.591L240.128 642.282C233.452 642.282 226.876 642.282 220.2 642.182L200.272 641.983C193.596 641.883 187.02 641.783 180.344 641.584C173.668 641.385 167.092 641.185 160.416 640.986L161.811 639.591C161.612 646.268 161.313 652.845 161.313 659.522C161.213 666.199 161.213 672.776 161.313 679.453C161.413 686.13 161.612 692.708 161.911 699.385C162.21 706.062 162.409 712.639 162.608 719.316L160.516 717.223C166.993 717.124 173.469 717.024 180.045 717.124L189.81 717.223L199.674 717.423C202.962 717.522 206.251 717.622 209.539 717.721L219.602 718.12C226.179 718.319 233.054 718.618 240.028 719.017Z" fill="#17130F"/>
<path d="M399.552 639.491H319.84V719.216H399.552V639.491Z" fill="#17130F"/>
<path d="M399.751 719.316C393.474 719.715 386.997 720.014 380.421 720.213C377.133 720.313 373.845 720.512 370.556 720.612C367.268 720.711 363.881 720.811 360.493 720.911L350.429 721.11L340.266 721.209C333.49 721.309 326.715 721.309 319.939 721.11H317.847V719.117C318.046 712.44 318.246 705.862 318.544 699.185C318.843 692.508 319.043 685.931 319.142 679.254C319.242 672.577 319.242 666 319.142 659.323C319.043 652.646 318.744 646.069 318.644 639.392V638.096H320.039C326.715 637.897 333.291 637.598 339.967 637.498C346.643 637.299 353.219 637.199 359.895 637.099L379.823 636.9C386.499 636.801 393.075 636.801 399.751 636.801H402.441V639.491C402.341 646.268 402.342 653.144 402.142 659.921C402.043 666.697 401.843 673.474 401.544 680.151C401.345 686.828 401.046 693.505 400.747 700.082L399.751 719.316ZM399.452 719.017L398.555 698.587L397.758 678.656C397.559 672.079 397.36 665.502 397.16 659.024C396.961 652.546 396.961 646.069 396.861 639.591L399.552 642.282C392.876 642.282 386.3 642.282 379.624 642.182L359.696 641.983C353.02 641.883 346.444 641.783 339.768 641.584C333.092 641.385 326.516 641.185 319.84 640.986L321.235 639.591C321.036 646.268 320.737 652.845 320.737 659.522C320.637 666.199 320.637 672.776 320.737 679.453C320.836 686.13 321.036 692.708 321.334 699.385C321.633 706.062 321.833 712.639 322.032 719.316L319.939 717.223C326.416 717.124 332.893 717.024 339.469 717.124L349.234 717.223L359.098 717.423C362.386 717.522 365.674 717.622 368.962 717.721L379.026 718.12C385.602 718.319 392.477 718.618 399.452 719.017Z" fill="#17130F"/>
<path d="M558.975 639.491H479.263V719.216H558.975V639.491Z" fill="#17130F"/>
<path d="M559.174 719.316C552.897 719.715 546.421 720.014 539.844 720.213C536.556 720.313 533.268 720.512 529.98 720.612C526.692 720.711 523.304 720.811 519.916 720.911L509.853 721.11L499.69 721.209C492.914 721.309 486.139 721.309 479.363 721.11H477.271V719.117C477.47 712.44 477.669 705.862 477.968 699.185C478.267 692.508 478.466 685.931 478.566 679.254C478.666 672.577 478.666 666 478.566 659.323C478.466 652.646 478.167 646.069 478.068 639.392V638.096H479.463C486.138 637.897 492.715 637.598 499.391 637.498C506.066 637.299 512.643 637.199 519.318 637.099L539.246 636.9C545.922 636.801 552.499 636.801 559.174 636.801H561.865V639.491C561.765 646.268 561.765 653.144 561.566 659.921C561.466 666.697 561.267 673.474 560.968 680.151C560.769 686.828 560.47 693.505 560.171 700.082L559.174 719.316ZM558.875 719.017L557.979 698.587L557.182 678.656C556.982 672.079 556.783 665.502 556.584 659.024C556.384 652.546 556.385 646.069 556.285 639.591L558.975 642.282C552.299 642.282 545.723 642.282 539.047 642.182L519.119 641.983C512.443 641.883 505.867 641.783 499.191 641.584C492.515 641.385 485.939 641.185 479.263 640.986L480.658 639.591C480.459 646.268 480.16 652.845 480.16 659.522C480.06 666.199 480.06 672.776 480.16 679.453C480.26 686.13 480.459 692.708 480.758 699.385C481.057 706.062 481.256 712.639 481.455 719.316L479.363 717.223C485.84 717.124 492.316 717.024 498.892 717.124L508.657 717.223L518.521 717.423C521.81 717.522 525.098 717.622 528.386 717.721L538.449 718.12C545.026 718.319 551.901 718.618 558.875 719.017Z" fill="#17130F"/>
<path d="M718.399 639.491H638.687V719.216H718.399V639.491Z" fill="#17130F"/>
<path d="M718.598 719.316C712.321 719.715 705.844 720.014 699.268 720.213C695.98 720.313 692.692 720.512 689.404 720.612C686.115 720.711 682.728 720.811 679.34 720.911L669.276 721.11L659.113 721.209C652.338 721.309 645.562 721.309 638.787 721.11H636.694V719.117C636.893 712.44 637.093 705.862 637.392 699.185C637.691 692.508 637.89 685.931 637.989 679.254C638.089 672.577 638.089 666 637.989 659.323C637.89 652.646 637.591 646.069 637.491 639.392V638.096H638.886C645.562 637.897 652.138 637.598 658.814 637.498C665.49 637.299 672.066 637.199 678.742 637.099L698.67 636.9C705.346 636.801 711.922 636.801 718.598 636.801H721.288V639.491C721.189 646.268 721.189 653.144 720.989 659.921C720.89 666.697 720.69 673.474 720.391 680.151C720.192 686.828 719.893 693.505 719.594 700.082L718.598 719.316ZM718.299 719.017L717.402 698.587L716.605 678.656C716.406 672.079 716.207 665.502 716.007 659.024C715.808 652.546 715.808 646.069 715.708 639.591L718.399 642.282C711.723 642.282 705.147 642.282 698.471 642.182L678.543 641.983C671.867 641.883 665.291 641.783 658.615 641.584C651.939 641.385 645.363 641.185 638.687 640.986L640.082 639.591C639.883 646.268 639.584 652.845 639.584 659.522C639.484 666.199 639.484 672.776 639.584 679.453C639.683 686.13 639.883 692.708 640.181 699.385C640.48 706.062 640.68 712.639 640.879 719.316L638.787 717.223C645.263 717.124 651.74 717.024 658.316 717.124L668.081 717.223L677.945 717.423C681.233 717.522 684.521 717.622 687.809 717.721L697.873 718.12C704.449 718.319 711.324 718.618 718.299 719.017Z" fill="#17130F"/>
<path d="M160.416 719.216H80.7046V798.941H160.416V719.216Z" fill="#17130F"/>
<path d="M160.616 799.041C154.338 799.44 147.862 799.739 141.285 799.938C137.997 800.038 134.709 800.237 131.421 800.337C128.133 800.436 124.745 800.536 121.358 800.636L111.294 800.835L101.131 800.935C94.3552 801.034 87.5797 801.034 80.8042 800.835H78.7118V798.842C78.911 792.165 79.1103 785.587 79.4092 778.91C79.7082 772.233 79.9074 765.656 80.0071 758.979C80.1067 752.302 80.1067 745.725 80.0071 739.048C79.9074 732.371 79.6085 725.794 79.5089 719.117V717.821H80.9038C87.5797 717.622 94.1559 717.323 100.832 717.223C107.508 717.024 114.084 716.924 120.76 716.825L140.688 716.625C147.364 716.526 153.94 716.526 160.616 716.526H163.306V719.216C163.206 725.993 163.206 732.869 163.007 739.646C162.907 746.423 162.708 753.199 162.409 759.876C162.21 766.553 161.911 773.23 161.612 779.807L160.616 799.041ZM160.317 798.742L159.42 778.313L158.623 758.381C158.424 751.804 158.224 745.227 158.025 738.749C157.826 732.271 157.826 725.794 157.726 719.316L160.416 722.007C153.74 722.007 147.164 722.007 140.488 721.907L120.56 721.708C113.885 721.608 107.308 721.508 100.632 721.309C93.9566 721.11 87.3804 720.91 80.7046 720.711L82.0995 719.316C81.9002 725.993 81.6013 732.57 81.6013 739.247C81.5017 745.924 81.5017 752.502 81.6013 759.179C81.701 765.856 81.9002 772.433 82.1992 779.11C82.4981 785.787 82.6974 792.364 82.8966 799.041L80.8042 796.948C87.2808 796.849 93.7574 796.749 100.334 796.849L110.098 796.948L119.963 797.148C123.251 797.247 126.539 797.347 129.827 797.447L139.891 797.845C146.467 798.044 153.342 798.344 160.317 798.742Z" fill="#17130F"/>
<path d="M319.84 719.216H240.128V798.941H319.84V719.216Z" fill="#17130F"/>
<path d="M320.039 799.041C313.762 799.44 307.285 799.739 300.709 799.938C297.421 800.038 294.133 800.237 290.845 800.337C287.557 800.436 284.169 800.536 280.781 800.636L270.717 800.835L260.554 800.935C253.779 801.034 247.003 801.034 240.228 800.835H238.135V798.842C238.335 792.165 238.534 785.587 238.833 778.91C239.132 772.233 239.331 765.656 239.431 758.979C239.53 752.302 239.53 745.725 239.431 739.048C239.331 732.371 239.032 725.794 238.932 719.117V717.821H240.327C247.003 717.622 253.579 717.323 260.255 717.223C266.931 717.024 273.507 716.924 280.183 716.825L300.111 716.625C306.787 716.526 313.363 716.526 320.039 716.526H322.729V719.216C322.63 725.993 322.63 732.869 322.43 739.646C322.331 746.423 322.132 753.199 321.833 759.876C321.633 766.553 321.334 773.23 321.035 779.807L320.039 799.041ZM319.74 798.742L318.843 778.313L318.046 758.381C317.847 751.804 317.648 745.227 317.448 738.749C317.249 732.271 317.249 725.794 317.15 719.316L319.84 722.007C313.164 722.007 306.588 722.007 299.912 721.907L279.984 721.708C273.308 721.608 266.732 721.508 260.056 721.309C253.38 721.11 246.804 720.91 240.128 720.711L241.523 719.316C241.324 725.993 241.025 732.57 241.025 739.247C240.925 745.924 240.925 752.502 241.025 759.179C241.124 765.856 241.324 772.433 241.623 779.11C241.922 785.787 242.121 792.364 242.32 799.041L240.228 796.948C246.704 796.849 253.181 796.749 259.757 796.849L269.522 796.948L279.386 797.148C282.674 797.247 285.962 797.347 289.25 797.447L299.314 797.845C305.89 798.044 312.765 798.344 319.74 798.742Z" fill="#17130F"/>
<path d="M479.263 719.216H399.552V798.941H479.263V719.216Z" fill="#17130F"/>
<path d="M479.463 799.041C473.185 799.44 466.709 799.739 460.133 799.938C456.844 800.038 453.556 800.237 450.268 800.337C446.98 800.436 443.592 800.536 440.205 800.636L430.141 800.835L419.978 800.935C413.202 801.034 406.427 801.034 399.651 800.835H397.559V798.842C397.758 792.165 397.957 785.587 398.256 778.91C398.555 772.233 398.754 765.656 398.854 758.979C398.954 752.302 398.954 745.725 398.854 739.048C398.754 732.371 398.456 725.794 398.356 719.117V717.821H399.751C406.427 717.622 413.003 717.323 419.679 717.223C426.355 717.024 432.931 716.924 439.607 716.825L459.535 716.625C466.211 716.526 472.787 716.526 479.463 716.526H482.153V719.216C482.053 725.993 482.053 732.869 481.854 739.646C481.754 746.423 481.555 753.199 481.256 759.876C481.057 766.553 480.758 773.23 480.459 779.807L479.463 799.041ZM479.164 798.742L478.267 778.313L477.47 758.381C477.271 751.804 477.071 745.227 476.872 738.749C476.673 732.271 476.673 725.794 476.573 719.316L479.263 722.007C472.588 722.007 466.011 722.007 459.335 721.907L439.407 721.708C432.732 721.608 426.155 721.508 419.48 721.309C412.804 721.11 406.227 720.91 399.552 720.711L400.947 719.316C400.747 725.993 400.448 732.57 400.448 739.247C400.349 745.924 400.349 752.502 400.448 759.179C400.548 765.856 400.747 772.433 401.046 779.11C401.345 785.787 401.544 792.364 401.744 799.041L399.651 796.948C406.128 796.849 412.604 796.749 419.181 796.849L428.945 796.948L438.81 797.148C442.098 797.247 445.386 797.347 448.674 797.447L458.738 797.845C465.314 798.044 472.189 798.344 479.164 798.742Z" fill="#17130F"/>
<path d="M638.687 719.216H558.975V798.941H638.687V719.216Z" fill="#17130F"/>
<path d="M638.886 799.041C632.609 799.44 626.132 799.739 619.556 799.938C616.268 800.038 612.98 800.237 609.692 800.337C606.404 800.436 603.016 800.536 599.628 800.636L589.565 800.835L579.401 800.935C572.626 801.034 565.85 801.034 559.075 800.835H556.982V798.842C557.182 792.165 557.381 785.587 557.68 778.91C557.979 772.233 558.178 765.656 558.278 758.979C558.377 752.302 558.377 745.725 558.278 739.048C558.178 732.371 557.879 725.794 557.779 719.117V717.821H559.174C565.85 717.622 572.426 717.323 579.102 717.223C585.778 717.024 592.354 716.924 599.03 716.825L618.958 716.625C625.634 716.526 632.21 716.526 638.886 716.526H641.576V719.216C641.477 725.993 641.477 732.869 641.278 739.646C641.178 746.423 640.979 753.199 640.68 759.876C640.48 766.553 640.181 773.23 639.883 779.807L638.886 799.041ZM638.587 798.742L637.69 778.313L636.893 758.381C636.694 751.804 636.495 745.227 636.296 738.749C636.096 732.271 636.096 725.794 635.997 719.316L638.687 722.007C632.011 722.007 625.435 722.007 618.759 721.907L598.831 721.708C592.155 721.608 585.579 721.508 578.903 721.309C572.227 721.11 565.651 720.91 558.975 720.711L560.37 719.316C560.171 725.993 559.872 732.57 559.872 739.247C559.772 745.924 559.772 752.502 559.872 759.179C559.972 765.856 560.171 772.433 560.47 779.11C560.769 785.787 560.968 792.364 561.167 799.041L559.075 796.948C565.551 796.849 572.028 796.749 578.604 796.849L588.369 796.948L598.233 797.148C601.521 797.247 604.809 797.347 608.098 797.447L618.161 797.845C624.737 798.044 631.613 798.344 638.587 798.742Z" fill="#17130F"/>
<path d="M798.11 719.216H718.399V798.941H798.11V719.216Z" fill="#17130F"/>
<path d="M798.31 799.041C792.032 799.44 785.556 799.739 778.98 799.938C775.692 800.038 772.403 800.237 769.115 800.337C765.827 800.436 762.439 800.536 759.052 800.636L748.988 800.835L738.825 800.935C732.049 801.034 725.274 801.034 718.498 800.835H716.406V798.842C716.605 792.165 716.804 785.587 717.103 778.91C717.402 772.233 717.602 765.656 717.701 758.979C717.801 752.302 717.801 745.725 717.701 739.048C717.602 732.371 717.303 725.794 717.203 719.117V717.821H718.598C725.274 717.622 731.85 717.323 738.526 717.223C745.202 717.024 751.778 716.924 758.454 716.825L778.382 716.625C785.058 716.526 791.634 716.526 798.31 716.526H801V719.216C800.9 725.993 800.9 732.869 800.701 739.646C800.601 746.423 800.402 753.199 800.103 759.876C799.904 766.553 799.605 773.23 799.306 779.807L798.31 799.041ZM798.011 798.742L797.114 778.313L796.317 758.381C796.118 751.804 795.918 745.227 795.719 738.749C795.52 732.271 795.52 725.794 795.42 719.316L798.11 722.007C791.435 722.007 784.858 722.007 778.182 721.907L758.255 721.708C751.579 721.608 745.002 721.508 738.327 721.309C731.651 721.11 725.074 720.91 718.399 720.711L719.794 719.316C719.594 725.993 719.295 732.57 719.295 739.247C719.196 745.924 719.196 752.502 719.295 759.179C719.395 765.856 719.594 772.433 719.893 779.11C720.192 785.787 720.391 792.364 720.591 799.041L718.498 796.948C724.975 796.849 731.451 796.749 738.028 796.849L747.792 796.948L757.657 797.148C760.945 797.247 764.233 797.347 767.521 797.447L777.585 797.845C784.161 798.044 791.036 798.344 798.011 798.742Z" fill="#17130F"/>
</g>
<defs>
<clipPath id="clip0">
<rect width="800" height="800" rx="12" fill="white"/>
</clipPath>
</defs>
</svg>
