<svg viewBox="0 0 355.95 133.1" xmlns="http://www.w3.org/2000/svg"><g fill="#1d1d1b"><path d="m114.65 96.9v.53c.13 1.71-1.15 2.86-3.19 3q-18.77 1.5-37.43 3.79c-2 .25-3.53-.62-3.74-2.32l-.07-.52c-.52-4.06 6.28-6.23 5.06-13.26-1.89-11.07-11.21-21.28-21.64-26.12-3.41 4.27-5.1 6.4-8.43 10.69 1.16 7.63 1.79 11.46 2.89 19.13 1 6.39 7.55 7.43 8.13 11.47l.07.53c.25 1.69-1 2.93-3 3.23-11 1.7-21.91 3.52-32.86 5.49-2 .38-3.57-.4-3.89-2.09l-.1-.51c-.76-4 4.45-7 3.28-13.37l-11.22-61c-1.16-6.34-7.6-7.15-8.36-11.16l-.1-.52c-.32-1.69 1-3 3.21-3.43q18.13-3.39 36.38-6.07c2.25-.34 3.9.49 4.15 2.19l.07.52c.58 4-6 7-5 13.41 1.59 10.49 2.38 15.73 4 26.22q12-15.31 24.56-30.08c5.28-6.08-1.9-8.28-2.39-12.34l-.06-.52c-.21-1.71 1.17-2.94 3.43-3.2 10.77-1.26 16.17-1.82 27-2.77 2.26-.2 3.86.72 4 2.43l.05.53c.34 4.07-7.74 6.89-13.93 13.87-6 6.65-8.91 10-14.67 16.74 16.33 6.21 29.53 22.9 33.81 39.25 2.16 8.53 9.69 12.18 9.99 16.26z"/><path d="m115.92 97.33v-.52c-.3-4.08 5.2-6.45 4.77-12.9-.58-8.48-.87-12.72-1.44-21.2-.44-6.45-6.45-8-6.72-11.56v-.52c-.11-1.58 1.27-2.48 3.38-3.55 9.58-5.12 14.43-7.62 24.26-12.48 4.31-2.17 7.2.11 7.29 2.75q.81 22.55 1.61 45.09c.23 6.46 6.64 8.23 6.76 12.32v.53c.05 1.71-1.29 2.81-3.33 2.87-11 .43-21.93 1-32.9 1.69-2.11.15-3.55-.85-3.68-2.52zm-3.35-81.63c-.57-8.16 6.71-15.07 18.25-15.7s19.51 5.53 19.77 13.7-7.07 14.84-18.27 15.42-19.17-5.26-19.75-13.42z"/><path d="m166.1 73.55-.48-29.15c-1.74 0-2.61 0-4.35.08a3.46 3.46 0 0 1 -3.71-3.22c0-1.32-.05-2-.08-3.29 0-2 1.38-3.34 3.58-3.39h2.05c9.53-.18 17.42-5.57 19.67-13.62a4.65 4.65 0 0 1 4.48-3.67h4c2.53 0 4.3 1.51 4.27 3.76-.09 5.38-.13 8.07-.21 13.45 5.51.09 8.26.15 13.77.32a3.45 3.45 0 0 1 3.55 3.41c0 1.32-.07 2-.12 3.3a3.45 3.45 0 0 1 -3.73 3.18c-5.45-.17-8.18-.23-13.63-.32l-.46 29.68c-.06 3.7 2.42 6.11 5.62 6.18 5.16.11 7.18-2.22 8.91-4 2.28-2.31 5.72-1.19 5.56 1.38-.8 12.87-12.29 21-24.84 21.43-14.42.52-23.51-12.13-23.85-25.51z"/><path d="m224.49 74.49q.72-14.55 1.42-29.12l-4.34-.2a3.44 3.44 0 0 1 -3.49-3.45c0-1.32.08-2 .13-3.29.08-2 1.6-3.24 3.79-3.15l2.05.1c9.52.44 17.75-4.44 20.52-12.32a4.67 4.67 0 0 1 4.71-3.37l4 .3c2.53.19 4.2 1.78 4 4l-1.08 13.41c5.49.45 8.24.69 13.73 1.21a3.44 3.44 0 0 1 3.32 3.64c-.13 1.31-.19 2-.32 3.28a3.45 3.45 0 0 1 -3.93 2.95c-5.43-.52-8.15-.76-13.59-1.2q-1.2 14.8-2.39 29.59c-.3 3.68 2 6.25 5.21 6.53 5.14.45 7.31-1.75 9.16-3.4 2.42-2.14 5.79-.81 5.46 1.75-1.63 12.79-13.65 20.14-26.2 19.77-14.42-.43-22.65-13.65-22.16-27.03z"/><path d="m355.88 53.3q-4.87 25.53-9.74 51.06c-3.78 21.25-24.25 30.89-44 28.34-11.44-1.48-28.38-8.85-27.5-22.11.34-5 5.15-9.39 11.82-8.46 14.09 2 8.59 21.25 19.32 24.17 4 1.09 9.5-3.49 12.53-21.71-4.06 1.9-9.43 2.66-15.93 1.62-12.88-2-22.64-12.89-21.68-26.54 1-8.6 1.45-12.9 2.41-21.5.72-6.42-5-9-4.6-12.58l.05-.52c.17-1.58 1.78-2.87 4-2.89 9.79-.1 14.69-.08 24.52.09 4.87.13 7.65 1.47 7.28 4.08q-3.17 19.8-6.29 39.61c-1.32 8.21.46 11.39 4.16 12s7.68-3.35 8.55-8.82c1.61-10.11 2.41-15.17 4-25.28 1-6.38-4.71-9.28-4.17-12.8l.07-.52c.24-1.56 1.91-2.78 4.12-2.7 9.8.35 14.71.59 24.53 1.21 4.9.3 7.04 1.66 6.55 4.25z"/></g></svg>