<svg width="568" height="249" viewBox="0 0 568 249" fill="none" xmlns="http://www.w3.org/2000/svg">
<g opacity="0.7">
<path d="M338.328 42.4441C338.311 43.1919 337.746 43.3662 336.998 43.3493C332.889 43.0698 330.65 42.8323 326.542 42.5528C325.794 42.5359 325.241 42.1494 325.441 41.5928L325.445 41.4058C325.475 40.0972 328.657 39.9818 327.96 37.7216C327.267 35.2745 326.731 34.1402 326.034 31.88C318.938 31.3462 315.199 31.262 308.104 30.7281C307.119 32.9504 306.532 34.0595 305.543 36.4687C304.558 38.691 307.54 39.1322 307.511 40.4409L307.507 40.6278C307.494 41.1886 306.929 41.363 306.181 41.3461C303.564 41.2872 302.26 41.0708 299.456 41.0076C298.708 40.9908 298.155 40.6043 298.168 40.0434L298.172 39.8565C298.202 38.5479 300.258 38.5942 301.434 36.1891C306.951 23.7817 309.894 17.6756 315.593 5.4593C316.57 3.6109 313.795 2.23913 313.816 1.30441L313.821 1.11746C313.829 0.74357 314.211 0.378098 314.959 0.394937C316.829 0.437035 317.759 0.645029 319.816 0.691336C321.498 0.729224 322.416 1.49805 322.939 3.19319C328.232 17.3404 330.693 24.3163 335.612 38.4551C336.492 40.9064 338.357 41.1355 338.328 42.4441ZM324.797 28.6725C322.174 20.5707 320.771 16.4242 317.96 8.31821C314.419 16.0941 312.648 19.9821 309.293 27.7622C315.458 28.0881 318.632 28.3466 324.797 28.6725Z" fill="black"/>
<path d="M381.071 46.3992C381.066 46.5862 381.066 46.5862 381.071 46.3992C381.054 47.147 380.676 47.3256 379.928 47.3087C377.502 47.067 376.197 46.8506 373.771 46.609C373.024 46.5921 372.662 46.0229 372.675 45.462C372.692 44.7142 372.704 44.1534 372.721 43.4056C370.614 45.6027 367.411 46.6528 364.054 46.2031C356.963 45.4823 350.929 39.3611 351.692 30.4004C352.446 21.8135 359.298 16.5437 367.137 17.2813C370.311 17.5398 372.895 19.0943 374.722 21.0059C375.193 16.7145 375.43 14.4754 375.901 10.1841C376.147 7.57105 373.347 7.32096 373.563 6.01655C373.563 6.01655 373.563 6.01655 373.567 5.82961C373.58 5.26877 374.149 4.90751 374.714 4.7332C377.344 4.2313 378.661 3.88687 381.291 3.38497C382.795 3.04476 383.348 3.43128 383.318 4.7399C381.668 19.853 380.752 27.314 379.107 42.2401C379.052 44.6704 381.096 45.2776 381.071 46.3992ZM373.043 37.4276C373.501 33.6971 373.543 31.8276 374.001 28.0972C374.459 24.3667 371.378 19.9954 367.274 19.5289C362.795 19.0539 359.537 22.5343 358.838 28.6909C357.913 36.5258 360.744 43.697 365.97 44.1888C368.953 44.6301 372.555 42.4667 373.043 37.4276Z" fill="black"/>
<path d="M413.154 50.3014C412.942 51.4188 410.698 51.3683 408.272 51.1267C405.289 50.6854 403.998 49.9082 404.061 47.104C402.519 49.1267 399.685 50.3722 395.398 49.7145C389.055 49.0105 384.835 45.3618 385.526 39.5791C386.213 33.9833 391.32 31.4798 397.289 32.1753C400.272 32.6166 402.494 33.6018 403.961 34.9441C403.973 34.3833 403.977 34.1963 403.986 33.8224C404.137 27.0924 403.287 23.3324 398.996 22.8617C393.4 22.1746 393.801 29.2912 390.07 28.8331C388.205 28.604 387.295 27.4613 387.52 25.783C387.978 22.0525 392.889 19.9186 399.42 20.6268C406.881 21.543 411.25 26.8785 411.081 34.3563C410.98 38.843 410.93 41.0863 410.829 45.573C410.362 49.6774 413.374 48.81 413.154 50.3014ZM403.601 42.6047C403.618 41.8569 403.626 41.483 403.643 40.7352C403.906 37.3744 401.9 35.0847 398.73 34.6393C395.561 34.1938 392.897 36.1913 392.447 39.5479C391.985 43.4653 393.957 47.2505 397.501 47.7044C400.857 48.1541 403.343 45.7785 403.601 42.6047Z" fill="black"/>
<path d="M447.11 29.1823L447.105 29.3693C446.889 30.6737 445.206 30.6358 443.66 32.8455C437.663 41.6883 434.758 46.1119 428.76 54.9548C426.046 59.1956 422.168 65.2806 416.39 64.4023C411.542 63.732 409.001 60.308 409.433 57.6992C409.658 56.0209 410.805 54.9245 412.67 55.1536C416.588 55.6159 414.579 61.7429 417.749 62.1884C419.988 62.4259 423.064 58.7543 425.591 54.5093C422.453 44.3385 420.888 39.0661 417.564 28.8911C416.688 26.2528 414.827 25.8368 415.048 24.3455L415.052 24.1585C415.064 23.5977 415.629 23.4234 416.19 23.436C419.921 23.8941 421.782 24.3101 425.699 24.7724C426.26 24.785 426.621 25.3542 426.613 25.7281L426.609 25.9151C426.392 27.2195 424.153 26.982 425.025 29.8072C427.1 37.3356 428.141 40.9128 430.216 48.4411C434.098 42.1692 436.039 39.0332 440.108 32.7655C442.049 29.6295 438.136 28.9803 438.353 27.6759L438.357 27.4889C438.369 26.9281 438.934 26.7538 439.495 26.7664C442.104 27.1992 443.408 27.4156 446.017 27.8485C446.944 28.2434 447.309 28.6257 447.11 29.1823Z" fill="black"/>
<path d="M501.309 39.3807L501.304 39.5677C501.088 40.8721 499.04 40.4519 497.494 42.6615C492.639 50.5949 490.121 54.4661 485.266 62.3995C484.875 63.1388 484.306 63.5001 483.375 63.2921C482.819 63.0925 482.445 63.0841 481.884 63.0715C480.953 62.8635 480.405 62.29 480.422 61.5422C479.477 53.6653 479.005 49.7268 478.06 41.8498C474.161 48.8696 472.403 52.1967 468.504 59.2164C468.113 59.9558 467.544 60.317 466.613 60.109C466.24 60.1006 466.057 59.9095 465.496 59.8968C464.565 59.6888 464.2 59.3065 464.034 58.3676C462.184 49.161 461.167 44.4621 459.126 35.4382C458.62 32.9953 456.95 32.3965 457.162 31.2791L457.167 31.0921C457.179 30.5313 457.744 30.357 458.301 30.5565C462.027 31.2016 463.706 31.4264 467.428 32.2584C468.171 32.4622 468.35 32.8403 468.341 33.2142L468.337 33.4011C468.125 34.5186 465.512 34.2727 466.014 36.9026C467.175 43.4751 467.66 46.8528 468.63 53.6081C472.533 46.4014 474.487 42.7046 478.39 35.4979C478.777 34.9455 479.159 34.58 479.715 34.7796C480.833 34.9918 481.394 35.0044 482.511 35.2166C483.255 35.4204 483.433 35.7985 483.421 36.3593C484.357 44.6102 484.825 48.7356 485.575 56.9823C488.879 51.4455 490.629 48.4922 493.933 42.9554C495.679 40.1891 492.331 39.3656 492.547 38.0612L492.552 37.8742C492.564 37.3134 493.129 37.1391 493.877 37.1559C496.486 37.5887 497.786 37.9921 500.208 38.4207C501.143 38.4418 501.508 38.8241 501.309 39.3807Z" fill="black"/>
<path d="M497.915 65.4899L497.919 65.303C498.136 63.9986 500.375 64.2361 500.799 62.0011C502.056 56.0441 502.684 53.0656 503.94 47.1087C504.369 44.6868 502.333 43.7057 502.541 42.7752L502.546 42.5883C502.554 42.2144 503.119 42.0401 503.871 41.87C506.505 41.1811 507.822 40.8367 510.452 40.3348C511.956 39.9946 512.496 40.9419 512.292 41.6855C510.412 50.4341 509.376 54.8997 507.495 63.6482C507.071 65.8832 509.298 66.6815 509.085 67.7989L509.081 67.9859C508.882 68.5425 508.317 68.7168 507.573 68.513C504.038 67.6853 502.364 67.2735 498.824 66.6327C498.268 66.4331 497.902 66.0508 497.915 65.4899ZM506.193 30.1387C506.621 27.7168 509.085 26.276 512.064 26.9042C515.042 27.5324 516.487 29.8094 515.872 32.2271C515.256 34.6447 512.979 36.0898 510.188 35.4658C507.209 34.8376 505.577 32.5564 506.193 30.1387Z" fill="black"/>
<path d="M517.454 61.628C518.906 55.3013 519.538 52.1359 520.99 45.8092C519.686 45.5928 518.942 45.389 517.642 44.9856C517.085 44.7861 516.72 44.4038 516.919 43.8471C516.928 43.4732 517.119 43.2905 517.123 43.1036C517.323 42.5469 517.705 42.1815 518.262 42.381C519.005 42.5848 519.379 42.5932 520.123 42.797C523.101 43.4252 525.574 41.6105 526.767 38.4577C527.158 37.7183 527.727 37.357 528.283 37.5566C528.657 37.565 528.84 37.7562 529.214 37.7646C529.958 37.9684 530.319 38.5377 530.115 39.2812C529.691 41.5162 529.291 42.6294 528.867 44.8643C531.846 45.4925 533.333 45.9001 536.311 46.5283C536.868 46.7279 537.229 47.2971 537.03 47.8537C537.021 48.2276 536.83 48.4104 536.826 48.5973C536.626 49.1539 536.057 49.5152 535.5 49.3156C532.522 48.6874 531.035 48.2799 528.056 47.6517C526.604 53.9784 525.785 57.1396 524.333 63.4663C523.709 66.2578 524.793 67.9656 526.654 68.3816C529.072 68.9971 530.601 67.5352 531.374 66.4304C531.952 65.6953 533.439 66.1028 533.227 67.2203C532.395 70.9424 528.397 74.032 523.375 72.7967C518.727 71.5698 516.194 67.7719 517.454 61.628Z" fill="black"/>
<path d="M564.517 81.3918L564.513 81.5788C564.313 82.1354 563.935 82.3139 563.192 82.1101C559.844 81.2866 558.174 80.6878 554.826 79.8643C554.082 79.6605 553.717 79.2782 553.916 78.7216L553.92 78.5346C554.324 77.2344 556.559 77.6588 556.983 75.4239C557.832 70.9541 558.443 68.7233 559.296 64.0665C560.557 57.9226 559.141 54.337 555.606 53.5092C551.888 52.4903 548.655 54.849 547.628 58.9407C546.384 64.3369 545.578 66.9373 544.338 72.1465C543.727 74.3772 546.14 75.1797 545.737 76.4799L545.733 76.6669C545.533 77.2235 544.968 77.3978 544.224 77.194C540.689 76.3663 538.832 75.7633 535.297 74.9356C534.554 74.7318 534.188 74.3495 534.388 73.7928L534.392 73.6059C534.795 72.3057 537.03 72.7301 537.642 70.4994C540.533 58.4069 541.976 52.4541 545.054 40.3658C545.669 37.9481 543.256 37.1456 543.468 36.0282L543.472 35.8412C543.672 35.2846 544.05 35.1061 544.802 34.936C547.619 34.4383 548.932 34.2808 551.748 33.7831C553.061 33.6256 553.609 34.1991 553.401 35.1296C551.559 42.1956 550.731 45.7308 548.893 52.6099C551.183 50.604 554.564 49.932 558.095 50.9467C563.674 52.3816 567.682 57.1478 565.993 65.7137C565.144 70.1835 564.719 72.4184 563.684 76.8841C563.068 79.3017 564.921 80.0916 564.517 81.3918Z" fill="black"/>
</g>
<path d="M181.939 189.501C181.939 189.938 181.939 189.938 181.939 190.376C182.158 192.782 180.191 194.532 177.132 194.751C155.936 196.72 145.448 198.033 124.252 200.877C120.974 201.314 119.008 200.22 118.571 197.814C118.571 197.376 118.571 197.376 118.352 196.939C117.478 191.251 127.093 188.188 125.563 177.687C123.378 162.373 106.115 139.84 86.0122 132.402C79.2384 140.934 75.9607 145.309 69.4053 153.841C71.5904 166.53 72.9015 172.874 75.0866 185.563C76.8347 194.97 86.6678 195.845 87.7603 201.752C87.7603 201.97 87.7603 202.189 87.9789 202.627C88.4159 205.033 86.6678 206.783 83.6086 207.44C65.035 210.721 55.639 212.471 37.284 216.628C34.2248 217.284 31.8211 216.409 31.3841 214.003C31.3841 213.784 31.3841 213.565 31.1656 213.128C29.8545 207.44 37.9395 202.846 35.9729 193.657C31.6026 173.749 28.5435 158.873 25.2658 143.997C21.7696 128.683 18.7104 113.807 14.3401 93.8988C12.3735 84.4918 2.32196 84.273 1.01089 78.585C1.01089 78.3663 1.01089 78.1475 0.792375 77.71C0.35535 75.3035 2.32196 73.3346 5.59965 72.6783C26.5768 68.0842 36.8469 66.1152 58.0426 62.3962C61.7574 61.7399 64.161 62.8337 64.598 65.2402C64.598 65.4589 64.598 65.6777 64.8165 66.1152C65.6906 71.8032 55.639 76.1786 57.3871 85.5856C60.6648 104.181 62.4129 113.588 65.6906 132.183C82.516 110.088 91.2565 99.1493 109.83 77.4912C117.697 68.3029 106.334 65.6777 105.46 59.9897C105.46 59.5522 105.46 59.5522 105.241 59.1147C104.804 56.4894 106.989 54.7393 110.486 54.3018C126.219 52.1141 134.085 51.239 150.036 49.7076C153.751 49.2701 155.936 50.3639 156.155 52.9891C156.155 53.4267 156.155 53.4267 156.155 53.8642C156.81 59.5522 144.574 63.7088 135.615 74.2097C125.126 85.8044 119.882 91.7112 109.83 103.525C143.044 115.994 161.618 148.153 166.425 166.967C169.703 179.219 181.284 183.813 181.939 189.501Z" fill="black"/>
<path d="M185.435 190.157C185.435 189.719 185.435 189.719 185.435 189.282C184.998 183.375 193.52 180.094 192.646 170.687C191.335 154.935 190.898 147.06 189.587 131.308C188.932 121.901 179.536 119.714 179.099 114.682C179.099 114.244 179.099 114.244 179.099 113.807C178.88 111.619 180.847 110.306 184.124 108.556C197.672 101.337 204.446 97.8367 218.212 90.8361C224.549 87.5546 228.701 90.8361 228.919 94.7739C230.23 124.089 230.886 138.746 232.197 168.061C232.634 177.687 242.467 179.656 242.686 185.782C242.686 186.219 242.686 186.219 242.686 186.657C242.686 189.063 240.719 190.594 237.441 190.813C218.649 191.47 209.472 192.126 190.898 193.657C187.621 193.876 185.654 192.563 185.435 190.157ZM178.443 61.7399C177.569 49.9264 188.058 40.0818 204.883 38.988C221.49 37.8941 233.071 46.4261 233.508 58.2396C233.945 69.8343 223.457 79.2414 207.287 80.3352C190.898 81.429 179.317 73.3346 178.443 61.7399Z" fill="black"/>
<path d="M261.041 153.841C260.604 134.152 260.604 124.308 260.167 104.837C256.671 104.837 254.922 104.837 251.426 105.056C248.367 105.056 245.963 103.087 245.963 100.462C245.963 98.7117 245.963 97.8367 245.745 95.8678C245.745 93.0238 247.712 91.0548 250.989 91.0548C252.737 91.0548 253.611 91.0548 255.359 91.0548C269.781 90.8361 280.925 82.5229 283.985 69.8343C284.64 66.5528 287.262 64.3651 290.54 64.3651C292.725 64.3651 293.818 64.3651 296.003 64.3651C299.936 64.3651 302.34 66.5528 302.34 69.8343C302.121 78.1475 302.121 82.3041 302.121 90.8361C311.736 91.0549 316.543 91.0549 326.376 91.4924C329.435 91.4924 331.62 93.6801 331.62 96.5241C331.62 98.2742 331.62 99.1493 331.402 101.118C331.402 103.743 328.998 105.712 325.939 105.712C316.324 105.275 311.517 105.275 302.121 105.056C301.903 124.964 301.684 134.809 301.247 154.716C301.247 161.717 305.399 165.874 311.08 166.092C319.602 166.311 323.317 162.155 325.939 158.873C328.78 155.373 334.461 156.685 334.242 160.623C333.587 176.593 320.476 192.563 297.095 192.345C275.463 191.688 261.478 178.781 261.041 153.841Z" fill="black"/>
<path d="M350.849 155.592C351.942 135.902 352.597 126.277 353.69 106.587C350.194 106.369 348.446 106.369 344.95 106.15C341.89 105.931 339.705 103.743 339.924 101.118C339.924 99.368 340.142 98.493 340.142 96.524C340.361 93.6801 342.546 91.9299 345.824 91.9299C347.572 91.9299 348.446 92.1487 350.194 92.1487C364.397 93.0238 376.415 85.5856 380.349 73.1158C381.223 69.8343 384.063 68.0842 387.122 68.3029C389.308 68.5217 390.4 68.5217 392.585 68.7405C396.3 69.178 398.922 71.3657 398.485 74.6472C397.83 82.9604 397.393 87.117 396.518 95.4302C406.133 96.3053 410.94 96.7428 420.555 97.8367C423.614 98.2742 425.581 100.462 425.362 103.087C425.144 104.837 425.144 105.712 424.925 107.681C424.707 110.306 422.084 112.057 419.025 111.838C409.411 110.744 404.822 110.306 395.207 109.431C393.459 129.339 392.585 139.184 390.619 158.873C389.963 165.874 393.896 170.468 399.578 170.905C408.1 171.78 412.033 167.843 414.874 164.78C417.933 161.498 423.614 163.248 423.177 167.186C421.429 183.375 407.226 198.47 383.626 196.501C362.431 194.532 349.32 180.531 350.849 155.592Z" fill="black"/>
<path d="M554.503 123.651C547.292 156.248 543.577 172.437 536.367 205.033C528.282 240.911 498.564 252.287 468.409 247.255C445.028 243.318 424.488 229.535 426.892 211.377C427.766 203.939 434.321 198.47 443.936 199.783C466.006 202.846 454.424 234.348 474.09 238.067C483.268 239.817 492.227 232.379 497.69 203.064V202.846C490.697 206.346 481.957 207.44 470.594 205.689C450.491 202.408 433.884 185.125 437.162 161.498C438.91 147.716 439.784 140.934 441.751 127.152C443.062 117.526 434.103 113.807 434.758 108.775C434.758 108.338 434.758 108.338 434.758 107.9C434.977 105.712 437.38 103.743 440.658 103.743C454.643 103.962 461.854 103.962 475.839 104.618C482.612 104.837 486.764 106.806 486.109 110.525C481.738 134.59 479.772 146.841 475.402 170.905C472.779 185.563 476.276 192.563 484.361 194.095C492.446 195.407 500.312 188.844 502.279 178.125C505.338 162.155 506.867 154.06 509.927 138.09C511.675 128.464 502.716 124.308 503.808 119.276C503.808 119.057 503.808 118.838 504.027 118.401C504.464 116.213 506.867 114.463 510.145 114.682C524.348 115.557 531.341 115.994 545.326 117.307C552.099 117.745 555.377 119.932 554.503 123.651Z" fill="black"/>
</svg>
