<svg width="90" height="42" viewBox="0 0 90 42" fill="none" xmlns="http://www.w3.org/2000/svg">
<g opacity="0.3">
<mask id="path-1-outside-1" maskUnits="userSpaceOnUse" x="0.119141" y="-3.58433e-06" width="42" height="42" fill="black">
<rect fill="white" x="0.119141" y="-3.58433e-06" width="42" height="42"/>
<path d="M5.36125 1.25102C10.2719 1.25102 10.8403 1.09859 18.8277 1.03138C20.6921 1.00001 22.5835 1 24.4479 1L27.2579 1L30.068 1.01569L35.7422 1.04707L36.4447 1.04707L36.796 1.04707L36.9851 1.04707L37.1742 1.04707C37.6876 1.06276 38.228 1.1412 38.6874 1.26671C39.633 1.53341 40.3896 2.01976 40.7409 2.58454L40.7949 2.69435L40.8489 2.80417C40.876 2.88262 40.903 2.94537 40.93 3.02381C40.957 3.10225 40.957 3.18069 40.957 3.24345C40.957 3.32189 40.957 3.40033 40.957 3.46308L40.93 4.27888L40.903 5.91047C40.903 6.99297 40.876 8.09116 40.903 9.17365C40.93 11.3543 41.0111 13.5193 41.0381 15.7C41.0921 16.8139 41.1191 17.9121 41.1191 18.9946C41.1191 20.0771 41.1191 21.1753 41.0381 22.2578C40.984 23.3403 40.876 24.4385 40.876 25.521C40.8489 26.6191 40.903 27.7016 40.93 28.7841C40.984 29.8666 40.984 30.9648 41.0111 32.0473C41.0111 33.1298 40.984 34.228 40.957 35.3105C40.93 35.8596 40.93 36.393 40.93 36.9421C40.93 37.4912 40.93 38.0246 40.93 38.5737C40.93 39.1698 40.5247 39.766 39.7952 40.1896C39.0386 40.6289 38.0119 40.8799 36.9851 40.8956C26.1384 40.9409 23.8386 40.9868 23.4916 40.9897C21.6272 41.0054 19.7358 41.0054 17.8715 40.974C16.0071 40.9426 14.1157 40.8956 12.2513 40.8956C10.3869 40.8956 8.49555 40.9113 6.63118 40.9583L5.92866 40.974L5.5774 40.974L5.38825 40.974L5.19912 40.974C4.65872 40.974 4.11832 40.8956 3.63196 40.7857C2.63223 40.5347 1.82164 40.0484 1.41634 39.4522L1.33527 39.3424L1.28124 39.2326C1.25422 39.1542 1.20017 39.0757 1.20017 38.9973C1.17315 38.9188 1.14614 38.8404 1.14614 38.7619C1.14614 38.6835 1.11911 38.6051 1.11911 38.5423L1.11911 37.7265C1.11911 37.1774 1.14613 36.644 1.20017 36.0949C1.25421 35.5458 1.33527 35.0124 1.33527 34.4633C1.36229 33.9142 1.3623 33.3808 1.3623 32.8317C1.3623 30.651 1.30826 28.4861 1.28124 26.3054L1.22719 23.0422C1.22719 21.9597 1.2272 20.8615 1.25422 19.779C1.28124 17.5983 1.38932 15.4333 1.44336 13.2526L1.4974 9.98945C1.52442 8.90695 1.44336 7.80876 1.41634 6.72626C1.38932 5.64376 1.3623 4.54558 1.41634 3.46308C1.44336 2.86692 1.95673 2.28645 2.68627 1.90993C3.4158 1.45497 4.38853 1.25102 5.36125 1.25102ZM5.36125 1.39221C4.44257 1.39221 3.55091 1.62754 2.95647 2.00406C2.36203 2.39627 2.06482 2.8983 2.11886 3.38464C2.19992 4.46714 2.1729 5.56533 2.11886 6.64782C2.09184 7.73032 2.0378 8.8285 2.0378 9.911L2.09184 13.1742C2.14588 15.3549 2.25395 17.5199 2.28097 19.7006C2.30799 20.7831 2.308 21.8812 2.308 22.9637L2.25396 26.2269C2.22694 28.4076 2.17289 30.5726 2.17289 32.7533C2.17289 33.3024 2.1729 33.8358 2.19992 34.3849C2.22694 34.934 2.28097 35.4674 2.33501 36.0165C2.38905 36.5656 2.41607 37.099 2.41607 37.6481L2.41607 38.4639C2.41607 38.5423 2.41607 38.5894 2.41607 38.6521C2.41607 38.7149 2.41607 38.7619 2.44309 38.8247C2.44309 38.8874 2.47011 38.9345 2.49713 38.9973L2.52416 39.0757L2.57819 39.1542C2.82136 39.5777 3.36177 39.9543 4.06429 40.1582C4.41554 40.268 4.82084 40.3308 5.19912 40.3465L5.36125 40.3465L5.55037 40.3465L5.90164 40.3465L6.60415 40.3622C8.46852 40.4092 10.3599 40.4249 12.2243 40.4249C14.0887 40.4249 15.9801 40.3778 17.8444 40.3465C19.7088 40.3151 21.6002 40.3151 23.4646 40.3308C23.8331 40.3339 26.1501 40.3797 36.9851 40.4249C37.8227 40.4249 38.6603 40.2367 39.2548 39.8915C39.8762 39.5464 40.2275 39.06 40.2275 38.5737C40.2275 38.0246 40.2275 37.4912 40.2275 36.9421C40.2275 36.393 40.2005 35.8596 40.2005 35.3105C40.1734 34.228 40.1464 33.1298 40.1464 32.0473C40.1464 30.9648 40.1734 29.8666 40.2275 28.7841C40.2275 27.7016 40.2815 26.6191 40.2545 25.521C40.2545 24.4385 40.1464 23.3403 40.0924 22.2578C40.0113 21.1753 40.0113 20.0771 40.0113 18.9946C40.0113 17.9121 40.0383 16.8139 40.0654 15.7314C40.1194 13.5507 40.2005 11.3857 40.2005 9.20503C40.2275 8.12253 40.2005 7.02435 40.2005 5.94185L40.1734 4.31026L40.1464 3.49446C40.1464 3.41602 40.1464 3.36895 40.1194 3.3062C40.1194 3.24345 40.0924 3.18069 40.0924 3.11794C40.0924 3.05519 40.0654 2.99244 40.0383 2.94537L40.0113 2.85124L39.9573 2.7728C39.6601 2.31783 39.0386 1.94131 38.3091 1.75305C37.9308 1.65892 37.5255 1.59617 37.1202 1.59617L36.9581 1.59617L36.7689 1.59617L36.4177 1.59617L35.7152 1.59617L30.095 1.64323L27.285 1.65892L24.4749 1.65892C22.6105 1.65892 20.7191 1.65892 18.8547 1.62754C13.0035 1.57831 11.8782 1.39221 5.36125 1.39221Z"/>
</mask>
<path d="M5.36125 1.25102C10.2719 1.25102 10.8403 1.09859 18.8277 1.03138C20.6921 1.00001 22.5835 1 24.4479 1L27.2579 1L30.068 1.01569L35.7422 1.04707L36.4447 1.04707L36.796 1.04707L36.9851 1.04707L37.1742 1.04707C37.6876 1.06276 38.228 1.1412 38.6874 1.26671C39.633 1.53341 40.3896 2.01976 40.7409 2.58454L40.7949 2.69435L40.8489 2.80417C40.876 2.88262 40.903 2.94537 40.93 3.02381C40.957 3.10225 40.957 3.18069 40.957 3.24345C40.957 3.32189 40.957 3.40033 40.957 3.46308L40.93 4.27888L40.903 5.91047C40.903 6.99297 40.876 8.09116 40.903 9.17365C40.93 11.3543 41.0111 13.5193 41.0381 15.7C41.0921 16.8139 41.1191 17.9121 41.1191 18.9946C41.1191 20.0771 41.1191 21.1753 41.0381 22.2578C40.984 23.3403 40.876 24.4385 40.876 25.521C40.8489 26.6191 40.903 27.7016 40.93 28.7841C40.984 29.8666 40.984 30.9648 41.0111 32.0473C41.0111 33.1298 40.984 34.228 40.957 35.3105C40.93 35.8596 40.93 36.393 40.93 36.9421C40.93 37.4912 40.93 38.0246 40.93 38.5737C40.93 39.1698 40.5247 39.766 39.7952 40.1896C39.0386 40.6289 38.0119 40.8799 36.9851 40.8956C26.1384 40.9409 23.8386 40.9868 23.4916 40.9897C21.6272 41.0054 19.7358 41.0054 17.8715 40.974C16.0071 40.9426 14.1157 40.8956 12.2513 40.8956C10.3869 40.8956 8.49555 40.9113 6.63118 40.9583L5.92866 40.974L5.5774 40.974L5.38825 40.974L5.19912 40.974C4.65872 40.974 4.11832 40.8956 3.63196 40.7857C2.63223 40.5347 1.82164 40.0484 1.41634 39.4522L1.33527 39.3424L1.28124 39.2326C1.25422 39.1542 1.20017 39.0757 1.20017 38.9973C1.17315 38.9188 1.14614 38.8404 1.14614 38.7619C1.14614 38.6835 1.11911 38.6051 1.11911 38.5423L1.11911 37.7265C1.11911 37.1774 1.14613 36.644 1.20017 36.0949C1.25421 35.5458 1.33527 35.0124 1.33527 34.4633C1.36229 33.9142 1.3623 33.3808 1.3623 32.8317C1.3623 30.651 1.30826 28.4861 1.28124 26.3054L1.22719 23.0422C1.22719 21.9597 1.2272 20.8615 1.25422 19.779C1.28124 17.5983 1.38932 15.4333 1.44336 13.2526L1.4974 9.98945C1.52442 8.90695 1.44336 7.80876 1.41634 6.72626C1.38932 5.64376 1.3623 4.54558 1.41634 3.46308C1.44336 2.86692 1.95673 2.28645 2.68627 1.90993C3.4158 1.45497 4.38853 1.25102 5.36125 1.25102ZM5.36125 1.39221C4.44257 1.39221 3.55091 1.62754 2.95647 2.00406C2.36203 2.39627 2.06482 2.8983 2.11886 3.38464C2.19992 4.46714 2.1729 5.56533 2.11886 6.64782C2.09184 7.73032 2.0378 8.8285 2.0378 9.911L2.09184 13.1742C2.14588 15.3549 2.25395 17.5199 2.28097 19.7006C2.30799 20.7831 2.308 21.8812 2.308 22.9637L2.25396 26.2269C2.22694 28.4076 2.17289 30.5726 2.17289 32.7533C2.17289 33.3024 2.1729 33.8358 2.19992 34.3849C2.22694 34.934 2.28097 35.4674 2.33501 36.0165C2.38905 36.5656 2.41607 37.099 2.41607 37.6481L2.41607 38.4639C2.41607 38.5423 2.41607 38.5894 2.41607 38.6521C2.41607 38.7149 2.41607 38.7619 2.44309 38.8247C2.44309 38.8874 2.47011 38.9345 2.49713 38.9973L2.52416 39.0757L2.57819 39.1542C2.82136 39.5777 3.36177 39.9543 4.06429 40.1582C4.41554 40.268 4.82084 40.3308 5.19912 40.3465L5.36125 40.3465L5.55037 40.3465L5.90164 40.3465L6.60415 40.3622C8.46852 40.4092 10.3599 40.4249 12.2243 40.4249C14.0887 40.4249 15.9801 40.3778 17.8444 40.3465C19.7088 40.3151 21.6002 40.3151 23.4646 40.3308C23.8331 40.3339 26.1501 40.3797 36.9851 40.4249C37.8227 40.4249 38.6603 40.2367 39.2548 39.8915C39.8762 39.5464 40.2275 39.06 40.2275 38.5737C40.2275 38.0246 40.2275 37.4912 40.2275 36.9421C40.2275 36.393 40.2005 35.8596 40.2005 35.3105C40.1734 34.228 40.1464 33.1298 40.1464 32.0473C40.1464 30.9648 40.1734 29.8666 40.2275 28.7841C40.2275 27.7016 40.2815 26.6191 40.2545 25.521C40.2545 24.4385 40.1464 23.3403 40.0924 22.2578C40.0113 21.1753 40.0113 20.0771 40.0113 18.9946C40.0113 17.9121 40.0383 16.8139 40.0654 15.7314C40.1194 13.5507 40.2005 11.3857 40.2005 9.20503C40.2275 8.12253 40.2005 7.02435 40.2005 5.94185L40.1734 4.31026L40.1464 3.49446C40.1464 3.41602 40.1464 3.36895 40.1194 3.3062C40.1194 3.24345 40.0924 3.18069 40.0924 3.11794C40.0924 3.05519 40.0654 2.99244 40.0383 2.94537L40.0113 2.85124L39.9573 2.7728C39.6601 2.31783 39.0386 1.94131 38.3091 1.75305C37.9308 1.65892 37.5255 1.59617 37.1202 1.59617L36.9581 1.59617L36.7689 1.59617L36.4177 1.59617L35.7152 1.59617L30.095 1.64323L27.285 1.65892L24.4749 1.65892C22.6105 1.65892 20.7191 1.65892 18.8547 1.62754C13.0035 1.57831 11.8782 1.39221 5.36125 1.39221Z" fill="#1F180F"/>
<path d="M5.36125 1.25102C10.2719 1.25102 10.8403 1.09859 18.8277 1.03138C20.6921 1.00001 22.5835 1 24.4479 1L27.2579 1L30.068 1.01569L35.7422 1.04707L36.4447 1.04707L36.796 1.04707L36.9851 1.04707L37.1742 1.04707C37.6876 1.06276 38.228 1.1412 38.6874 1.26671C39.633 1.53341 40.3896 2.01976 40.7409 2.58454L40.7949 2.69435L40.8489 2.80417C40.876 2.88262 40.903 2.94537 40.93 3.02381C40.957 3.10225 40.957 3.18069 40.957 3.24345C40.957 3.32189 40.957 3.40033 40.957 3.46308L40.93 4.27888L40.903 5.91047C40.903 6.99297 40.876 8.09116 40.903 9.17365C40.93 11.3543 41.0111 13.5193 41.0381 15.7C41.0921 16.8139 41.1191 17.9121 41.1191 18.9946C41.1191 20.0771 41.1191 21.1753 41.0381 22.2578C40.984 23.3403 40.876 24.4385 40.876 25.521C40.8489 26.6191 40.903 27.7016 40.93 28.7841C40.984 29.8666 40.984 30.9648 41.0111 32.0473C41.0111 33.1298 40.984 34.228 40.957 35.3105C40.93 35.8596 40.93 36.393 40.93 36.9421C40.93 37.4912 40.93 38.0246 40.93 38.5737C40.93 39.1698 40.5247 39.766 39.7952 40.1896C39.0386 40.6289 38.0119 40.8799 36.9851 40.8956C26.1384 40.9409 23.8386 40.9868 23.4916 40.9897C21.6272 41.0054 19.7358 41.0054 17.8715 40.974C16.0071 40.9426 14.1157 40.8956 12.2513 40.8956C10.3869 40.8956 8.49555 40.9113 6.63118 40.9583L5.92866 40.974L5.5774 40.974L5.38825 40.974L5.19912 40.974C4.65872 40.974 4.11832 40.8956 3.63196 40.7857C2.63223 40.5347 1.82164 40.0484 1.41634 39.4522L1.33527 39.3424L1.28124 39.2326C1.25422 39.1542 1.20017 39.0757 1.20017 38.9973C1.17315 38.9188 1.14614 38.8404 1.14614 38.7619C1.14614 38.6835 1.11911 38.6051 1.11911 38.5423L1.11911 37.7265C1.11911 37.1774 1.14613 36.644 1.20017 36.0949C1.25421 35.5458 1.33527 35.0124 1.33527 34.4633C1.36229 33.9142 1.3623 33.3808 1.3623 32.8317C1.3623 30.651 1.30826 28.4861 1.28124 26.3054L1.22719 23.0422C1.22719 21.9597 1.2272 20.8615 1.25422 19.779C1.28124 17.5983 1.38932 15.4333 1.44336 13.2526L1.4974 9.98945C1.52442 8.90695 1.44336 7.80876 1.41634 6.72626C1.38932 5.64376 1.3623 4.54558 1.41634 3.46308C1.44336 2.86692 1.95673 2.28645 2.68627 1.90993C3.4158 1.45497 4.38853 1.25102 5.36125 1.25102ZM5.36125 1.39221C4.44257 1.39221 3.55091 1.62754 2.95647 2.00406C2.36203 2.39627 2.06482 2.8983 2.11886 3.38464C2.19992 4.46714 2.1729 5.56533 2.11886 6.64782C2.09184 7.73032 2.0378 8.8285 2.0378 9.911L2.09184 13.1742C2.14588 15.3549 2.25395 17.5199 2.28097 19.7006C2.30799 20.7831 2.308 21.8812 2.308 22.9637L2.25396 26.2269C2.22694 28.4076 2.17289 30.5726 2.17289 32.7533C2.17289 33.3024 2.1729 33.8358 2.19992 34.3849C2.22694 34.934 2.28097 35.4674 2.33501 36.0165C2.38905 36.5656 2.41607 37.099 2.41607 37.6481L2.41607 38.4639C2.41607 38.5423 2.41607 38.5894 2.41607 38.6521C2.41607 38.7149 2.41607 38.7619 2.44309 38.8247C2.44309 38.8874 2.47011 38.9345 2.49713 38.9973L2.52416 39.0757L2.57819 39.1542C2.82136 39.5777 3.36177 39.9543 4.06429 40.1582C4.41554 40.268 4.82084 40.3308 5.19912 40.3465L5.36125 40.3465L5.55037 40.3465L5.90164 40.3465L6.60415 40.3622C8.46852 40.4092 10.3599 40.4249 12.2243 40.4249C14.0887 40.4249 15.9801 40.3778 17.8444 40.3465C19.7088 40.3151 21.6002 40.3151 23.4646 40.3308C23.8331 40.3339 26.1501 40.3797 36.9851 40.4249C37.8227 40.4249 38.6603 40.2367 39.2548 39.8915C39.8762 39.5464 40.2275 39.06 40.2275 38.5737C40.2275 38.0246 40.2275 37.4912 40.2275 36.9421C40.2275 36.393 40.2005 35.8596 40.2005 35.3105C40.1734 34.228 40.1464 33.1298 40.1464 32.0473C40.1464 30.9648 40.1734 29.8666 40.2275 28.7841C40.2275 27.7016 40.2815 26.6191 40.2545 25.521C40.2545 24.4385 40.1464 23.3403 40.0924 22.2578C40.0113 21.1753 40.0113 20.0771 40.0113 18.9946C40.0113 17.9121 40.0383 16.8139 40.0654 15.7314C40.1194 13.5507 40.2005 11.3857 40.2005 9.20503C40.2275 8.12253 40.2005 7.02435 40.2005 5.94185L40.1734 4.31026L40.1464 3.49446C40.1464 3.41602 40.1464 3.36895 40.1194 3.3062C40.1194 3.24345 40.0924 3.18069 40.0924 3.11794C40.0924 3.05519 40.0654 2.99244 40.0383 2.94537L40.0113 2.85124L39.9573 2.7728C39.6601 2.31783 39.0386 1.94131 38.3091 1.75305C37.9308 1.65892 37.5255 1.59617 37.1202 1.59617L36.9581 1.59617L36.7689 1.59617L36.4177 1.59617L35.7152 1.59617L30.095 1.64323L27.285 1.65892L24.4749 1.65892C22.6105 1.65892 20.7191 1.65892 18.8547 1.62754C13.0035 1.57831 11.8782 1.39221 5.36125 1.39221Z" stroke="black" mask="url(#path-1-outside-1)"/>
</g>
<path opacity="0.3" d="M24.1128 17.4057C24.2394 19.269 24.2459 23.2616 24.1323 24.8883C24.1023 25.3178 23.7684 25.4531 23.4479 25.1657C23.0456 24.805 22.5688 24.3068 21.9629 23.8437C20.2084 22.503 18.0254 21.0076 18.0254 20.8438C18.0254 20.5937 18.9622 20.1783 20.4629 19.0937C21.5032 18.3419 22.51 17.3697 23.2714 16.8893C23.6745 16.6349 24.0805 16.9301 24.1128 17.4057Z" fill="#1F180F"/>
<g opacity="0.3">
<mask id="path-3-outside-2" maskUnits="userSpaceOnUse" x="48.1191" y="0" width="42" height="42" fill="black">
<rect fill="white" x="48.1191" width="42" height="42"/>
<path d="M84.877 1.25102C79.9664 1.25102 79.398 1.09859 71.4105 1.03138C69.5462 1 67.6548 1 65.7904 1H62.9803L60.1703 1.01569L54.4961 1.04707H53.7936H53.4423H53.2532H53.064C52.5507 1.06276 52.0103 1.1412 51.5509 1.2667C50.6052 1.53341 49.8487 2.01975 49.4974 2.58453L49.4434 2.69435L49.3893 2.80417C49.3623 2.88261 49.3353 2.94536 49.3083 3.0238C49.2813 3.10225 49.2813 3.18069 49.2813 3.24344C49.2813 3.32188 49.2813 3.40032 49.2813 3.46308L49.3083 4.27888L49.3353 5.91047C49.3353 6.99297 49.3623 8.09115 49.3353 9.17365C49.3083 11.3543 49.2272 13.5193 49.2002 15.7C49.1462 16.8139 49.1191 17.9121 49.1191 18.9946C49.1191 20.0771 49.1191 21.1753 49.2002 22.2578C49.2542 23.3403 49.3623 24.4384 49.3623 25.5209C49.3893 26.6191 49.3353 27.7016 49.3083 28.7841C49.2542 29.8666 49.2542 30.9648 49.2272 32.0473C49.2272 33.1298 49.2542 34.228 49.2813 35.3105C49.3083 35.8596 49.3083 36.393 49.3083 36.9421C49.3083 37.4912 49.3083 38.0246 49.3083 38.5737C49.3083 39.1698 49.7136 39.766 50.4431 40.1896C51.1997 40.6289 52.2264 40.8799 53.2532 40.8956C64.0999 40.9409 66.3997 40.9868 66.7467 40.9897C68.611 41.0054 70.5024 41.0054 72.3668 40.974C74.2312 40.9426 76.1226 40.8956 77.9869 40.8956C79.8513 40.8956 81.7427 40.9113 83.6071 40.9583L84.3096 40.974H84.6609H84.85H85.0391C85.5795 40.974 86.1199 40.8956 86.6063 40.7857C87.606 40.5347 88.4166 40.0484 88.8219 39.4522L88.903 39.3424L88.957 39.2326C88.984 39.1542 89.0381 39.0757 89.0381 38.9973C89.0651 38.9188 89.0921 38.8404 89.0921 38.7619C89.0921 38.6835 89.1191 38.6051 89.1191 38.5423V37.7265C89.1191 37.1774 89.0921 36.644 89.0381 36.0949C88.984 35.5458 88.903 35.0124 88.903 34.4633C88.876 33.9142 88.876 33.3808 88.876 32.8317C88.876 30.651 88.93 28.4861 88.957 26.3054L89.0111 23.0422C89.0111 21.9597 89.0111 20.8615 88.984 19.779C88.957 17.5983 88.8489 15.4333 88.7949 13.2526L88.7409 9.98945C88.7138 8.90695 88.7949 7.80876 88.8219 6.72626C88.8489 5.64376 88.876 4.54558 88.8219 3.46308C88.7949 2.86692 88.2815 2.28645 87.552 1.90993C86.8225 1.45496 85.8497 1.25102 84.877 1.25102ZM84.877 1.39221C85.7957 1.39221 86.6874 1.62754 87.2818 2.00406C87.8762 2.39627 88.1734 2.8983 88.1194 3.38464C88.0383 4.46713 88.0654 5.56532 88.1194 6.64782C88.1464 7.73032 88.2005 8.8285 88.2005 9.911L88.1464 13.1742C88.0924 15.3549 87.9843 17.5199 87.9573 19.7006C87.9303 20.7831 87.9303 21.8812 87.9303 22.9637L87.9843 26.2269C88.0113 28.4076 88.0654 30.5726 88.0654 32.7533C88.0654 33.3024 88.0654 33.8358 88.0383 34.3849C88.0113 34.934 87.9573 35.4674 87.9032 36.0165C87.8492 36.5656 87.8222 37.099 87.8222 37.6481V38.4639C87.8222 38.5423 87.8222 38.5894 87.8222 38.6521C87.8222 38.7149 87.8222 38.7619 87.7952 38.8247C87.7952 38.8875 87.7681 38.9345 87.7411 38.9973L87.7141 39.0757L87.6601 39.1542C87.4169 39.5777 86.8765 39.9543 86.174 40.1582C85.8227 40.268 85.4174 40.3308 85.0391 40.3465H84.877H84.6879H84.3366L83.6341 40.3622C81.7697 40.4092 79.8783 40.4249 78.014 40.4249C76.1496 40.4249 74.2582 40.3778 72.3938 40.3465C70.5295 40.3151 68.6381 40.3151 66.7737 40.3308C66.4051 40.3339 64.0881 40.3797 53.2532 40.4249C52.4156 40.4249 51.5779 40.2367 50.9835 39.8915C50.3621 39.5464 50.0108 39.06 50.0108 38.5737C50.0108 38.0246 50.0108 37.4912 50.0108 36.9421C50.0108 36.393 50.0378 35.8596 50.0378 35.3105C50.0648 34.228 50.0919 33.1298 50.0919 32.0473C50.0919 30.9648 50.0648 29.8666 50.0108 28.7841C50.0108 27.7016 49.9568 26.6191 49.9838 25.5209C49.9838 24.4384 50.0919 23.3403 50.1459 22.2578C50.227 21.1753 50.227 20.0771 50.227 18.9946C50.227 17.9121 50.1999 16.8139 50.1729 15.7314C50.1189 13.5507 50.0378 11.3857 50.0378 9.20503C50.0108 8.12253 50.0378 7.02434 50.0378 5.94184L50.0648 4.31025L50.0919 3.49446C50.0919 3.41602 50.0919 3.36895 50.1189 3.30619C50.1189 3.24344 50.1459 3.18069 50.1459 3.11794C50.1459 3.05518 50.1729 2.99243 50.1999 2.94537L50.227 2.85123L50.281 2.77279C50.5782 2.31783 51.1997 1.9413 51.9292 1.75304C52.3075 1.65891 52.7128 1.59616 53.1181 1.59616H53.2802H53.4693H53.8206H54.5231L60.1433 1.64323L62.9533 1.65892H65.7634C67.6278 1.65892 69.5191 1.65892 71.3835 1.62754C77.2348 1.5783 78.3601 1.39221 84.877 1.39221Z"/>
</mask>
<path d="M84.877 1.25102C79.9664 1.25102 79.398 1.09859 71.4105 1.03138C69.5462 1 67.6548 1 65.7904 1H62.9803L60.1703 1.01569L54.4961 1.04707H53.7936H53.4423H53.2532H53.064C52.5507 1.06276 52.0103 1.1412 51.5509 1.2667C50.6052 1.53341 49.8487 2.01975 49.4974 2.58453L49.4434 2.69435L49.3893 2.80417C49.3623 2.88261 49.3353 2.94536 49.3083 3.0238C49.2813 3.10225 49.2813 3.18069 49.2813 3.24344C49.2813 3.32188 49.2813 3.40032 49.2813 3.46308L49.3083 4.27888L49.3353 5.91047C49.3353 6.99297 49.3623 8.09115 49.3353 9.17365C49.3083 11.3543 49.2272 13.5193 49.2002 15.7C49.1462 16.8139 49.1191 17.9121 49.1191 18.9946C49.1191 20.0771 49.1191 21.1753 49.2002 22.2578C49.2542 23.3403 49.3623 24.4384 49.3623 25.5209C49.3893 26.6191 49.3353 27.7016 49.3083 28.7841C49.2542 29.8666 49.2542 30.9648 49.2272 32.0473C49.2272 33.1298 49.2542 34.228 49.2813 35.3105C49.3083 35.8596 49.3083 36.393 49.3083 36.9421C49.3083 37.4912 49.3083 38.0246 49.3083 38.5737C49.3083 39.1698 49.7136 39.766 50.4431 40.1896C51.1997 40.6289 52.2264 40.8799 53.2532 40.8956C64.0999 40.9409 66.3997 40.9868 66.7467 40.9897C68.611 41.0054 70.5024 41.0054 72.3668 40.974C74.2312 40.9426 76.1226 40.8956 77.9869 40.8956C79.8513 40.8956 81.7427 40.9113 83.6071 40.9583L84.3096 40.974H84.6609H84.85H85.0391C85.5795 40.974 86.1199 40.8956 86.6063 40.7857C87.606 40.5347 88.4166 40.0484 88.8219 39.4522L88.903 39.3424L88.957 39.2326C88.984 39.1542 89.0381 39.0757 89.0381 38.9973C89.0651 38.9188 89.0921 38.8404 89.0921 38.7619C89.0921 38.6835 89.1191 38.6051 89.1191 38.5423V37.7265C89.1191 37.1774 89.0921 36.644 89.0381 36.0949C88.984 35.5458 88.903 35.0124 88.903 34.4633C88.876 33.9142 88.876 33.3808 88.876 32.8317C88.876 30.651 88.93 28.4861 88.957 26.3054L89.0111 23.0422C89.0111 21.9597 89.0111 20.8615 88.984 19.779C88.957 17.5983 88.8489 15.4333 88.7949 13.2526L88.7409 9.98945C88.7138 8.90695 88.7949 7.80876 88.8219 6.72626C88.8489 5.64376 88.876 4.54558 88.8219 3.46308C88.7949 2.86692 88.2815 2.28645 87.552 1.90993C86.8225 1.45496 85.8497 1.25102 84.877 1.25102ZM84.877 1.39221C85.7957 1.39221 86.6874 1.62754 87.2818 2.00406C87.8762 2.39627 88.1734 2.8983 88.1194 3.38464C88.0383 4.46713 88.0654 5.56532 88.1194 6.64782C88.1464 7.73032 88.2005 8.8285 88.2005 9.911L88.1464 13.1742C88.0924 15.3549 87.9843 17.5199 87.9573 19.7006C87.9303 20.7831 87.9303 21.8812 87.9303 22.9637L87.9843 26.2269C88.0113 28.4076 88.0654 30.5726 88.0654 32.7533C88.0654 33.3024 88.0654 33.8358 88.0383 34.3849C88.0113 34.934 87.9573 35.4674 87.9032 36.0165C87.8492 36.5656 87.8222 37.099 87.8222 37.6481V38.4639C87.8222 38.5423 87.8222 38.5894 87.8222 38.6521C87.8222 38.7149 87.8222 38.7619 87.7952 38.8247C87.7952 38.8875 87.7681 38.9345 87.7411 38.9973L87.7141 39.0757L87.6601 39.1542C87.4169 39.5777 86.8765 39.9543 86.174 40.1582C85.8227 40.268 85.4174 40.3308 85.0391 40.3465H84.877H84.6879H84.3366L83.6341 40.3622C81.7697 40.4092 79.8783 40.4249 78.014 40.4249C76.1496 40.4249 74.2582 40.3778 72.3938 40.3465C70.5295 40.3151 68.6381 40.3151 66.7737 40.3308C66.4051 40.3339 64.0881 40.3797 53.2532 40.4249C52.4156 40.4249 51.5779 40.2367 50.9835 39.8915C50.3621 39.5464 50.0108 39.06 50.0108 38.5737C50.0108 38.0246 50.0108 37.4912 50.0108 36.9421C50.0108 36.393 50.0378 35.8596 50.0378 35.3105C50.0648 34.228 50.0919 33.1298 50.0919 32.0473C50.0919 30.9648 50.0648 29.8666 50.0108 28.7841C50.0108 27.7016 49.9568 26.6191 49.9838 25.5209C49.9838 24.4384 50.0919 23.3403 50.1459 22.2578C50.227 21.1753 50.227 20.0771 50.227 18.9946C50.227 17.9121 50.1999 16.8139 50.1729 15.7314C50.1189 13.5507 50.0378 11.3857 50.0378 9.20503C50.0108 8.12253 50.0378 7.02434 50.0378 5.94184L50.0648 4.31025L50.0919 3.49446C50.0919 3.41602 50.0919 3.36895 50.1189 3.30619C50.1189 3.24344 50.1459 3.18069 50.1459 3.11794C50.1459 3.05518 50.1729 2.99243 50.1999 2.94537L50.227 2.85123L50.281 2.77279C50.5782 2.31783 51.1997 1.9413 51.9292 1.75304C52.3075 1.65891 52.7128 1.59616 53.1181 1.59616H53.2802H53.4693H53.8206H54.5231L60.1433 1.64323L62.9533 1.65892H65.7634C67.6278 1.65892 69.5191 1.65892 71.3835 1.62754C77.2348 1.5783 78.3601 1.39221 84.877 1.39221Z" fill="#1F180F"/>
<path d="M84.877 1.25102C79.9664 1.25102 79.398 1.09859 71.4105 1.03138C69.5462 1 67.6548 1 65.7904 1H62.9803L60.1703 1.01569L54.4961 1.04707H53.7936H53.4423H53.2532H53.064C52.5507 1.06276 52.0103 1.1412 51.5509 1.2667C50.6052 1.53341 49.8487 2.01975 49.4974 2.58453L49.4434 2.69435L49.3893 2.80417C49.3623 2.88261 49.3353 2.94536 49.3083 3.0238C49.2813 3.10225 49.2813 3.18069 49.2813 3.24344C49.2813 3.32188 49.2813 3.40032 49.2813 3.46308L49.3083 4.27888L49.3353 5.91047C49.3353 6.99297 49.3623 8.09115 49.3353 9.17365C49.3083 11.3543 49.2272 13.5193 49.2002 15.7C49.1462 16.8139 49.1191 17.9121 49.1191 18.9946C49.1191 20.0771 49.1191 21.1753 49.2002 22.2578C49.2542 23.3403 49.3623 24.4384 49.3623 25.5209C49.3893 26.6191 49.3353 27.7016 49.3083 28.7841C49.2542 29.8666 49.2542 30.9648 49.2272 32.0473C49.2272 33.1298 49.2542 34.228 49.2813 35.3105C49.3083 35.8596 49.3083 36.393 49.3083 36.9421C49.3083 37.4912 49.3083 38.0246 49.3083 38.5737C49.3083 39.1698 49.7136 39.766 50.4431 40.1896C51.1997 40.6289 52.2264 40.8799 53.2532 40.8956C64.0999 40.9409 66.3997 40.9868 66.7467 40.9897C68.611 41.0054 70.5024 41.0054 72.3668 40.974C74.2312 40.9426 76.1226 40.8956 77.9869 40.8956C79.8513 40.8956 81.7427 40.9113 83.6071 40.9583L84.3096 40.974H84.6609H84.85H85.0391C85.5795 40.974 86.1199 40.8956 86.6063 40.7857C87.606 40.5347 88.4166 40.0484 88.8219 39.4522L88.903 39.3424L88.957 39.2326C88.984 39.1542 89.0381 39.0757 89.0381 38.9973C89.0651 38.9188 89.0921 38.8404 89.0921 38.7619C89.0921 38.6835 89.1191 38.6051 89.1191 38.5423V37.7265C89.1191 37.1774 89.0921 36.644 89.0381 36.0949C88.984 35.5458 88.903 35.0124 88.903 34.4633C88.876 33.9142 88.876 33.3808 88.876 32.8317C88.876 30.651 88.93 28.4861 88.957 26.3054L89.0111 23.0422C89.0111 21.9597 89.0111 20.8615 88.984 19.779C88.957 17.5983 88.8489 15.4333 88.7949 13.2526L88.7409 9.98945C88.7138 8.90695 88.7949 7.80876 88.8219 6.72626C88.8489 5.64376 88.876 4.54558 88.8219 3.46308C88.7949 2.86692 88.2815 2.28645 87.552 1.90993C86.8225 1.45496 85.8497 1.25102 84.877 1.25102ZM84.877 1.39221C85.7957 1.39221 86.6874 1.62754 87.2818 2.00406C87.8762 2.39627 88.1734 2.8983 88.1194 3.38464C88.0383 4.46713 88.0654 5.56532 88.1194 6.64782C88.1464 7.73032 88.2005 8.8285 88.2005 9.911L88.1464 13.1742C88.0924 15.3549 87.9843 17.5199 87.9573 19.7006C87.9303 20.7831 87.9303 21.8812 87.9303 22.9637L87.9843 26.2269C88.0113 28.4076 88.0654 30.5726 88.0654 32.7533C88.0654 33.3024 88.0654 33.8358 88.0383 34.3849C88.0113 34.934 87.9573 35.4674 87.9032 36.0165C87.8492 36.5656 87.8222 37.099 87.8222 37.6481V38.4639C87.8222 38.5423 87.8222 38.5894 87.8222 38.6521C87.8222 38.7149 87.8222 38.7619 87.7952 38.8247C87.7952 38.8875 87.7681 38.9345 87.7411 38.9973L87.7141 39.0757L87.6601 39.1542C87.4169 39.5777 86.8765 39.9543 86.174 40.1582C85.8227 40.268 85.4174 40.3308 85.0391 40.3465H84.877H84.6879H84.3366L83.6341 40.3622C81.7697 40.4092 79.8783 40.4249 78.014 40.4249C76.1496 40.4249 74.2582 40.3778 72.3938 40.3465C70.5295 40.3151 68.6381 40.3151 66.7737 40.3308C66.4051 40.3339 64.0881 40.3797 53.2532 40.4249C52.4156 40.4249 51.5779 40.2367 50.9835 39.8915C50.3621 39.5464 50.0108 39.06 50.0108 38.5737C50.0108 38.0246 50.0108 37.4912 50.0108 36.9421C50.0108 36.393 50.0378 35.8596 50.0378 35.3105C50.0648 34.228 50.0919 33.1298 50.0919 32.0473C50.0919 30.9648 50.0648 29.8666 50.0108 28.7841C50.0108 27.7016 49.9568 26.6191 49.9838 25.5209C49.9838 24.4384 50.0919 23.3403 50.1459 22.2578C50.227 21.1753 50.227 20.0771 50.227 18.9946C50.227 17.9121 50.1999 16.8139 50.1729 15.7314C50.1189 13.5507 50.0378 11.3857 50.0378 9.20503C50.0108 8.12253 50.0378 7.02434 50.0378 5.94184L50.0648 4.31025L50.0919 3.49446C50.0919 3.41602 50.0919 3.36895 50.1189 3.30619C50.1189 3.24344 50.1459 3.18069 50.1459 3.11794C50.1459 3.05518 50.1729 2.99243 50.1999 2.94537L50.227 2.85123L50.281 2.77279C50.5782 2.31783 51.1997 1.9413 51.9292 1.75304C52.3075 1.65891 52.7128 1.59616 53.1181 1.59616H53.2802H53.4693H53.8206H54.5231L60.1433 1.64323L62.9533 1.65892H65.7634C67.6278 1.65892 69.5191 1.65892 71.3835 1.62754C77.2348 1.5783 78.3601 1.39221 84.877 1.39221Z" stroke="black" mask="url(#path-3-outside-2)"/>
</g>
<path opacity="0.3" d="M68.3322 16.9579C70.181 18.1538 73.7129 21.1222 73.7129 21.3437C73.7129 21.5938 72.2136 22.2592 70.7129 23.3438C69.7262 24.0569 69.0344 24.8505 68.455 25.2786C68.0716 25.5618 67.6578 25.2574 67.6255 24.7818C67.4989 22.9185 67.4924 18.9259 67.606 17.2992C67.6359 16.8697 67.9708 16.7241 68.3322 16.9579Z" fill="#1F180F"/>
</svg>
