<svg width="130" height="86" viewBox="0 0 130 86" fill="none" xmlns="http://www.w3.org/2000/svg">
<g opacity="0.3">
<mask id="path-1-outside-1" maskUnits="userSpaceOnUse" x="-8.74228e-08" y="44" width="42" height="42" fill="black">
<rect fill="white" x="-8.74228e-08" y="44" width="42" height="42"/>
<path d="M5.24211 45.251C10.1527 45.251 10.7212 45.0986 18.7086 45.0314C20.573 45 22.4644 45 24.3287 45L27.1388 45L29.9489 45.0157L35.623 45.0471L36.3256 45.0471L36.6768 45.0471L36.866 45.0471L37.0551 45.0471C37.5685 45.0628 38.1089 45.1412 38.5682 45.2667C39.5139 45.5334 40.2705 46.0198 40.6217 46.5845L40.6758 46.6944L40.7298 46.8042C40.7568 46.8826 40.7838 46.9454 40.8109 47.0238C40.8379 47.1023 40.8379 47.1807 40.8379 47.2434C40.8379 47.3219 40.8379 47.4003 40.8379 47.4631L40.8109 48.2789L40.7838 49.9105C40.7838 50.993 40.7568 52.0912 40.7838 53.1737C40.8109 55.3543 40.8919 57.5193 40.9189 59.7C40.973 60.8139 41 61.9121 41 62.9946C41 64.0771 41 65.1753 40.9189 66.2578C40.8649 67.3403 40.7568 68.4385 40.7568 69.521C40.7298 70.6191 40.7838 71.7016 40.8109 72.7841C40.8649 73.8666 40.8649 74.9648 40.8919 76.0473C40.8919 77.1298 40.8649 78.228 40.8379 79.3105C40.8109 79.8596 40.8109 80.393 40.8109 80.9421C40.8109 81.4912 40.8109 82.0246 40.8109 82.5737C40.8109 83.1698 40.4056 83.766 39.676 84.1896C38.9195 84.6289 37.8927 84.8799 36.866 84.8956C26.0192 84.9409 23.7195 84.9868 23.3725 84.9897C21.5081 85.0054 19.6167 85.0054 17.7523 84.974C15.8879 84.9426 13.9966 84.8956 12.1322 84.8956C10.2678 84.8956 8.37641 84.9113 6.51204 84.9583L5.80951 84.974L5.45826 84.974L5.26911 84.974L5.07998 84.974C4.53958 84.974 3.99918 84.8956 3.51282 84.7857C2.51308 84.5347 1.7025 84.0484 1.2972 83.4522L1.21613 83.3424L1.1621 83.2326C1.13508 83.1542 1.08103 83.0757 1.08103 82.9973C1.05401 82.9188 1.027 82.8404 1.027 82.7619C1.027 82.6835 0.999972 82.6051 0.999972 82.5423L0.999972 81.7265C0.999972 81.1774 1.02699 80.644 1.08103 80.0949C1.13507 79.5458 1.21613 79.0124 1.21613 78.4633C1.24315 77.9142 1.24316 77.3808 1.24316 76.8317C1.24316 74.651 1.18912 72.4861 1.1621 70.3054L1.10805 67.0422C1.10805 65.9597 1.10806 64.8615 1.13508 63.779C1.1621 61.5983 1.27018 59.4333 1.32422 57.2526L1.37826 53.9894C1.40528 52.9069 1.32422 51.8088 1.2972 50.7263C1.27018 49.6438 1.24316 48.5456 1.2972 47.4631C1.32422 46.8669 1.83759 46.2864 2.56713 45.9099C3.29666 45.455 4.26939 45.251 5.24211 45.251ZM5.24211 45.3922C4.32343 45.3922 3.43177 45.6275 2.83733 46.0041C2.24289 46.3963 1.94568 46.8983 1.99972 47.3846C2.08078 48.4671 2.05376 49.5653 1.99972 50.6478C1.9727 51.7303 1.91866 52.8285 1.91866 53.911L1.9727 57.1742C2.02674 59.3549 2.13481 61.5199 2.16183 63.7006C2.18885 64.7831 2.18885 65.8812 2.18885 66.9637L2.13482 70.2269C2.1078 72.4076 2.05375 74.5726 2.05375 76.7533C2.05375 77.3024 2.05376 77.8358 2.08078 78.3849C2.1078 78.934 2.16183 79.4674 2.21587 80.0165C2.26991 80.5656 2.29693 81.099 2.29693 81.6481L2.29693 82.4639C2.29693 82.5423 2.29693 82.5894 2.29693 82.6521C2.29693 82.7149 2.29693 82.7619 2.32395 82.8247C2.32395 82.8874 2.35097 82.9345 2.37799 82.9973L2.40502 83.0757L2.45904 83.1542C2.70222 83.5777 3.24263 83.9543 3.94514 84.1582C4.2964 84.268 4.7017 84.3308 5.07998 84.3465L5.2421 84.3465L5.43123 84.3465L5.7825 84.3465L6.48501 84.3622C8.34938 84.4092 10.2408 84.4249 12.1052 84.4249C13.9695 84.4249 15.8609 84.3778 17.7253 84.3465C19.5897 84.3151 21.4811 84.3151 23.3454 84.3308C23.714 84.3339 26.031 84.3797 36.866 84.4249C37.7036 84.4249 38.5412 84.2367 39.1356 83.8915C39.7571 83.5464 40.1083 83.06 40.1083 82.5737C40.1083 82.0246 40.1083 81.4912 40.1083 80.9421C40.1083 80.393 40.0813 79.8596 40.0813 79.3105C40.0543 78.228 40.0273 77.1298 40.0273 76.0473C40.0273 74.9648 40.0543 73.8666 40.1083 72.7841C40.1083 71.7016 40.1624 70.6191 40.1354 69.521C40.1354 68.4385 40.0273 67.3403 39.9732 66.2578C39.8922 65.1753 39.8922 64.0771 39.8922 62.9946C39.8922 61.9121 39.9192 60.8139 39.9462 59.7314C40.0003 57.5507 40.0813 55.3857 40.0813 53.205C40.1083 52.1225 40.0813 51.0243 40.0813 49.9418L40.0543 48.3103L40.0273 47.4945C40.0273 47.416 40.0273 47.369 40.0003 47.3062C40.0003 47.2434 39.9732 47.1807 39.9732 47.1179C39.9732 47.0552 39.9462 46.9924 39.9192 46.9454L39.8922 46.8512L39.8381 46.7728C39.5409 46.3178 38.9195 45.9413 38.1899 45.753C37.8117 45.6589 37.4064 45.5962 37.0011 45.5962L36.8389 45.5962L36.6498 45.5962L36.2985 45.5962L35.596 45.5962L29.9759 45.6432L27.1658 45.6589L24.3557 45.6589C22.4914 45.6589 20.6 45.6589 18.7356 45.6275C12.8844 45.5783 11.759 45.3922 5.24211 45.3922Z"/>
</mask>
<path d="M5.24211 45.251C10.1527 45.251 10.7212 45.0986 18.7086 45.0314C20.573 45 22.4644 45 24.3287 45L27.1388 45L29.9489 45.0157L35.623 45.0471L36.3256 45.0471L36.6768 45.0471L36.866 45.0471L37.0551 45.0471C37.5685 45.0628 38.1089 45.1412 38.5682 45.2667C39.5139 45.5334 40.2705 46.0198 40.6217 46.5845L40.6758 46.6944L40.7298 46.8042C40.7568 46.8826 40.7838 46.9454 40.8109 47.0238C40.8379 47.1023 40.8379 47.1807 40.8379 47.2434C40.8379 47.3219 40.8379 47.4003 40.8379 47.4631L40.8109 48.2789L40.7838 49.9105C40.7838 50.993 40.7568 52.0912 40.7838 53.1737C40.8109 55.3543 40.8919 57.5193 40.9189 59.7C40.973 60.8139 41 61.9121 41 62.9946C41 64.0771 41 65.1753 40.9189 66.2578C40.8649 67.3403 40.7568 68.4385 40.7568 69.521C40.7298 70.6191 40.7838 71.7016 40.8109 72.7841C40.8649 73.8666 40.8649 74.9648 40.8919 76.0473C40.8919 77.1298 40.8649 78.228 40.8379 79.3105C40.8109 79.8596 40.8109 80.393 40.8109 80.9421C40.8109 81.4912 40.8109 82.0246 40.8109 82.5737C40.8109 83.1698 40.4056 83.766 39.676 84.1896C38.9195 84.6289 37.8927 84.8799 36.866 84.8956C26.0192 84.9409 23.7195 84.9868 23.3725 84.9897C21.5081 85.0054 19.6167 85.0054 17.7523 84.974C15.8879 84.9426 13.9966 84.8956 12.1322 84.8956C10.2678 84.8956 8.37641 84.9113 6.51204 84.9583L5.80951 84.974L5.45826 84.974L5.26911 84.974L5.07998 84.974C4.53958 84.974 3.99918 84.8956 3.51282 84.7857C2.51308 84.5347 1.7025 84.0484 1.2972 83.4522L1.21613 83.3424L1.1621 83.2326C1.13508 83.1542 1.08103 83.0757 1.08103 82.9973C1.05401 82.9188 1.027 82.8404 1.027 82.7619C1.027 82.6835 0.999972 82.6051 0.999972 82.5423L0.999972 81.7265C0.999972 81.1774 1.02699 80.644 1.08103 80.0949C1.13507 79.5458 1.21613 79.0124 1.21613 78.4633C1.24315 77.9142 1.24316 77.3808 1.24316 76.8317C1.24316 74.651 1.18912 72.4861 1.1621 70.3054L1.10805 67.0422C1.10805 65.9597 1.10806 64.8615 1.13508 63.779C1.1621 61.5983 1.27018 59.4333 1.32422 57.2526L1.37826 53.9894C1.40528 52.9069 1.32422 51.8088 1.2972 50.7263C1.27018 49.6438 1.24316 48.5456 1.2972 47.4631C1.32422 46.8669 1.83759 46.2864 2.56713 45.9099C3.29666 45.455 4.26939 45.251 5.24211 45.251ZM5.24211 45.3922C4.32343 45.3922 3.43177 45.6275 2.83733 46.0041C2.24289 46.3963 1.94568 46.8983 1.99972 47.3846C2.08078 48.4671 2.05376 49.5653 1.99972 50.6478C1.9727 51.7303 1.91866 52.8285 1.91866 53.911L1.9727 57.1742C2.02674 59.3549 2.13481 61.5199 2.16183 63.7006C2.18885 64.7831 2.18885 65.8812 2.18885 66.9637L2.13482 70.2269C2.1078 72.4076 2.05375 74.5726 2.05375 76.7533C2.05375 77.3024 2.05376 77.8358 2.08078 78.3849C2.1078 78.934 2.16183 79.4674 2.21587 80.0165C2.26991 80.5656 2.29693 81.099 2.29693 81.6481L2.29693 82.4639C2.29693 82.5423 2.29693 82.5894 2.29693 82.6521C2.29693 82.7149 2.29693 82.7619 2.32395 82.8247C2.32395 82.8874 2.35097 82.9345 2.37799 82.9973L2.40502 83.0757L2.45904 83.1542C2.70222 83.5777 3.24263 83.9543 3.94514 84.1582C4.2964 84.268 4.7017 84.3308 5.07998 84.3465L5.2421 84.3465L5.43123 84.3465L5.7825 84.3465L6.48501 84.3622C8.34938 84.4092 10.2408 84.4249 12.1052 84.4249C13.9695 84.4249 15.8609 84.3778 17.7253 84.3465C19.5897 84.3151 21.4811 84.3151 23.3454 84.3308C23.714 84.3339 26.031 84.3797 36.866 84.4249C37.7036 84.4249 38.5412 84.2367 39.1356 83.8915C39.7571 83.5464 40.1083 83.06 40.1083 82.5737C40.1083 82.0246 40.1083 81.4912 40.1083 80.9421C40.1083 80.393 40.0813 79.8596 40.0813 79.3105C40.0543 78.228 40.0273 77.1298 40.0273 76.0473C40.0273 74.9648 40.0543 73.8666 40.1083 72.7841C40.1083 71.7016 40.1624 70.6191 40.1354 69.521C40.1354 68.4385 40.0273 67.3403 39.9732 66.2578C39.8922 65.1753 39.8922 64.0771 39.8922 62.9946C39.8922 61.9121 39.9192 60.8139 39.9462 59.7314C40.0003 57.5507 40.0813 55.3857 40.0813 53.205C40.1083 52.1225 40.0813 51.0243 40.0813 49.9418L40.0543 48.3103L40.0273 47.4945C40.0273 47.416 40.0273 47.369 40.0003 47.3062C40.0003 47.2434 39.9732 47.1807 39.9732 47.1179C39.9732 47.0552 39.9462 46.9924 39.9192 46.9454L39.8922 46.8512L39.8381 46.7728C39.5409 46.3178 38.9195 45.9413 38.1899 45.753C37.8117 45.6589 37.4064 45.5962 37.0011 45.5962L36.8389 45.5962L36.6498 45.5962L36.2985 45.5962L35.596 45.5962L29.9759 45.6432L27.1658 45.6589L24.3557 45.6589C22.4914 45.6589 20.6 45.6589 18.7356 45.6275C12.8844 45.5783 11.759 45.3922 5.24211 45.3922Z" fill="#1F180F"/>
<path d="M5.24211 45.251C10.1527 45.251 10.7212 45.0986 18.7086 45.0314C20.573 45 22.4644 45 24.3287 45L27.1388 45L29.9489 45.0157L35.623 45.0471L36.3256 45.0471L36.6768 45.0471L36.866 45.0471L37.0551 45.0471C37.5685 45.0628 38.1089 45.1412 38.5682 45.2667C39.5139 45.5334 40.2705 46.0198 40.6217 46.5845L40.6758 46.6944L40.7298 46.8042C40.7568 46.8826 40.7838 46.9454 40.8109 47.0238C40.8379 47.1023 40.8379 47.1807 40.8379 47.2434C40.8379 47.3219 40.8379 47.4003 40.8379 47.4631L40.8109 48.2789L40.7838 49.9105C40.7838 50.993 40.7568 52.0912 40.7838 53.1737C40.8109 55.3543 40.8919 57.5193 40.9189 59.7C40.973 60.8139 41 61.9121 41 62.9946C41 64.0771 41 65.1753 40.9189 66.2578C40.8649 67.3403 40.7568 68.4385 40.7568 69.521C40.7298 70.6191 40.7838 71.7016 40.8109 72.7841C40.8649 73.8666 40.8649 74.9648 40.8919 76.0473C40.8919 77.1298 40.8649 78.228 40.8379 79.3105C40.8109 79.8596 40.8109 80.393 40.8109 80.9421C40.8109 81.4912 40.8109 82.0246 40.8109 82.5737C40.8109 83.1698 40.4056 83.766 39.676 84.1896C38.9195 84.6289 37.8927 84.8799 36.866 84.8956C26.0192 84.9409 23.7195 84.9868 23.3725 84.9897C21.5081 85.0054 19.6167 85.0054 17.7523 84.974C15.8879 84.9426 13.9966 84.8956 12.1322 84.8956C10.2678 84.8956 8.37641 84.9113 6.51204 84.9583L5.80951 84.974L5.45826 84.974L5.26911 84.974L5.07998 84.974C4.53958 84.974 3.99918 84.8956 3.51282 84.7857C2.51308 84.5347 1.7025 84.0484 1.2972 83.4522L1.21613 83.3424L1.1621 83.2326C1.13508 83.1542 1.08103 83.0757 1.08103 82.9973C1.05401 82.9188 1.027 82.8404 1.027 82.7619C1.027 82.6835 0.999972 82.6051 0.999972 82.5423L0.999972 81.7265C0.999972 81.1774 1.02699 80.644 1.08103 80.0949C1.13507 79.5458 1.21613 79.0124 1.21613 78.4633C1.24315 77.9142 1.24316 77.3808 1.24316 76.8317C1.24316 74.651 1.18912 72.4861 1.1621 70.3054L1.10805 67.0422C1.10805 65.9597 1.10806 64.8615 1.13508 63.779C1.1621 61.5983 1.27018 59.4333 1.32422 57.2526L1.37826 53.9894C1.40528 52.9069 1.32422 51.8088 1.2972 50.7263C1.27018 49.6438 1.24316 48.5456 1.2972 47.4631C1.32422 46.8669 1.83759 46.2864 2.56713 45.9099C3.29666 45.455 4.26939 45.251 5.24211 45.251ZM5.24211 45.3922C4.32343 45.3922 3.43177 45.6275 2.83733 46.0041C2.24289 46.3963 1.94568 46.8983 1.99972 47.3846C2.08078 48.4671 2.05376 49.5653 1.99972 50.6478C1.9727 51.7303 1.91866 52.8285 1.91866 53.911L1.9727 57.1742C2.02674 59.3549 2.13481 61.5199 2.16183 63.7006C2.18885 64.7831 2.18885 65.8812 2.18885 66.9637L2.13482 70.2269C2.1078 72.4076 2.05375 74.5726 2.05375 76.7533C2.05375 77.3024 2.05376 77.8358 2.08078 78.3849C2.1078 78.934 2.16183 79.4674 2.21587 80.0165C2.26991 80.5656 2.29693 81.099 2.29693 81.6481L2.29693 82.4639C2.29693 82.5423 2.29693 82.5894 2.29693 82.6521C2.29693 82.7149 2.29693 82.7619 2.32395 82.8247C2.32395 82.8874 2.35097 82.9345 2.37799 82.9973L2.40502 83.0757L2.45904 83.1542C2.70222 83.5777 3.24263 83.9543 3.94514 84.1582C4.2964 84.268 4.7017 84.3308 5.07998 84.3465L5.2421 84.3465L5.43123 84.3465L5.7825 84.3465L6.48501 84.3622C8.34938 84.4092 10.2408 84.4249 12.1052 84.4249C13.9695 84.4249 15.8609 84.3778 17.7253 84.3465C19.5897 84.3151 21.4811 84.3151 23.3454 84.3308C23.714 84.3339 26.031 84.3797 36.866 84.4249C37.7036 84.4249 38.5412 84.2367 39.1356 83.8915C39.7571 83.5464 40.1083 83.06 40.1083 82.5737C40.1083 82.0246 40.1083 81.4912 40.1083 80.9421C40.1083 80.393 40.0813 79.8596 40.0813 79.3105C40.0543 78.228 40.0273 77.1298 40.0273 76.0473C40.0273 74.9648 40.0543 73.8666 40.1083 72.7841C40.1083 71.7016 40.1624 70.6191 40.1354 69.521C40.1354 68.4385 40.0273 67.3403 39.9732 66.2578C39.8922 65.1753 39.8922 64.0771 39.8922 62.9946C39.8922 61.9121 39.9192 60.8139 39.9462 59.7314C40.0003 57.5507 40.0813 55.3857 40.0813 53.205C40.1083 52.1225 40.0813 51.0243 40.0813 49.9418L40.0543 48.3103L40.0273 47.4945C40.0273 47.416 40.0273 47.369 40.0003 47.3062C40.0003 47.2434 39.9732 47.1807 39.9732 47.1179C39.9732 47.0552 39.9462 46.9924 39.9192 46.9454L39.8922 46.8512L39.8381 46.7728C39.5409 46.3178 38.9195 45.9413 38.1899 45.753C37.8117 45.6589 37.4064 45.5962 37.0011 45.5962L36.8389 45.5962L36.6498 45.5962L36.2985 45.5962L35.596 45.5962L29.9759 45.6432L27.1658 45.6589L24.3557 45.6589C22.4914 45.6589 20.6 45.6589 18.7356 45.6275C12.8844 45.5783 11.759 45.3922 5.24211 45.3922Z" stroke="black" mask="url(#path-1-outside-1)"/>
</g>
<g opacity="0.3">
<mask id="path-2-outside-2" maskUnits="userSpaceOnUse" x="44" y="0" width="42" height="42" fill="black">
<rect fill="white" x="44" width="42" height="42"/>
<path d="M80.7579 40.749C75.8473 40.749 75.2789 40.9014 67.2914 40.9686C65.427 41 63.5356 41 61.6713 41H58.8612L56.0511 40.9843L50.377 40.9529H49.6744H49.3232H49.134H48.9449C48.4315 40.9372 47.8911 40.8588 47.4318 40.7333C46.4861 40.4666 45.7295 39.9802 45.3783 39.4155L45.3242 39.3057L45.2702 39.1958C45.2432 39.1174 45.2162 39.0546 45.1891 38.9762C45.1621 38.8978 45.1621 38.8193 45.1621 38.7566C45.1621 38.6781 45.1621 38.5997 45.1621 38.5369L45.1891 37.7211L45.2162 36.0895C45.2162 35.007 45.2432 33.9088 45.2162 32.8263C45.1891 30.6457 45.1081 28.4807 45.0811 26.3C45.027 25.1861 45 24.0879 45 23.0054C45 21.9229 45 20.8247 45.0811 19.7422C45.1351 18.6597 45.2432 17.5616 45.2432 16.4791C45.2702 15.3809 45.2162 14.2984 45.1891 13.2159C45.1351 12.1334 45.1351 11.0352 45.1081 9.95268C45.1081 8.87019 45.1351 7.772 45.1621 6.6895C45.1891 6.14041 45.1891 5.607 45.1891 5.05791C45.1891 4.50882 45.1891 3.97541 45.1891 3.42632C45.1891 2.83016 45.5944 2.234 46.324 1.81041C47.0805 1.37114 48.1073 1.12012 49.134 1.10444C59.9808 1.05913 62.2805 1.0132 62.6275 1.0103C64.4919 0.994617 66.3833 0.994617 68.2477 1.02599C70.1121 1.05737 72.0034 1.10444 73.8678 1.10444C75.7322 1.10444 77.6236 1.08875 79.488 1.04168L80.1905 1.02599H80.5417H80.7309H80.92C81.4604 1.02599 82.0008 1.10444 82.4872 1.21425C83.4869 1.46527 84.2975 1.95161 84.7028 2.54777L84.7839 2.65759L84.8379 2.7674C84.8649 2.84585 84.919 2.92429 84.919 3.00273C84.946 3.08117 84.973 3.15961 84.973 3.23806C84.973 3.3165 85 3.39494 85 3.45769V4.27349C85 4.82258 84.973 5.35599 84.919 5.90508C84.8649 6.45417 84.7839 6.98758 84.7839 7.53667C84.7568 8.08577 84.7568 8.61917 84.7568 9.16827C84.7568 11.349 84.8109 13.5139 84.8379 15.6946L84.892 18.9578C84.892 20.0403 84.8919 21.1385 84.8649 22.221C84.8379 24.4017 84.7298 26.5667 84.6758 28.7474L84.6217 32.0106C84.5947 33.0931 84.6758 34.1912 84.7028 35.2737C84.7298 36.3562 84.7568 37.4544 84.7028 38.5369C84.6758 39.1331 84.1624 39.7136 83.4329 40.0901C82.7033 40.545 81.7306 40.749 80.7579 40.749ZM80.7579 40.6078C81.6766 40.6078 82.5682 40.3725 83.1627 39.9959C83.7571 39.6037 84.0543 39.1017 84.0003 38.6154C83.9192 37.5329 83.9462 36.4347 84.0003 35.3522C84.0273 34.2697 84.0813 33.1715 84.0813 32.089L84.0273 28.8258C83.9733 26.6451 83.8652 24.4801 83.8382 22.2994C83.8112 21.2169 83.8111 20.1188 83.8111 19.0363L83.8652 15.7731C83.8922 13.5924 83.9463 11.4274 83.9463 9.24671C83.9463 8.69761 83.9462 8.16421 83.9192 7.61512C83.8922 7.06602 83.8382 6.53262 83.7841 5.98352C83.7301 5.43443 83.7031 4.90102 83.7031 4.35193V3.53613C83.7031 3.45769 83.7031 3.41063 83.7031 3.34787C83.7031 3.28512 83.7031 3.23806 83.676 3.1753C83.676 3.11255 83.649 3.06548 83.622 3.00273L83.595 2.92429L83.541 2.84585C83.2978 2.42226 82.7574 2.04574 82.0549 1.84179C81.7036 1.73197 81.2983 1.66922 80.92 1.65353H80.7579H80.5688H80.2175L79.515 1.63784C77.6506 1.59078 75.7592 1.57509 73.8948 1.57509C72.0305 1.57509 70.1391 1.62215 68.2747 1.65353C66.4103 1.68491 64.5189 1.68491 62.6546 1.66922C62.286 1.66614 59.969 1.62035 49.134 1.57509C48.2964 1.57509 47.4588 1.76335 46.8644 2.10849C46.2429 2.45364 45.8917 2.93998 45.8917 3.42632C45.8917 3.97541 45.8917 4.50882 45.8917 5.05791C45.8917 5.607 45.9187 6.14041 45.9187 6.6895C45.9457 7.772 45.9727 8.87019 45.9727 9.95268C45.9727 11.0352 45.9457 12.1334 45.8917 13.2159C45.8917 14.2984 45.8376 15.3809 45.8646 16.4791C45.8646 17.5616 45.9727 18.6597 46.0268 19.7422C46.1078 20.8247 46.1078 21.9229 46.1078 23.0054C46.1078 24.0879 46.0808 25.1861 46.0538 26.2686C45.9997 28.4493 45.9187 30.6143 45.9187 32.795C45.8917 33.8775 45.9187 34.9757 45.9187 36.0582L45.9457 37.6897L45.9727 38.5055C45.9727 38.584 45.9727 38.6311 45.9997 38.6938C45.9997 38.7566 46.0268 38.8193 46.0268 38.8821C46.0268 38.9448 46.0538 39.0076 46.0808 39.0546L46.1078 39.1488L46.1619 39.2272C46.4591 39.6822 47.0805 40.0587 47.8101 40.247C48.1883 40.3411 48.5936 40.4038 48.9989 40.4038H49.1611H49.3502H49.7015H50.404L56.0241 40.3568L58.8342 40.3411H61.6443C63.5086 40.3411 65.4 40.3411 67.2644 40.3725C73.1156 40.4217 74.241 40.6078 80.7579 40.6078Z"/>
</mask>
<path d="M80.7579 40.749C75.8473 40.749 75.2789 40.9014 67.2914 40.9686C65.427 41 63.5356 41 61.6713 41H58.8612L56.0511 40.9843L50.377 40.9529H49.6744H49.3232H49.134H48.9449C48.4315 40.9372 47.8911 40.8588 47.4318 40.7333C46.4861 40.4666 45.7295 39.9802 45.3783 39.4155L45.3242 39.3057L45.2702 39.1958C45.2432 39.1174 45.2162 39.0546 45.1891 38.9762C45.1621 38.8978 45.1621 38.8193 45.1621 38.7566C45.1621 38.6781 45.1621 38.5997 45.1621 38.5369L45.1891 37.7211L45.2162 36.0895C45.2162 35.007 45.2432 33.9088 45.2162 32.8263C45.1891 30.6457 45.1081 28.4807 45.0811 26.3C45.027 25.1861 45 24.0879 45 23.0054C45 21.9229 45 20.8247 45.0811 19.7422C45.1351 18.6597 45.2432 17.5616 45.2432 16.4791C45.2702 15.3809 45.2162 14.2984 45.1891 13.2159C45.1351 12.1334 45.1351 11.0352 45.1081 9.95268C45.1081 8.87019 45.1351 7.772 45.1621 6.6895C45.1891 6.14041 45.1891 5.607 45.1891 5.05791C45.1891 4.50882 45.1891 3.97541 45.1891 3.42632C45.1891 2.83016 45.5944 2.234 46.324 1.81041C47.0805 1.37114 48.1073 1.12012 49.134 1.10444C59.9808 1.05913 62.2805 1.0132 62.6275 1.0103C64.4919 0.994617 66.3833 0.994617 68.2477 1.02599C70.1121 1.05737 72.0034 1.10444 73.8678 1.10444C75.7322 1.10444 77.6236 1.08875 79.488 1.04168L80.1905 1.02599H80.5417H80.7309H80.92C81.4604 1.02599 82.0008 1.10444 82.4872 1.21425C83.4869 1.46527 84.2975 1.95161 84.7028 2.54777L84.7839 2.65759L84.8379 2.7674C84.8649 2.84585 84.919 2.92429 84.919 3.00273C84.946 3.08117 84.973 3.15961 84.973 3.23806C84.973 3.3165 85 3.39494 85 3.45769V4.27349C85 4.82258 84.973 5.35599 84.919 5.90508C84.8649 6.45417 84.7839 6.98758 84.7839 7.53667C84.7568 8.08577 84.7568 8.61917 84.7568 9.16827C84.7568 11.349 84.8109 13.5139 84.8379 15.6946L84.892 18.9578C84.892 20.0403 84.8919 21.1385 84.8649 22.221C84.8379 24.4017 84.7298 26.5667 84.6758 28.7474L84.6217 32.0106C84.5947 33.0931 84.6758 34.1912 84.7028 35.2737C84.7298 36.3562 84.7568 37.4544 84.7028 38.5369C84.6758 39.1331 84.1624 39.7136 83.4329 40.0901C82.7033 40.545 81.7306 40.749 80.7579 40.749ZM80.7579 40.6078C81.6766 40.6078 82.5682 40.3725 83.1627 39.9959C83.7571 39.6037 84.0543 39.1017 84.0003 38.6154C83.9192 37.5329 83.9462 36.4347 84.0003 35.3522C84.0273 34.2697 84.0813 33.1715 84.0813 32.089L84.0273 28.8258C83.9733 26.6451 83.8652 24.4801 83.8382 22.2994C83.8112 21.2169 83.8111 20.1188 83.8111 19.0363L83.8652 15.7731C83.8922 13.5924 83.9463 11.4274 83.9463 9.24671C83.9463 8.69761 83.9462 8.16421 83.9192 7.61512C83.8922 7.06602 83.8382 6.53262 83.7841 5.98352C83.7301 5.43443 83.7031 4.90102 83.7031 4.35193V3.53613C83.7031 3.45769 83.7031 3.41063 83.7031 3.34787C83.7031 3.28512 83.7031 3.23806 83.676 3.1753C83.676 3.11255 83.649 3.06548 83.622 3.00273L83.595 2.92429L83.541 2.84585C83.2978 2.42226 82.7574 2.04574 82.0549 1.84179C81.7036 1.73197 81.2983 1.66922 80.92 1.65353H80.7579H80.5688H80.2175L79.515 1.63784C77.6506 1.59078 75.7592 1.57509 73.8948 1.57509C72.0305 1.57509 70.1391 1.62215 68.2747 1.65353C66.4103 1.68491 64.5189 1.68491 62.6546 1.66922C62.286 1.66614 59.969 1.62035 49.134 1.57509C48.2964 1.57509 47.4588 1.76335 46.8644 2.10849C46.2429 2.45364 45.8917 2.93998 45.8917 3.42632C45.8917 3.97541 45.8917 4.50882 45.8917 5.05791C45.8917 5.607 45.9187 6.14041 45.9187 6.6895C45.9457 7.772 45.9727 8.87019 45.9727 9.95268C45.9727 11.0352 45.9457 12.1334 45.8917 13.2159C45.8917 14.2984 45.8376 15.3809 45.8646 16.4791C45.8646 17.5616 45.9727 18.6597 46.0268 19.7422C46.1078 20.8247 46.1078 21.9229 46.1078 23.0054C46.1078 24.0879 46.0808 25.1861 46.0538 26.2686C45.9997 28.4493 45.9187 30.6143 45.9187 32.795C45.8917 33.8775 45.9187 34.9757 45.9187 36.0582L45.9457 37.6897L45.9727 38.5055C45.9727 38.584 45.9727 38.6311 45.9997 38.6938C45.9997 38.7566 46.0268 38.8193 46.0268 38.8821C46.0268 38.9448 46.0538 39.0076 46.0808 39.0546L46.1078 39.1488L46.1619 39.2272C46.4591 39.6822 47.0805 40.0587 47.8101 40.247C48.1883 40.3411 48.5936 40.4038 48.9989 40.4038H49.1611H49.3502H49.7015H50.404L56.0241 40.3568L58.8342 40.3411H61.6443C63.5086 40.3411 65.4 40.3411 67.2644 40.3725C73.1156 40.4217 74.241 40.6078 80.7579 40.6078Z" fill="#1F180F"/>
<path d="M80.7579 40.749C75.8473 40.749 75.2789 40.9014 67.2914 40.9686C65.427 41 63.5356 41 61.6713 41H58.8612L56.0511 40.9843L50.377 40.9529H49.6744H49.3232H49.134H48.9449C48.4315 40.9372 47.8911 40.8588 47.4318 40.7333C46.4861 40.4666 45.7295 39.9802 45.3783 39.4155L45.3242 39.3057L45.2702 39.1958C45.2432 39.1174 45.2162 39.0546 45.1891 38.9762C45.1621 38.8978 45.1621 38.8193 45.1621 38.7566C45.1621 38.6781 45.1621 38.5997 45.1621 38.5369L45.1891 37.7211L45.2162 36.0895C45.2162 35.007 45.2432 33.9088 45.2162 32.8263C45.1891 30.6457 45.1081 28.4807 45.0811 26.3C45.027 25.1861 45 24.0879 45 23.0054C45 21.9229 45 20.8247 45.0811 19.7422C45.1351 18.6597 45.2432 17.5616 45.2432 16.4791C45.2702 15.3809 45.2162 14.2984 45.1891 13.2159C45.1351 12.1334 45.1351 11.0352 45.1081 9.95268C45.1081 8.87019 45.1351 7.772 45.1621 6.6895C45.1891 6.14041 45.1891 5.607 45.1891 5.05791C45.1891 4.50882 45.1891 3.97541 45.1891 3.42632C45.1891 2.83016 45.5944 2.234 46.324 1.81041C47.0805 1.37114 48.1073 1.12012 49.134 1.10444C59.9808 1.05913 62.2805 1.0132 62.6275 1.0103C64.4919 0.994617 66.3833 0.994617 68.2477 1.02599C70.1121 1.05737 72.0034 1.10444 73.8678 1.10444C75.7322 1.10444 77.6236 1.08875 79.488 1.04168L80.1905 1.02599H80.5417H80.7309H80.92C81.4604 1.02599 82.0008 1.10444 82.4872 1.21425C83.4869 1.46527 84.2975 1.95161 84.7028 2.54777L84.7839 2.65759L84.8379 2.7674C84.8649 2.84585 84.919 2.92429 84.919 3.00273C84.946 3.08117 84.973 3.15961 84.973 3.23806C84.973 3.3165 85 3.39494 85 3.45769V4.27349C85 4.82258 84.973 5.35599 84.919 5.90508C84.8649 6.45417 84.7839 6.98758 84.7839 7.53667C84.7568 8.08577 84.7568 8.61917 84.7568 9.16827C84.7568 11.349 84.8109 13.5139 84.8379 15.6946L84.892 18.9578C84.892 20.0403 84.8919 21.1385 84.8649 22.221C84.8379 24.4017 84.7298 26.5667 84.6758 28.7474L84.6217 32.0106C84.5947 33.0931 84.6758 34.1912 84.7028 35.2737C84.7298 36.3562 84.7568 37.4544 84.7028 38.5369C84.6758 39.1331 84.1624 39.7136 83.4329 40.0901C82.7033 40.545 81.7306 40.749 80.7579 40.749ZM80.7579 40.6078C81.6766 40.6078 82.5682 40.3725 83.1627 39.9959C83.7571 39.6037 84.0543 39.1017 84.0003 38.6154C83.9192 37.5329 83.9462 36.4347 84.0003 35.3522C84.0273 34.2697 84.0813 33.1715 84.0813 32.089L84.0273 28.8258C83.9733 26.6451 83.8652 24.4801 83.8382 22.2994C83.8112 21.2169 83.8111 20.1188 83.8111 19.0363L83.8652 15.7731C83.8922 13.5924 83.9463 11.4274 83.9463 9.24671C83.9463 8.69761 83.9462 8.16421 83.9192 7.61512C83.8922 7.06602 83.8382 6.53262 83.7841 5.98352C83.7301 5.43443 83.7031 4.90102 83.7031 4.35193V3.53613C83.7031 3.45769 83.7031 3.41063 83.7031 3.34787C83.7031 3.28512 83.7031 3.23806 83.676 3.1753C83.676 3.11255 83.649 3.06548 83.622 3.00273L83.595 2.92429L83.541 2.84585C83.2978 2.42226 82.7574 2.04574 82.0549 1.84179C81.7036 1.73197 81.2983 1.66922 80.92 1.65353H80.7579H80.5688H80.2175L79.515 1.63784C77.6506 1.59078 75.7592 1.57509 73.8948 1.57509C72.0305 1.57509 70.1391 1.62215 68.2747 1.65353C66.4103 1.68491 64.5189 1.68491 62.6546 1.66922C62.286 1.66614 59.969 1.62035 49.134 1.57509C48.2964 1.57509 47.4588 1.76335 46.8644 2.10849C46.2429 2.45364 45.8917 2.93998 45.8917 3.42632C45.8917 3.97541 45.8917 4.50882 45.8917 5.05791C45.8917 5.607 45.9187 6.14041 45.9187 6.6895C45.9457 7.772 45.9727 8.87019 45.9727 9.95268C45.9727 11.0352 45.9457 12.1334 45.8917 13.2159C45.8917 14.2984 45.8376 15.3809 45.8646 16.4791C45.8646 17.5616 45.9727 18.6597 46.0268 19.7422C46.1078 20.8247 46.1078 21.9229 46.1078 23.0054C46.1078 24.0879 46.0808 25.1861 46.0538 26.2686C45.9997 28.4493 45.9187 30.6143 45.9187 32.795C45.8917 33.8775 45.9187 34.9757 45.9187 36.0582L45.9457 37.6897L45.9727 38.5055C45.9727 38.584 45.9727 38.6311 45.9997 38.6938C45.9997 38.7566 46.0268 38.8193 46.0268 38.8821C46.0268 38.9448 46.0538 39.0076 46.0808 39.0546L46.1078 39.1488L46.1619 39.2272C46.4591 39.6822 47.0805 40.0587 47.8101 40.247C48.1883 40.3411 48.5936 40.4038 48.9989 40.4038H49.1611H49.3502H49.7015H50.404L56.0241 40.3568L58.8342 40.3411H61.6443C63.5086 40.3411 65.4 40.3411 67.2644 40.3725C73.1156 40.4217 74.241 40.6078 80.7579 40.6078Z" stroke="black" mask="url(#path-2-outside-2)"/>
</g>
<g opacity="0.3">
<mask id="path-3-outside-3" maskUnits="userSpaceOnUse" x="88" y="44" width="42" height="42" fill="black">
<rect fill="white" x="88" y="44" width="42" height="42"/>
<path d="M124.758 45.251C119.847 45.251 119.279 45.0986 111.291 45.0314C109.427 45 107.536 45 105.671 45H102.861L100.051 45.0157L94.377 45.0471H93.6744H93.3232H93.134H92.9449C92.4315 45.0628 91.8911 45.1412 91.4318 45.2667C90.4861 45.5334 89.7295 46.0198 89.3783 46.5845L89.3242 46.6943L89.2702 46.8042C89.2432 46.8826 89.2162 46.9454 89.1891 47.0238C89.1621 47.1022 89.1621 47.1807 89.1621 47.2434C89.1621 47.3219 89.1621 47.4003 89.1621 47.4631L89.1891 48.2789L89.2162 49.9105C89.2162 50.993 89.2432 52.0912 89.2162 53.1737C89.1891 55.3543 89.1081 57.5193 89.0811 59.7C89.027 60.8139 89 61.9121 89 62.9946C89 64.0771 89 65.1753 89.0811 66.2578C89.1351 67.3403 89.2432 68.4384 89.2432 69.5209C89.2702 70.6191 89.2162 71.7016 89.1891 72.7841C89.1351 73.8666 89.1351 74.9648 89.1081 76.0473C89.1081 77.1298 89.1351 78.228 89.1621 79.3105C89.1891 79.8596 89.1891 80.393 89.1891 80.9421C89.1891 81.4912 89.1891 82.0246 89.1891 82.5737C89.1891 83.1698 89.5944 83.766 90.324 84.1896C91.0805 84.6289 92.1073 84.8799 93.134 84.8956C103.981 84.9409 106.281 84.9868 106.628 84.9897C108.492 85.0054 110.383 85.0054 112.248 84.974C114.112 84.9426 116.003 84.8956 117.868 84.8956C119.732 84.8956 121.624 84.9113 123.488 84.9583L124.19 84.974H124.542H124.731H124.92C125.46 84.974 126.001 84.8956 126.487 84.7857C127.487 84.5347 128.297 84.0484 128.703 83.4522L128.784 83.3424L128.838 83.2326C128.865 83.1542 128.919 83.0757 128.919 82.9973C128.946 82.9188 128.973 82.8404 128.973 82.7619C128.973 82.6835 129 82.6051 129 82.5423V81.7265C129 81.1774 128.973 80.644 128.919 80.0949C128.865 79.5458 128.784 79.0124 128.784 78.4633C128.757 77.9142 128.757 77.3808 128.757 76.8317C128.757 74.651 128.811 72.4861 128.838 70.3054L128.892 67.0422C128.892 65.9597 128.892 64.8615 128.865 63.779C128.838 61.5983 128.73 59.4333 128.676 57.2526L128.622 53.9894C128.595 52.9069 128.676 51.8088 128.703 50.7263C128.73 49.6438 128.757 48.5456 128.703 47.4631C128.676 46.8669 128.162 46.2864 127.433 45.9099C126.703 45.455 125.731 45.251 124.758 45.251ZM124.758 45.3922C125.677 45.3922 126.568 45.6275 127.163 46.0041C127.757 46.3963 128.054 46.8983 128 47.3846C127.919 48.4671 127.946 49.5653 128 50.6478C128.027 51.7303 128.081 52.8285 128.081 53.911L128.027 57.1742C127.973 59.3549 127.865 61.5199 127.838 63.7006C127.811 64.7831 127.811 65.8812 127.811 66.9637L127.865 70.2269C127.892 72.4076 127.946 74.5726 127.946 76.7533C127.946 77.3024 127.946 77.8358 127.919 78.3849C127.892 78.934 127.838 79.4674 127.784 80.0165C127.73 80.5656 127.703 81.099 127.703 81.6481V82.4639C127.703 82.5423 127.703 82.5894 127.703 82.6521C127.703 82.7149 127.703 82.7619 127.676 82.8247C127.676 82.8875 127.649 82.9345 127.622 82.9973L127.595 83.0757L127.541 83.1542C127.298 83.5777 126.757 83.9543 126.055 84.1582C125.704 84.268 125.298 84.3308 124.92 84.3465H124.758H124.569H124.217L123.515 84.3622C121.651 84.4092 119.759 84.4249 117.895 84.4249C116.03 84.4249 114.139 84.3778 112.275 84.3465C110.41 84.3151 108.519 84.3151 106.655 84.3308C106.286 84.3339 103.969 84.3797 93.134 84.4249C92.2964 84.4249 91.4588 84.2367 90.8644 83.8915C90.2429 83.5464 89.8917 83.06 89.8917 82.5737C89.8917 82.0246 89.8917 81.4912 89.8917 80.9421C89.8917 80.393 89.9187 79.8596 89.9187 79.3105C89.9457 78.228 89.9727 77.1298 89.9727 76.0473C89.9727 74.9648 89.9457 73.8666 89.8917 72.7841C89.8917 71.7016 89.8376 70.6191 89.8646 69.5209C89.8646 68.4384 89.9727 67.3403 90.0268 66.2578C90.1078 65.1753 90.1078 64.0771 90.1078 62.9946C90.1078 61.9121 90.0808 60.8139 90.0538 59.7314C89.9997 57.5507 89.9187 55.3857 89.9187 53.205C89.8917 52.1225 89.9187 51.0243 89.9187 49.9418L89.9457 48.3103L89.9727 47.4945C89.9727 47.416 89.9727 47.3689 89.9997 47.3062C89.9997 47.2434 90.0268 47.1807 90.0268 47.1179C90.0268 47.0552 90.0538 46.9924 90.0808 46.9454L90.1078 46.8512L90.1619 46.7728C90.4591 46.3178 91.0805 45.9413 91.8101 45.753C92.1883 45.6589 92.5936 45.5962 92.9989 45.5962H93.1611H93.3502H93.7015H94.404L100.024 45.6432L102.834 45.6589H105.644C107.509 45.6589 109.4 45.6589 111.264 45.6275C117.116 45.5783 118.241 45.3922 124.758 45.3922Z"/>
</mask>
<path d="M124.758 45.251C119.847 45.251 119.279 45.0986 111.291 45.0314C109.427 45 107.536 45 105.671 45H102.861L100.051 45.0157L94.377 45.0471H93.6744H93.3232H93.134H92.9449C92.4315 45.0628 91.8911 45.1412 91.4318 45.2667C90.4861 45.5334 89.7295 46.0198 89.3783 46.5845L89.3242 46.6943L89.2702 46.8042C89.2432 46.8826 89.2162 46.9454 89.1891 47.0238C89.1621 47.1022 89.1621 47.1807 89.1621 47.2434C89.1621 47.3219 89.1621 47.4003 89.1621 47.4631L89.1891 48.2789L89.2162 49.9105C89.2162 50.993 89.2432 52.0912 89.2162 53.1737C89.1891 55.3543 89.1081 57.5193 89.0811 59.7C89.027 60.8139 89 61.9121 89 62.9946C89 64.0771 89 65.1753 89.0811 66.2578C89.1351 67.3403 89.2432 68.4384 89.2432 69.5209C89.2702 70.6191 89.2162 71.7016 89.1891 72.7841C89.1351 73.8666 89.1351 74.9648 89.1081 76.0473C89.1081 77.1298 89.1351 78.228 89.1621 79.3105C89.1891 79.8596 89.1891 80.393 89.1891 80.9421C89.1891 81.4912 89.1891 82.0246 89.1891 82.5737C89.1891 83.1698 89.5944 83.766 90.324 84.1896C91.0805 84.6289 92.1073 84.8799 93.134 84.8956C103.981 84.9409 106.281 84.9868 106.628 84.9897C108.492 85.0054 110.383 85.0054 112.248 84.974C114.112 84.9426 116.003 84.8956 117.868 84.8956C119.732 84.8956 121.624 84.9113 123.488 84.9583L124.19 84.974H124.542H124.731H124.92C125.46 84.974 126.001 84.8956 126.487 84.7857C127.487 84.5347 128.297 84.0484 128.703 83.4522L128.784 83.3424L128.838 83.2326C128.865 83.1542 128.919 83.0757 128.919 82.9973C128.946 82.9188 128.973 82.8404 128.973 82.7619C128.973 82.6835 129 82.6051 129 82.5423V81.7265C129 81.1774 128.973 80.644 128.919 80.0949C128.865 79.5458 128.784 79.0124 128.784 78.4633C128.757 77.9142 128.757 77.3808 128.757 76.8317C128.757 74.651 128.811 72.4861 128.838 70.3054L128.892 67.0422C128.892 65.9597 128.892 64.8615 128.865 63.779C128.838 61.5983 128.73 59.4333 128.676 57.2526L128.622 53.9894C128.595 52.9069 128.676 51.8088 128.703 50.7263C128.73 49.6438 128.757 48.5456 128.703 47.4631C128.676 46.8669 128.162 46.2864 127.433 45.9099C126.703 45.455 125.731 45.251 124.758 45.251ZM124.758 45.3922C125.677 45.3922 126.568 45.6275 127.163 46.0041C127.757 46.3963 128.054 46.8983 128 47.3846C127.919 48.4671 127.946 49.5653 128 50.6478C128.027 51.7303 128.081 52.8285 128.081 53.911L128.027 57.1742C127.973 59.3549 127.865 61.5199 127.838 63.7006C127.811 64.7831 127.811 65.8812 127.811 66.9637L127.865 70.2269C127.892 72.4076 127.946 74.5726 127.946 76.7533C127.946 77.3024 127.946 77.8358 127.919 78.3849C127.892 78.934 127.838 79.4674 127.784 80.0165C127.73 80.5656 127.703 81.099 127.703 81.6481V82.4639C127.703 82.5423 127.703 82.5894 127.703 82.6521C127.703 82.7149 127.703 82.7619 127.676 82.8247C127.676 82.8875 127.649 82.9345 127.622 82.9973L127.595 83.0757L127.541 83.1542C127.298 83.5777 126.757 83.9543 126.055 84.1582C125.704 84.268 125.298 84.3308 124.92 84.3465H124.758H124.569H124.217L123.515 84.3622C121.651 84.4092 119.759 84.4249 117.895 84.4249C116.03 84.4249 114.139 84.3778 112.275 84.3465C110.41 84.3151 108.519 84.3151 106.655 84.3308C106.286 84.3339 103.969 84.3797 93.134 84.4249C92.2964 84.4249 91.4588 84.2367 90.8644 83.8915C90.2429 83.5464 89.8917 83.06 89.8917 82.5737C89.8917 82.0246 89.8917 81.4912 89.8917 80.9421C89.8917 80.393 89.9187 79.8596 89.9187 79.3105C89.9457 78.228 89.9727 77.1298 89.9727 76.0473C89.9727 74.9648 89.9457 73.8666 89.8917 72.7841C89.8917 71.7016 89.8376 70.6191 89.8646 69.5209C89.8646 68.4384 89.9727 67.3403 90.0268 66.2578C90.1078 65.1753 90.1078 64.0771 90.1078 62.9946C90.1078 61.9121 90.0808 60.8139 90.0538 59.7314C89.9997 57.5507 89.9187 55.3857 89.9187 53.205C89.8917 52.1225 89.9187 51.0243 89.9187 49.9418L89.9457 48.3103L89.9727 47.4945C89.9727 47.416 89.9727 47.3689 89.9997 47.3062C89.9997 47.2434 90.0268 47.1807 90.0268 47.1179C90.0268 47.0552 90.0538 46.9924 90.0808 46.9454L90.1078 46.8512L90.1619 46.7728C90.4591 46.3178 91.0805 45.9413 91.8101 45.753C92.1883 45.6589 92.5936 45.5962 92.9989 45.5962H93.1611H93.3502H93.7015H94.404L100.024 45.6432L102.834 45.6589H105.644C107.509 45.6589 109.4 45.6589 111.264 45.6275C117.116 45.5783 118.241 45.3922 124.758 45.3922Z" fill="#1F180F"/>
<path d="M124.758 45.251C119.847 45.251 119.279 45.0986 111.291 45.0314C109.427 45 107.536 45 105.671 45H102.861L100.051 45.0157L94.377 45.0471H93.6744H93.3232H93.134H92.9449C92.4315 45.0628 91.8911 45.1412 91.4318 45.2667C90.4861 45.5334 89.7295 46.0198 89.3783 46.5845L89.3242 46.6943L89.2702 46.8042C89.2432 46.8826 89.2162 46.9454 89.1891 47.0238C89.1621 47.1022 89.1621 47.1807 89.1621 47.2434C89.1621 47.3219 89.1621 47.4003 89.1621 47.4631L89.1891 48.2789L89.2162 49.9105C89.2162 50.993 89.2432 52.0912 89.2162 53.1737C89.1891 55.3543 89.1081 57.5193 89.0811 59.7C89.027 60.8139 89 61.9121 89 62.9946C89 64.0771 89 65.1753 89.0811 66.2578C89.1351 67.3403 89.2432 68.4384 89.2432 69.5209C89.2702 70.6191 89.2162 71.7016 89.1891 72.7841C89.1351 73.8666 89.1351 74.9648 89.1081 76.0473C89.1081 77.1298 89.1351 78.228 89.1621 79.3105C89.1891 79.8596 89.1891 80.393 89.1891 80.9421C89.1891 81.4912 89.1891 82.0246 89.1891 82.5737C89.1891 83.1698 89.5944 83.766 90.324 84.1896C91.0805 84.6289 92.1073 84.8799 93.134 84.8956C103.981 84.9409 106.281 84.9868 106.628 84.9897C108.492 85.0054 110.383 85.0054 112.248 84.974C114.112 84.9426 116.003 84.8956 117.868 84.8956C119.732 84.8956 121.624 84.9113 123.488 84.9583L124.19 84.974H124.542H124.731H124.92C125.46 84.974 126.001 84.8956 126.487 84.7857C127.487 84.5347 128.297 84.0484 128.703 83.4522L128.784 83.3424L128.838 83.2326C128.865 83.1542 128.919 83.0757 128.919 82.9973C128.946 82.9188 128.973 82.8404 128.973 82.7619C128.973 82.6835 129 82.6051 129 82.5423V81.7265C129 81.1774 128.973 80.644 128.919 80.0949C128.865 79.5458 128.784 79.0124 128.784 78.4633C128.757 77.9142 128.757 77.3808 128.757 76.8317C128.757 74.651 128.811 72.4861 128.838 70.3054L128.892 67.0422C128.892 65.9597 128.892 64.8615 128.865 63.779C128.838 61.5983 128.73 59.4333 128.676 57.2526L128.622 53.9894C128.595 52.9069 128.676 51.8088 128.703 50.7263C128.73 49.6438 128.757 48.5456 128.703 47.4631C128.676 46.8669 128.162 46.2864 127.433 45.9099C126.703 45.455 125.731 45.251 124.758 45.251ZM124.758 45.3922C125.677 45.3922 126.568 45.6275 127.163 46.0041C127.757 46.3963 128.054 46.8983 128 47.3846C127.919 48.4671 127.946 49.5653 128 50.6478C128.027 51.7303 128.081 52.8285 128.081 53.911L128.027 57.1742C127.973 59.3549 127.865 61.5199 127.838 63.7006C127.811 64.7831 127.811 65.8812 127.811 66.9637L127.865 70.2269C127.892 72.4076 127.946 74.5726 127.946 76.7533C127.946 77.3024 127.946 77.8358 127.919 78.3849C127.892 78.934 127.838 79.4674 127.784 80.0165C127.73 80.5656 127.703 81.099 127.703 81.6481V82.4639C127.703 82.5423 127.703 82.5894 127.703 82.6521C127.703 82.7149 127.703 82.7619 127.676 82.8247C127.676 82.8875 127.649 82.9345 127.622 82.9973L127.595 83.0757L127.541 83.1542C127.298 83.5777 126.757 83.9543 126.055 84.1582C125.704 84.268 125.298 84.3308 124.92 84.3465H124.758H124.569H124.217L123.515 84.3622C121.651 84.4092 119.759 84.4249 117.895 84.4249C116.03 84.4249 114.139 84.3778 112.275 84.3465C110.41 84.3151 108.519 84.3151 106.655 84.3308C106.286 84.3339 103.969 84.3797 93.134 84.4249C92.2964 84.4249 91.4588 84.2367 90.8644 83.8915C90.2429 83.5464 89.8917 83.06 89.8917 82.5737C89.8917 82.0246 89.8917 81.4912 89.8917 80.9421C89.8917 80.393 89.9187 79.8596 89.9187 79.3105C89.9457 78.228 89.9727 77.1298 89.9727 76.0473C89.9727 74.9648 89.9457 73.8666 89.8917 72.7841C89.8917 71.7016 89.8376 70.6191 89.8646 69.5209C89.8646 68.4384 89.9727 67.3403 90.0268 66.2578C90.1078 65.1753 90.1078 64.0771 90.1078 62.9946C90.1078 61.9121 90.0808 60.8139 90.0538 59.7314C89.9997 57.5507 89.9187 55.3857 89.9187 53.205C89.8917 52.1225 89.9187 51.0243 89.9187 49.9418L89.9457 48.3103L89.9727 47.4945C89.9727 47.416 89.9727 47.3689 89.9997 47.3062C89.9997 47.2434 90.0268 47.1807 90.0268 47.1179C90.0268 47.0552 90.0538 46.9924 90.0808 46.9454L90.1078 46.8512L90.1619 46.7728C90.4591 46.3178 91.0805 45.9413 91.8101 45.753C92.1883 45.6589 92.5936 45.5962 92.9989 45.5962H93.1611H93.3502H93.7015H94.404L100.024 45.6432L102.834 45.6589H105.644C107.509 45.6589 109.4 45.6589 111.264 45.6275C117.116 45.5783 118.241 45.3922 124.758 45.3922Z" stroke="black" mask="url(#path-3-outside-3)"/>
</g>
<g opacity="0.3">
<mask id="path-4-outside-4" maskUnits="userSpaceOnUse" x="44" y="44" width="42" height="42" fill="black">
<rect fill="white" x="44" y="44" width="42" height="42"/>
<path d="M80.7579 84.749C75.8473 84.749 75.2789 84.9014 67.2914 84.9686C65.427 85 63.5356 85 61.6713 85H58.8612L56.0511 84.9843L50.377 84.9529H49.6744H49.3232H49.134H48.9449C48.4315 84.9372 47.8911 84.8588 47.4318 84.7333C46.4861 84.4666 45.7295 83.9802 45.3783 83.4155L45.3242 83.3057L45.2702 83.1958C45.2432 83.1174 45.2162 83.0546 45.1891 82.9762C45.1621 82.8978 45.1621 82.8193 45.1621 82.7566C45.1621 82.6781 45.1621 82.5997 45.1621 82.5369L45.1891 81.7211L45.2162 80.0895C45.2162 79.007 45.2432 77.9088 45.2162 76.8263C45.1891 74.6457 45.1081 72.4807 45.0811 70.3C45.027 69.1861 45 68.0879 45 67.0054C45 65.9229 45 64.8247 45.0811 63.7422C45.1351 62.6597 45.2432 61.5616 45.2432 60.4791C45.2702 59.3809 45.2162 58.2984 45.1891 57.2159C45.1351 56.1334 45.1351 55.0352 45.1081 53.9527C45.1081 52.8702 45.1351 51.772 45.1621 50.6895C45.1891 50.1404 45.1891 49.607 45.1891 49.0579C45.1891 48.5088 45.1891 47.9754 45.1891 47.4263C45.1891 46.8302 45.5944 46.234 46.324 45.8104C47.0805 45.3711 48.1073 45.1201 49.134 45.1044C59.9808 45.0591 62.2805 45.0132 62.6275 45.0103C64.4919 44.9946 66.3833 44.9946 68.2477 45.026C70.1121 45.0574 72.0034 45.1044 73.8678 45.1044C75.7322 45.1044 77.6236 45.0887 79.488 45.0417L80.1905 45.026H80.5417H80.7309H80.92C81.4604 45.026 82.0008 45.1044 82.4872 45.2143C83.4869 45.4653 84.2975 45.9516 84.7028 46.5478L84.7839 46.6576L84.8379 46.7674C84.8649 46.8458 84.919 46.9243 84.919 47.0027C84.946 47.0812 84.973 47.1596 84.973 47.2381C84.973 47.3165 85 47.3949 85 47.4577V48.2735C85 48.8226 84.973 49.356 84.919 49.9051C84.8649 50.4542 84.7839 50.9876 84.7839 51.5367C84.7568 52.0858 84.7568 52.6192 84.7568 53.1683C84.7568 55.349 84.8109 57.5139 84.8379 59.6946L84.892 62.9578C84.892 64.0403 84.8919 65.1385 84.8649 66.221C84.8379 68.4017 84.7298 70.5667 84.6758 72.7474L84.6217 76.0106C84.5947 77.0931 84.6758 78.1912 84.7028 79.2737C84.7298 80.3562 84.7568 81.4544 84.7028 82.5369C84.6758 83.1331 84.1624 83.7136 83.4329 84.0901C82.7033 84.545 81.7306 84.749 80.7579 84.749ZM80.7579 84.6078C81.6766 84.6078 82.5682 84.3725 83.1627 83.9959C83.7571 83.6037 84.0543 83.1017 84.0003 82.6154C83.9192 81.5329 83.9462 80.4347 84.0003 79.3522C84.0273 78.2697 84.0813 77.1715 84.0813 76.089L84.0273 72.8258C83.9733 70.6451 83.8652 68.4801 83.8382 66.2994C83.8112 65.2169 83.8111 64.1188 83.8111 63.0363L83.8652 59.7731C83.8922 57.5924 83.9463 55.4274 83.9463 53.2467C83.9463 52.6976 83.9462 52.1642 83.9192 51.6151C83.8922 51.066 83.8382 50.5326 83.7841 49.9835C83.7301 49.4344 83.7031 48.901 83.7031 48.3519V47.5361C83.7031 47.4577 83.7031 47.4106 83.7031 47.3479C83.7031 47.2851 83.7031 47.2381 83.676 47.1753C83.676 47.1125 83.649 47.0655 83.622 47.0027L83.595 46.9243L83.541 46.8458C83.2978 46.4223 82.7574 46.0457 82.0549 45.8418C81.7036 45.732 81.2983 45.6692 80.92 45.6535H80.7579H80.5688H80.2175L79.515 45.6378C77.6506 45.5908 75.7592 45.5751 73.8948 45.5751C72.0305 45.5751 70.1391 45.6222 68.2747 45.6535C66.4103 45.6849 64.5189 45.6849 62.6546 45.6692C62.286 45.6661 59.969 45.6203 49.134 45.5751C48.2964 45.5751 47.4588 45.7633 46.8644 46.1085C46.2429 46.4536 45.8917 46.94 45.8917 47.4263C45.8917 47.9754 45.8917 48.5088 45.8917 49.0579C45.8917 49.607 45.9187 50.1404 45.9187 50.6895C45.9457 51.772 45.9727 52.8702 45.9727 53.9527C45.9727 55.0352 45.9457 56.1334 45.8917 57.2159C45.8917 58.2984 45.8376 59.3809 45.8646 60.4791C45.8646 61.5616 45.9727 62.6597 46.0268 63.7422C46.1078 64.8247 46.1078 65.9229 46.1078 67.0054C46.1078 68.0879 46.0808 69.1861 46.0538 70.2686C45.9997 72.4493 45.9187 74.6143 45.9187 76.795C45.8917 77.8775 45.9187 78.9757 45.9187 80.0582L45.9457 81.6897L45.9727 82.5055C45.9727 82.584 45.9727 82.6311 45.9997 82.6938C45.9997 82.7566 46.0268 82.8193 46.0268 82.8821C46.0268 82.9448 46.0538 83.0076 46.0808 83.0546L46.1078 83.1488L46.1619 83.2272C46.4591 83.6822 47.0805 84.0587 47.8101 84.247C48.1883 84.3411 48.5936 84.4038 48.9989 84.4038H49.1611H49.3502H49.7015H50.404L56.0241 84.3568L58.8342 84.3411H61.6443C63.5086 84.3411 65.4 84.3411 67.2644 84.3725C73.1156 84.4217 74.241 84.6078 80.7579 84.6078Z"/>
</mask>
<path d="M80.7579 84.749C75.8473 84.749 75.2789 84.9014 67.2914 84.9686C65.427 85 63.5356 85 61.6713 85H58.8612L56.0511 84.9843L50.377 84.9529H49.6744H49.3232H49.134H48.9449C48.4315 84.9372 47.8911 84.8588 47.4318 84.7333C46.4861 84.4666 45.7295 83.9802 45.3783 83.4155L45.3242 83.3057L45.2702 83.1958C45.2432 83.1174 45.2162 83.0546 45.1891 82.9762C45.1621 82.8978 45.1621 82.8193 45.1621 82.7566C45.1621 82.6781 45.1621 82.5997 45.1621 82.5369L45.1891 81.7211L45.2162 80.0895C45.2162 79.007 45.2432 77.9088 45.2162 76.8263C45.1891 74.6457 45.1081 72.4807 45.0811 70.3C45.027 69.1861 45 68.0879 45 67.0054C45 65.9229 45 64.8247 45.0811 63.7422C45.1351 62.6597 45.2432 61.5616 45.2432 60.4791C45.2702 59.3809 45.2162 58.2984 45.1891 57.2159C45.1351 56.1334 45.1351 55.0352 45.1081 53.9527C45.1081 52.8702 45.1351 51.772 45.1621 50.6895C45.1891 50.1404 45.1891 49.607 45.1891 49.0579C45.1891 48.5088 45.1891 47.9754 45.1891 47.4263C45.1891 46.8302 45.5944 46.234 46.324 45.8104C47.0805 45.3711 48.1073 45.1201 49.134 45.1044C59.9808 45.0591 62.2805 45.0132 62.6275 45.0103C64.4919 44.9946 66.3833 44.9946 68.2477 45.026C70.1121 45.0574 72.0034 45.1044 73.8678 45.1044C75.7322 45.1044 77.6236 45.0887 79.488 45.0417L80.1905 45.026H80.5417H80.7309H80.92C81.4604 45.026 82.0008 45.1044 82.4872 45.2143C83.4869 45.4653 84.2975 45.9516 84.7028 46.5478L84.7839 46.6576L84.8379 46.7674C84.8649 46.8458 84.919 46.9243 84.919 47.0027C84.946 47.0812 84.973 47.1596 84.973 47.2381C84.973 47.3165 85 47.3949 85 47.4577V48.2735C85 48.8226 84.973 49.356 84.919 49.9051C84.8649 50.4542 84.7839 50.9876 84.7839 51.5367C84.7568 52.0858 84.7568 52.6192 84.7568 53.1683C84.7568 55.349 84.8109 57.5139 84.8379 59.6946L84.892 62.9578C84.892 64.0403 84.8919 65.1385 84.8649 66.221C84.8379 68.4017 84.7298 70.5667 84.6758 72.7474L84.6217 76.0106C84.5947 77.0931 84.6758 78.1912 84.7028 79.2737C84.7298 80.3562 84.7568 81.4544 84.7028 82.5369C84.6758 83.1331 84.1624 83.7136 83.4329 84.0901C82.7033 84.545 81.7306 84.749 80.7579 84.749ZM80.7579 84.6078C81.6766 84.6078 82.5682 84.3725 83.1627 83.9959C83.7571 83.6037 84.0543 83.1017 84.0003 82.6154C83.9192 81.5329 83.9462 80.4347 84.0003 79.3522C84.0273 78.2697 84.0813 77.1715 84.0813 76.089L84.0273 72.8258C83.9733 70.6451 83.8652 68.4801 83.8382 66.2994C83.8112 65.2169 83.8111 64.1188 83.8111 63.0363L83.8652 59.7731C83.8922 57.5924 83.9463 55.4274 83.9463 53.2467C83.9463 52.6976 83.9462 52.1642 83.9192 51.6151C83.8922 51.066 83.8382 50.5326 83.7841 49.9835C83.7301 49.4344 83.7031 48.901 83.7031 48.3519V47.5361C83.7031 47.4577 83.7031 47.4106 83.7031 47.3479C83.7031 47.2851 83.7031 47.2381 83.676 47.1753C83.676 47.1125 83.649 47.0655 83.622 47.0027L83.595 46.9243L83.541 46.8458C83.2978 46.4223 82.7574 46.0457 82.0549 45.8418C81.7036 45.732 81.2983 45.6692 80.92 45.6535H80.7579H80.5688H80.2175L79.515 45.6378C77.6506 45.5908 75.7592 45.5751 73.8948 45.5751C72.0305 45.5751 70.1391 45.6222 68.2747 45.6535C66.4103 45.6849 64.5189 45.6849 62.6546 45.6692C62.286 45.6661 59.969 45.6203 49.134 45.5751C48.2964 45.5751 47.4588 45.7633 46.8644 46.1085C46.2429 46.4536 45.8917 46.94 45.8917 47.4263C45.8917 47.9754 45.8917 48.5088 45.8917 49.0579C45.8917 49.607 45.9187 50.1404 45.9187 50.6895C45.9457 51.772 45.9727 52.8702 45.9727 53.9527C45.9727 55.0352 45.9457 56.1334 45.8917 57.2159C45.8917 58.2984 45.8376 59.3809 45.8646 60.4791C45.8646 61.5616 45.9727 62.6597 46.0268 63.7422C46.1078 64.8247 46.1078 65.9229 46.1078 67.0054C46.1078 68.0879 46.0808 69.1861 46.0538 70.2686C45.9997 72.4493 45.9187 74.6143 45.9187 76.795C45.8917 77.8775 45.9187 78.9757 45.9187 80.0582L45.9457 81.6897L45.9727 82.5055C45.9727 82.584 45.9727 82.6311 45.9997 82.6938C45.9997 82.7566 46.0268 82.8193 46.0268 82.8821C46.0268 82.9448 46.0538 83.0076 46.0808 83.0546L46.1078 83.1488L46.1619 83.2272C46.4591 83.6822 47.0805 84.0587 47.8101 84.247C48.1883 84.3411 48.5936 84.4038 48.9989 84.4038H49.1611H49.3502H49.7015H50.404L56.0241 84.3568L58.8342 84.3411H61.6443C63.5086 84.3411 65.4 84.3411 67.2644 84.3725C73.1156 84.4217 74.241 84.6078 80.7579 84.6078Z" fill="#1F180F"/>
<path d="M80.7579 84.749C75.8473 84.749 75.2789 84.9014 67.2914 84.9686C65.427 85 63.5356 85 61.6713 85H58.8612L56.0511 84.9843L50.377 84.9529H49.6744H49.3232H49.134H48.9449C48.4315 84.9372 47.8911 84.8588 47.4318 84.7333C46.4861 84.4666 45.7295 83.9802 45.3783 83.4155L45.3242 83.3057L45.2702 83.1958C45.2432 83.1174 45.2162 83.0546 45.1891 82.9762C45.1621 82.8978 45.1621 82.8193 45.1621 82.7566C45.1621 82.6781 45.1621 82.5997 45.1621 82.5369L45.1891 81.7211L45.2162 80.0895C45.2162 79.007 45.2432 77.9088 45.2162 76.8263C45.1891 74.6457 45.1081 72.4807 45.0811 70.3C45.027 69.1861 45 68.0879 45 67.0054C45 65.9229 45 64.8247 45.0811 63.7422C45.1351 62.6597 45.2432 61.5616 45.2432 60.4791C45.2702 59.3809 45.2162 58.2984 45.1891 57.2159C45.1351 56.1334 45.1351 55.0352 45.1081 53.9527C45.1081 52.8702 45.1351 51.772 45.1621 50.6895C45.1891 50.1404 45.1891 49.607 45.1891 49.0579C45.1891 48.5088 45.1891 47.9754 45.1891 47.4263C45.1891 46.8302 45.5944 46.234 46.324 45.8104C47.0805 45.3711 48.1073 45.1201 49.134 45.1044C59.9808 45.0591 62.2805 45.0132 62.6275 45.0103C64.4919 44.9946 66.3833 44.9946 68.2477 45.026C70.1121 45.0574 72.0034 45.1044 73.8678 45.1044C75.7322 45.1044 77.6236 45.0887 79.488 45.0417L80.1905 45.026H80.5417H80.7309H80.92C81.4604 45.026 82.0008 45.1044 82.4872 45.2143C83.4869 45.4653 84.2975 45.9516 84.7028 46.5478L84.7839 46.6576L84.8379 46.7674C84.8649 46.8458 84.919 46.9243 84.919 47.0027C84.946 47.0812 84.973 47.1596 84.973 47.2381C84.973 47.3165 85 47.3949 85 47.4577V48.2735C85 48.8226 84.973 49.356 84.919 49.9051C84.8649 50.4542 84.7839 50.9876 84.7839 51.5367C84.7568 52.0858 84.7568 52.6192 84.7568 53.1683C84.7568 55.349 84.8109 57.5139 84.8379 59.6946L84.892 62.9578C84.892 64.0403 84.8919 65.1385 84.8649 66.221C84.8379 68.4017 84.7298 70.5667 84.6758 72.7474L84.6217 76.0106C84.5947 77.0931 84.6758 78.1912 84.7028 79.2737C84.7298 80.3562 84.7568 81.4544 84.7028 82.5369C84.6758 83.1331 84.1624 83.7136 83.4329 84.0901C82.7033 84.545 81.7306 84.749 80.7579 84.749ZM80.7579 84.6078C81.6766 84.6078 82.5682 84.3725 83.1627 83.9959C83.7571 83.6037 84.0543 83.1017 84.0003 82.6154C83.9192 81.5329 83.9462 80.4347 84.0003 79.3522C84.0273 78.2697 84.0813 77.1715 84.0813 76.089L84.0273 72.8258C83.9733 70.6451 83.8652 68.4801 83.8382 66.2994C83.8112 65.2169 83.8111 64.1188 83.8111 63.0363L83.8652 59.7731C83.8922 57.5924 83.9463 55.4274 83.9463 53.2467C83.9463 52.6976 83.9462 52.1642 83.9192 51.6151C83.8922 51.066 83.8382 50.5326 83.7841 49.9835C83.7301 49.4344 83.7031 48.901 83.7031 48.3519V47.5361C83.7031 47.4577 83.7031 47.4106 83.7031 47.3479C83.7031 47.2851 83.7031 47.2381 83.676 47.1753C83.676 47.1125 83.649 47.0655 83.622 47.0027L83.595 46.9243L83.541 46.8458C83.2978 46.4223 82.7574 46.0457 82.0549 45.8418C81.7036 45.732 81.2983 45.6692 80.92 45.6535H80.7579H80.5688H80.2175L79.515 45.6378C77.6506 45.5908 75.7592 45.5751 73.8948 45.5751C72.0305 45.5751 70.1391 45.6222 68.2747 45.6535C66.4103 45.6849 64.5189 45.6849 62.6546 45.6692C62.286 45.6661 59.969 45.6203 49.134 45.5751C48.2964 45.5751 47.4588 45.7633 46.8644 46.1085C46.2429 46.4536 45.8917 46.94 45.8917 47.4263C45.8917 47.9754 45.8917 48.5088 45.8917 49.0579C45.8917 49.607 45.9187 50.1404 45.9187 50.6895C45.9457 51.772 45.9727 52.8702 45.9727 53.9527C45.9727 55.0352 45.9457 56.1334 45.8917 57.2159C45.8917 58.2984 45.8376 59.3809 45.8646 60.4791C45.8646 61.5616 45.9727 62.6597 46.0268 63.7422C46.1078 64.8247 46.1078 65.9229 46.1078 67.0054C46.1078 68.0879 46.0808 69.1861 46.0538 70.2686C45.9997 72.4493 45.9187 74.6143 45.9187 76.795C45.8917 77.8775 45.9187 78.9757 45.9187 80.0582L45.9457 81.6897L45.9727 82.5055C45.9727 82.584 45.9727 82.6311 45.9997 82.6938C45.9997 82.7566 46.0268 82.8193 46.0268 82.8821C46.0268 82.9448 46.0538 83.0076 46.0808 83.0546L46.1078 83.1488L46.1619 83.2272C46.4591 83.6822 47.0805 84.0587 47.8101 84.247C48.1883 84.3411 48.5936 84.4038 48.9989 84.4038H49.1611H49.3502H49.7015H50.404L56.0241 84.3568L58.8342 84.3411H61.6443C63.5086 84.3411 65.4 84.3411 67.2644 84.3725C73.1156 84.4217 74.241 84.6078 80.7579 84.6078Z" stroke="black" mask="url(#path-4-outside-4)"/>
</g>
<path opacity="0.3" d="M60.8642 23.3807C62.0601 21.5319 65.0285 18 65.25 18C65.5 18 66.1654 19.4993 67.25 21C67.9631 21.9867 68.7568 22.6785 69.1848 23.2579C69.4681 23.6413 69.1636 24.0551 68.6881 24.0874C66.8247 24.214 62.8321 24.2205 61.2054 24.1069C60.776 24.0769 60.6304 23.7421 60.8642 23.3807Z" fill="#1F180F"/>
<path opacity="0.3" d="M108.213 60.9579C110.062 62.1538 113.594 65.1222 113.594 65.3437C113.594 65.5938 112.094 66.2592 110.594 67.3438C109.607 68.0569 108.915 68.8505 108.336 69.2786C107.952 69.5618 107.539 69.2574 107.506 68.7818C107.38 66.9185 107.373 62.9259 107.487 61.2992C107.517 60.8697 107.852 60.7241 108.213 60.9579Z" fill="#1F180F"/>
<path opacity="0.3" d="M68.6881 62.1001C66.8247 61.9735 62.8321 61.967 61.2054 62.0806C60.776 62.1106 60.6407 62.4445 60.928 62.765C61.2887 63.1673 61.787 63.6441 62.25 64.25C63.5908 66.0045 65.0861 68.1875 65.25 68.1875C65.5 68.1875 65.9154 67.2507 67 65.75C67.7519 64.7097 68.7241 63.7029 69.2044 62.9415C69.4588 62.5384 69.1636 62.1324 68.6881 62.1001Z" fill="#1F180F"/>
<path opacity="0.3" d="M23.9936 61.4057C24.1203 63.269 24.1268 67.2616 24.0132 68.8883C23.9832 69.3178 23.6493 69.4531 23.3288 69.1657C22.9264 68.805 22.4497 68.3068 21.8437 67.8437C20.0892 66.503 17.9062 65.0076 17.9062 64.8438C17.9062 64.5937 18.8431 64.1783 20.3437 63.0937C21.384 62.3419 22.3909 61.3697 23.1522 60.8893C23.5553 60.6349 23.9613 60.9301 23.9936 61.4057Z" fill="#1F180F"/>
</svg>
