<svg width="26" height="25" viewBox="0 0 26 25" fill="none" xmlns="http://www.w3.org/2000/svg">
<path d="M23.8804 12.0586C23.8666 10.8256 25.0901 11.6102 24.9911 12.7323C24.4915 18.3949 19.9811 23.2638 14.4035 24.2579C6.66219 25.6376 -0.375682 19.263 0.0155797 11.4603C0.811041 -4.40321 25.8232 -3.42236 25.0328 12.0775C25.0213 12.3029 24.0736 12.4113 23.8804 11.0586C23.3804 7.55859 21.4454 2.28854 15.1221 0.815801C8.34064 -0.763643 1.15972 4.39385 0.776178 11.4231C-0.0506385 26.5764 24.0546 27.6125 23.8804 12.0586Z" fill="black"/>
<path d="M10 7H11V17H10V7Z" fill="black"/>
<path d="M14 7H15V17H14V7Z" fill="black"/>
</svg>
