<svg width="80" height="80" viewBox="0 0 80 80" fill="none" xmlns="http://www.w3.org/2000/svg">
<path d="M34 24H50V64H34V24Z" fill="#00BCD5"/>
<rect width="4" height="4" transform="matrix(-1 0 0 1 42 12)" fill="#2C2C2C"/>
<rect width="4" height="4" transform="matrix(-1 0 0 1 42 16)" fill="#1E96F6"/>
<rect width="4" height="4" transform="matrix(-1 0 0 1 54 40)" fill="white"/>
<rect width="4" height="4" transform="matrix(-1 0 0 1 54 48)" fill="white"/>
<rect width="4" height="4" transform="matrix(-1 0 0 1 50 32)" fill="white"/>
<rect width="4" height="4" transform="matrix(-1 0 0 1 34 32)" fill="#1E96F6"/>
<rect width="4" height="4" transform="matrix(-1 0 0 1 38 24)" fill="#1E96F6"/>
<rect width="4" height="4" transform="matrix(-1 0 0 1 30 40)" fill="#1E96F6"/>
<rect width="4" height="4" transform="matrix(-1 0 0 1 30 48)" fill="#1E96F6"/>
<rect width="4" height="4" transform="matrix(-1 0 0 1 34 40)" fill="#1E96F6"/>
<rect width="4" height="4" transform="matrix(-1 0 0 1 34 48)" fill="#1E96F6"/>
<rect width="4" height="4" transform="matrix(-1 0 0 1 34 56)" fill="#1E96F6"/>
<rect width="4" height="4" transform="matrix(-1 0 0 1 42 20)" fill="#1E96F6"/>
<rect width="4" height="4" transform="matrix(-1 0 0 1 54 44)" fill="white"/>
<rect width="4" height="4" transform="matrix(-1 0 0 1 54 52)" fill="white"/>
<rect width="4" height="4" transform="matrix(-1 0 0 1 50 36)" fill="white"/>
<rect width="4" height="4" transform="matrix(-1 0 0 1 34 36)" fill="#1E96F6"/>
<rect width="4" height="4" transform="matrix(-1 0 0 1 38 28)" fill="#1E96F6"/>
<rect width="4" height="4" transform="matrix(-1 0 0 1 30 44)" fill="#1E96F6"/>
<rect width="4" height="4" transform="matrix(-1 0 0 1 30 52)" fill="#1E96F6"/>
<rect width="4" height="4" transform="matrix(-1 0 0 1 34 44)" fill="#1E96F6"/>
<rect width="4" height="4" transform="matrix(-1 0 0 1 34 52)" fill="#1E96F6"/>
<rect width="4" height="4" transform="matrix(-1 0 0 1 34 56)" fill="#1E96F6"/>
<rect width="4" height="4" transform="matrix(-1 0 0 1 38 16)" fill="#2C2C2C"/>
<rect x="42" y="16" width="4" height="4" fill="#2C2C2C"/>
<rect width="4" height="4" transform="matrix(-1 0 0 1 34 24)" fill="#2C2C2C"/>
<rect x="46" y="24" width="4" height="4" fill="#2C2C2C"/>
<rect width="4" height="4" transform="matrix(-1 0 0 1 30 32)" fill="#2C2C2C"/>
<rect x="50" y="32" width="4" height="4" fill="#2C2C2C"/>
<rect width="4" height="4" transform="matrix(-1 0 0 1 26 40)" fill="#2C2C2C"/>
<rect x="54" y="40" width="4" height="4" fill="#2C2C2C"/>
<rect width="4" height="4" transform="matrix(-1 0 0 1 26 48)" fill="#2C2C2C"/>
<rect x="54" y="48" width="4" height="4" fill="#2C2C2C"/>
<rect width="4" height="4" transform="matrix(-1 0 0 1 30 56)" fill="#2C2C2C"/>
<rect x="50" y="56" width="4" height="4" fill="#2C2C2C"/>
<rect width="4" height="4" transform="matrix(-1 0 0 1 34 60)" fill="#2C2C2C"/>
<rect x="46" y="60" width="4" height="4" fill="#2C2C2C"/>
<rect width="4" height="4" transform="matrix(-1 0 0 1 38 64)" fill="#2C2C2C"/>
<rect x="42" y="64" width="4" height="4" fill="#2C2C2C"/>
<rect width="4" height="4" transform="matrix(-1 0 0 1 42 64)" fill="#2C2C2C"/>
<rect width="4" height="4" transform="matrix(-1 0 0 1 38 20)" fill="#2C2C2C"/>
<rect x="42" y="20" width="4" height="4" fill="#2C2C2C"/>
<rect width="4" height="4" transform="matrix(-1 0 0 1 34 28)" fill="#2C2C2C"/>
<rect x="46" y="28" width="4" height="4" fill="#2C2C2C"/>
<rect width="4" height="4" transform="matrix(-1 0 0 1 30 36)" fill="#2C2C2C"/>
<rect x="50" y="36" width="4" height="4" fill="#2C2C2C"/>
<rect width="4" height="4" transform="matrix(-1 0 0 1 26 44)" fill="#2C2C2C"/>
<rect x="54" y="44" width="4" height="4" fill="#2C2C2C"/>
<rect width="4" height="4" transform="matrix(-1 0 0 1 26 52)" fill="#2C2C2C"/>
<rect x="54" y="52" width="4" height="4" fill="#2C2C2C"/>
<rect width="4" height="4" transform="matrix(-1 0 0 1 30 56)" fill="#2C2C2C"/>
<rect x="50" y="56" width="4" height="4" fill="#2C2C2C"/>
</svg>
