<svg width="36" height="26" viewBox="0 0 36 26" fill="none" xmlns="http://www.w3.org/2000/svg">
<path fill-rule="evenodd" clip-rule="evenodd" d="M13.7208 0.961147C14.2897 1.53008 14.2897 2.65922 13.7208 3.22815L11.5462 5.06399L7.33131 9.7049L5.03865 11.9103C5.03865 11.9103 5.68021 12.1771 10.3569 11.9103C15.0336 11.6434 25.6977 11.9103 25.6977 11.9103H34.5432C35.3478 11.9103 36 12.5625 36 13.3671C36 14.1717 35.3478 14.8239 34.5432 14.8239C34.5432 14.8239 32.6498 14.7088 29.8084 14.7268C28.1548 14.7373 26.1014 14.8815 24.1194 14.8875C19.7113 14.901 15.0683 14.894 12.7569 14.8239C7.62058 14.6682 5.03865 14.8239 5.03865 14.8239L13.7208 23.506C14.2897 24.075 14.2897 24.9974 13.7208 25.5663C13.1518 26.1352 12.2294 26.1352 11.6605 25.5663C11.6605 25.5663 10.0441 24.3451 9.16972 23.2241C8.29534 22.1031 5.47043 19.054 5.47043 19.054L2.97837 16.8842L0.491391 14.3972C0.206926 14.1128 0 13.5528 0 13.18C0 12.8071 0.500203 12.1947 0.784668 11.9103C0.784668 11.9103 4.6185 8.06823 6.29999 6.56611C7.98148 5.06399 11.6605 1.16787 11.6605 1.16787C12.2294 0.598943 13.1518 0.392217 13.7208 0.961147Z" fill="black"/>
</svg>
