<svg xmlns="http://www.w3.org/2000/svg" viewBox="0 0 655.99 82.93"><defs><style>.cls-1{fill:#1d1d1b;}</style></defs><g id="Layer_2" data-name="Layer 2"><g id="Layer_1-2" data-name="Layer 1"><path class="cls-1" d="M.09,81.78l0-.27c-.4-2.11,2.22-3,3-7.26Q6.32,57.42,9.74,40.61c.62-3.06-3.87-4.78-4.19-6.55l0-.27C5.34,32.91,6,32.23,7,32c7.36-1.34,11.05-2,18.43-3.24,1.07-.18,1.87.24,2,1.13l.05.27c.29,1.7-3.67,4.2-1.61,7.29Q35.66,52.1,45.19,66.86c2.29,3.55,5,3.68,5.28,5.8l.05.27c.14.89-.47,1.54-1.51,1.71-8.07,1.3-12.1,2-20.16,3.38a1.53,1.53,0,0,1-2-1.13l0-.27c-.37-2.12,3.83-3.9,2.07-7-.66-1.18-1-1.76-1.66-2.94-6.52,1.13-9.78,1.71-16.29,2.9-.22,1.34-.33,2-.54,3.34-.57,3.54,4,3.76,4.37,5.87l.05.28c.16.88-.44,1.55-1.47,1.74C8.85,81.6,6.6,82,2.09,82.88,1.06,83.07.26,82.66.09,81.78Zm24.2-20.51c-3.6-6.47-5.42-9.71-9.07-16.16-1.32,7.34-2,11-3.23,18.35C16.91,62.57,19.37,62.13,24.29,61.27Z"/><path class="cls-1" d="M101.64,65.24l0,.27c.12.89-.51,1.53-1.55,1.67-4.42.58-6.63.87-11.06,1.48a1.9,1.9,0,0,1-2.26-1.5,12.72,12.72,0,0,1-7.5,3.57C71,71.92,62,67.56,60.23,56.08A16.83,16.83,0,0,1,74.39,36.51a13.14,13.14,0,0,1,6.72.52c-.43-3.1-.65-4.64-1.08-7.74-.47-3.35-4.53-3.34-4.84-5.46l0-.21a2.19,2.19,0,0,1,1.5-2.23c4.83-2.14,7.25-3.19,12.1-5.29,2.21-.93,3.41-.66,3.67,1.32L97.93,59.1C98.37,62.46,101.36,63.11,101.64,65.24ZM84.55,61.68c-.79-5.64-1.18-8.47-2-14.11-.61-4.38-3.85-8-6.47-7.6s-3.63,3-3.21,7.72c.4,4.38,4.29,19.41,9,19C83.85,66.47,84.94,64.49,84.55,61.68Z"/><path class="cls-1" d="M138,39.63l1.55,14.5c.36,3.37,3.34,4.1,3.56,6.23l0,.27c.09.9-.55,1.52-1.59,1.63-4.41.47-6.61.71-11,1.21a1.91,1.91,0,0,1-2.23-1.56,12.66,12.66,0,0,1-7.58,3.39c-8.35,1-17.21-3.58-18.69-15.1A16.82,16.82,0,0,1,116.65,31a12.49,12.49,0,0,1,8.3,1.47c0-1.47,1.39-2.32,3.48-2.28,4,.06,6,.09,9.94.17a2,2,0,0,1,2.14,1.93l0,.27C140.7,34.06,137.56,35.57,138,39.63ZM126.19,56.38c-.65-5.66-1-8.49-1.62-14.15-.63-5.49-3.66-8.07-6.28-7.76s-3.7,2.93-3.39,7.65c.29,4.38,3.82,19.5,8.54,19.17C125.38,61.16,126.52,59.2,126.19,56.38Z"/><path class="cls-1" d="M180.37,26.52c.89,10.86,1.34,16.29,2.23,27.15,1.11,11.16-7.68,19.23-18.22,20.13-7.56.65-15.82-1.57-16.49-8.1-.28-2.75,1.5-5.3,5-5.65,8-.8,6.86,10.42,12.55,10,2.36-.15,4.35-3,3.55-12.61a13.69,13.69,0,0,1-7.7,2.79,12.36,12.36,0,0,1-13.74-11.08c-.46-4.51-.69-6.76-1.16-11.28-.34-3.37-3.35-4.1-3.54-5.95l0-.28a1.87,1.87,0,0,1,1.6-1.9c4.65-1.09,7-1.63,11.64-2.69,2.32-.5,3.79-.15,3.92,1.23.67,8.38,1,12.57,1.68,21,.34,4.34,1.6,5.75,3.49,5.57s3.36-2.66,3.1-5.55c-.48-5.35-.72-8-1.21-13.36-.3-3.38-3.37-4.14-3.54-6l0-.27a1.9,1.9,0,0,1,1.62-1.89c4.66-1,7-1.54,11.67-2.54C179.08,24.75,180.26,25.14,180.37,26.52Z"/><path class="cls-1" d="M253.82,30.6c.66,10.94-4.44,24.21-17.13,24.87A11.42,11.42,0,0,1,226.4,50.9c-2.13,3.31-5.58,5.44-10.68,5.77-5.52.34-13.59-1.66-14.53-14.9l-.61-8.55c-.24-3.38-3.22-4.2-3.36-6.06l0-.28A1.87,1.87,0,0,1,198.85,25c4.69-1,7-1.41,11.72-2.33,2.33-.42,3.79,0,3.92,2,.44,8.78.66,13.18,1.09,22,.12,3,1.36,4.83,3.12,4.72,3.92-.24,4.79-8.18,4.49-13.42-.15-2.49-.22-3.73-.36-6.21-.2-3.39-3.17-4.25-3.28-6.11l0-.28a1.88,1.88,0,0,1,1.68-1.83c4.29-.86,6.44-1.29,10.74-2.12,2.33-.47,3.79,0,3.89,2.08.33,8.65.49,13,.81,21.63.1,3.31,1,5.2,3.15,5.1,4.62-.23,7.71-8.25,7.51-12.81-.25-5.59-7.46-4.91-7.78-11.4-.14-3,2-5.43,5.81-5.6C250.19,20.23,253.39,23.29,253.82,30.6Z"/><path class="cls-1" d="M257.93,52.37l0-.27c-.08-2.15,2.76-3.29,2.63-6.68-.16-4.45-.24-6.67-.41-11.12C260,30.92,257.06,30,257,28.12v-.27c0-.83.66-1.27,1.71-1.8,4.77-2.5,7.17-3.75,12-6.22,2.1-1.1,3.5.11,3.54,1.49.27,9.45.4,14.18.68,23.63.09,3.39,3.35,4.34,3.41,6.48v.27c0,.9-.66,1.47-1.71,1.5-6.74.19-10.12.3-16.86.56C258.68,53.8,258,53.27,257.93,52.37Zm-.37-42.81c-.16-4.28,3.39-7.74,8.87-7.92s9.24,3,9.36,7.32-3.43,7.77-8.86,8S257.73,13.84,257.56,9.56Z"/><path class="cls-1" d="M283.5,40.3c-.15-6.11-.22-9.16-.36-15.27l-2.14,0a1.74,1.74,0,0,1-1.82-1.68l-.05-1.73a1.67,1.67,0,0,1,1.74-1.78l1,0a9.62,9.62,0,0,0,9.43-7.26,2.3,2.3,0,0,1,2.11-2l1.94,0a1.9,1.9,0,0,1,2.1,1.91c.05,2.82.07,4.23.11,7l6.71-.09a1.73,1.73,0,0,1,1.8,1.7c0,.7,0,1,0,1.73a1.74,1.74,0,0,1-1.76,1.75l-6.69.09.24,15.55a2.93,2.93,0,0,0,2.94,3.14,5.2,5.2,0,0,0,4.41-2.27c1.09-1.25,2.81-.79,2.82.6.06,5.53-4,11.57-12.2,11.7C288.57,53.59,283.7,49,283.5,40.3Z"/><path class="cls-1" d="M351,51v.27c0,.9-.73,1.44-1.78,1.43-6.18-.09-9.28-.12-15.47-.15-1.05,0-1.74-.56-1.74-1.46v-.27c0-2.15,2.75-3.17,2.56-6.56-.25-5-.38-7.55-.64-12.59-.32-5.74-1.1-8-3.87-8-2.56,0-3.49,2.34-3.49,5.94,0,5.83,0,8.75,0,14.58,0,3.39,3.23,4.43,3.22,6.58v.27c0,.9-.71,1.45-1.76,1.45-6.74,0-10.12,0-16.87,0-1,0-1.75-.53-1.76-1.43v-.28c0-2.14,3.2-3.2,3.17-6.59l-.21-30.21c0-3.39-3.68-3.71-3.7-5.85V7.94a2.59,2.59,0,0,1,1.78-2.15c5.1-2.2,7.66-3.29,12.79-5.46,1.81-.76,3-.2,3,1.53V21.35a12.11,12.11,0,0,1,8.2-2.67c6,0,12.68,3.15,13.39,13.6.33,4.85.5,7.27.83,12.11C348.75,47.79,351,48.85,351,51Z"/><path class="cls-1" d="M369.58,40.38c.16-6.11.24-9.16.39-15.27l-2.13-.06a1.73,1.73,0,0,1-1.74-1.77c0-.69,0-1,0-1.72A1.67,1.67,0,0,1,368,19.87l1,0a9.65,9.65,0,0,0,9.78-6.79A2.31,2.31,0,0,1,381,11.24l1.93.07a1.9,1.9,0,0,1,2,2c-.09,2.82-.14,4.23-.24,7l6.71.24a1.73,1.73,0,0,1,1.71,1.79L393,24.12a1.74,1.74,0,0,1-1.85,1.66l-6.68-.24c-.21,6.22-.32,9.33-.53,15.55a2.92,2.92,0,0,0,2.78,3.27,5.18,5.18,0,0,0,4.51-2c1.16-1.2,2.85-.65,2.8.73-.22,5.52-4.59,11.36-12.77,11.09C374,53.9,369.36,49.09,369.58,40.38Z"/><path class="cls-1" d="M436.44,54.39l0,.28c-.05.9-.79,1.4-1.84,1.34-6.18-.39-9.27-.58-15.45-.91-1.05-.06-1.72-.65-1.67-1.55l0-.27c.11-2.14,2.9-3,2.88-6.43,0-5,0-7.56,0-12.6,0-5.75-.7-8-3.48-8.15-2.56-.13-3.6,2.17-3.78,5.76-.29,5.83-.44,8.75-.73,14.57-.17,3.39,3,4.59,2.89,6.73l0,.27c0,.9-.77,1.42-1.82,1.36-6.74-.34-10.11-.5-16.86-.78-1.05,0-1.73-.62-1.69-1.52v-.28c.09-2.14,3.36-3,3.5-6.42q.64-15.1,1.28-30.19c.14-3.38-3.5-3.88-3.42-6l0-.28c0-.9.78-1.63,1.88-2.07,5.2-1.94,7.81-2.9,13.05-4.81,1.83-.67,3-.06,2.88,1.67-.4,7.78-.59,11.68-1,19.47a12.18,12.18,0,0,1,8.33-2.27c6,.33,12.51,3.78,12.71,14.25.09,4.86.14,7.28.23,12.14C434.4,51.08,436.58,52.26,436.44,54.39Z"/><path class="cls-1" d="M471.41,48.54c-.31,3.72-4.89,10.38-15.36,9.66-9.87-.68-17.38-8.7-16.67-18.72.73-10.29,9.53-16.42,18.93-15.78,8.91.61,14.24,5.37,13.74,11.37-.4,4.75-5.33,8.56-12.09,8.94a41.64,41.64,0,0,1-5.59,0,9.1,9.1,0,0,0,7.4,4.93,10.41,10.41,0,0,0,7-1.65A1.54,1.54,0,0,1,471.41,48.54ZM452.49,33.88a21.19,21.19,0,0,0,.39,6.19,5.56,5.56,0,0,0,1.21,0c3.21-.24,4.87-2.47,5.24-7.23.22-2.89-1.11-5.14-2.89-5.28C454.38,27.43,452.78,29.88,452.49,33.88Z"/><path class="cls-1" d="M529.47,34.51l0,.28c-.17,1.51-3.56,2.3-4,6.35L523.32,59.2a17.69,17.69,0,0,1-20,16.38C493,74.42,485.86,70.23,486.37,64.8a5,5,0,0,1,5.85-4.58c7.54.73,5.81,11,11.46,11.78,2.42.32,4.92-2,5.77-10l.12-1.09a13.67,13.67,0,0,1-6.58.83c-8.36-.86-16-7.27-15-18.15A16.81,16.81,0,0,1,506.48,28a12.56,12.56,0,0,1,7.77,3.25c.37-1.42,1.86-1.95,3.89-1.45,3.87.92,5.8,1.39,9.66,2.34A2,2,0,0,1,529.47,34.51Zm-19.19,19.7,1.45-13.48c.47-4.39-1.8-8.67-4.42-8.94s-4.25,2-5,6.71c-.68,4.34-.48,19.18,4.19,19.9C508.44,58.69,510,57,510.28,54.21Z"/><path class="cls-1" d="M530,48c1.22-10.38,12-16,21.83-14.71s18.76,9.41,17.29,19.78-11.92,15.78-21.73,14.5S528.75,58.24,530,48Zm23.7,9.31c.48-3.63.48-20-4.76-20.63-2.76-.35-3.51,2.21-4.11,6.94-.55,4.39-.38,19.8,4.71,20.47C552.28,64.45,553.07,61.63,553.65,57.31Z"/><path class="cls-1" d="M571.59,53.43c1.47-10.35,12.35-15.69,22.19-14.18s18.55,9.86,16.83,20.19-12.31,15.49-22.09,14S570.14,63.64,571.59,53.43Zm23.49,9.88c.56-3.62,1-19.94-4.27-20.74-2.75-.42-3.57,2.12-4.28,6.83-.66,4.38-.85,19.79,4.22,20.58C593.53,70.41,594.4,67.61,595.08,63.31Z"/><path class="cls-1" d="M649.73,81.51l-.05.27c-.17.88-1,1.29-2,1.1-4.4-.84-6.59-1.25-11-2A1.9,1.9,0,0,1,635,78.7a12.71,12.71,0,0,1-8.25,1c-8.3-1.47-15.47-8.41-13.56-19.87A16.85,16.85,0,0,1,632.77,45.7,13.2,13.2,0,0,1,639,48.29c.56-3.07.84-4.61,1.39-7.68.61-3.34-3.27-4.59-2.89-6.7l0-.21a2.2,2.2,0,0,1,2.13-1.65c5.26-.52,7.89-.77,13.17-1.24,2.39-.19,3.45.43,3.08,2.4q-3.9,20.65-7.81,41.31C647.48,77.84,650.13,79.4,649.73,81.51Zm-15.16-8.73c1-5.6,1.52-8.4,2.54-14,.79-4.35-1.17-8.78-3.78-9.25s-4.4,1.73-5.46,6.34c-1,4.28-2,19.78,2.63,20.83C632.41,77.12,634.07,75.57,634.57,72.78Z"/></g></g></svg>